SplineFontDB: 3.0
FontName: GUJPatel-Normal
FullName: GUJ Patel Normal
FamilyName: GUJ Patel
Weight: Book
Copyright: Copyright (c) 2009-2015, NLCI (http://www.nlci.in/fonts/)
Version: 1.000 Created on 19 March 2009
ItalicAngle: 0
UnderlinePosition: -290
UnderlineWidth: 20
Ascent: 800
Descent: 200
LayerCount: 2
Layer: 0 1 "Back"  1
Layer: 1 1 "Fore"  0
XUID: [1021 1008 1168222881 11799714]
FSType: 0
OS2Version: 3
OS2_WeightWidthSlopeOnly: 0
OS2_UseTypoMetrics: 1
CreationTime: 1248955740
ModificationTime: 1248955740
PfmFamily: 81
TTFWeight: 400
TTFWidth: 5
LineGap: 0
VLineGap: 0
Panose: 5 0 0 0 0 0 0 0 0 0
OS2TypoAscent: 0
OS2TypoAOffset: 1
OS2TypoDescent: -150
OS2TypoDOffset: 1
OS2TypoLinegap: 0
OS2WinAscent: -1
OS2WinAOffset: 1
OS2WinDescent: -52
OS2WinDOffset: 1
HheadAscent: -1
HheadAOffset: 1
HheadDescent: 52
HheadDOffset: 1
OS2SubXSize: 700
OS2SubYSize: 650
OS2SubXOff: 0
OS2SubYOff: 143
OS2SupXSize: 700
OS2SupYSize: 650
OS2SupXOff: 0
OS2SupYOff: 453
OS2StrikeYSize: 50
OS2StrikeYPos: 259
OS2Vendor: 'Alts'
OS2CodePages: 80000000.00000000
OS2UnicodeRanges: 00000000.00000000.00000000.00000000
DEI: 91125
TtTable: prep
PUSHW_1
 10
CALL
PUSHW_1
 0
CALL
EndTTInstrs
TtTable: fpgm
PUSHW_1
 0
FDEF
MPPEM
PUSHW_1
 6
LT
IF
PUSHB_2
 1
 1
INSTCTRL
EIF
PUSHW_1
 511
SCANCTRL
PUSHW_1
 68
SCVTCI
PUSHW_2
 6
 3
SDS
SDB
ENDF
PUSHW_1
 1
FDEF
DUP
DUP
RCVT
ROUND[Black]
WCVTP
PUSHB_1
 1
ADD
ENDF
PUSHW_1
 2
FDEF
PUSHW_1
 1
LOOPCALL
POP
ENDF
PUSHW_1
 3
FDEF
DUP
GC[cur]
PUSHB_1
 3
CINDEX
GC[cur]
GT
IF
SWAP
EIF
DUP
ROLL
DUP
ROLL
MD[grid]
ABS
ROLL
DUP
GC[cur]
DUP
ROUND[Grey]
SUB
ABS
PUSHB_1
 4
CINDEX
GC[cur]
DUP
ROUND[Grey]
SUB
ABS
GT
IF
SWAP
NEG
ROLL
EIF
MDAP[rnd]
DUP
PUSHB_1
 0
GTEQ
IF
ROUND[Black]
DUP
PUSHB_1
 0
EQ
IF
POP
PUSHB_1
 64
EIF
ELSE
ROUND[Black]
DUP
PUSHB_1
 0
EQ
IF
POP
PUSHB_1
 64
NEG
EIF
EIF
MSIRP[no-rp0]
ENDF
PUSHW_1
 4
FDEF
DUP
GC[cur]
PUSHB_1
 4
CINDEX
GC[cur]
GT
IF
SWAP
ROLL
EIF
DUP
GC[cur]
DUP
ROUND[White]
SUB
ABS
PUSHB_1
 4
CINDEX
GC[cur]
DUP
ROUND[White]
SUB
ABS
GT
IF

StartChar: exclam
Encoding: 33 33 4
Width: 337
Flags: W
LayerCount: 2
Fore
SplineSet
230 49 m 256,0,1
 230 37 230 37 225.5 26 c 128,-1,2
 221 15 221 15 212.5 6.5 c 128,-1,3
 204 -2 204 -2 193 -7 c 128,-1,4
 182 -12 182 -12 170 -12 c 256,5,6
 158 -12 158 -12 147 -7 c 128,-1,7
 136 -2 136 -2 128 6.5 c 128,-1,8
 120 15 120 15 115.5 26 c 128,-1,9
 111 37 111 37 111 49 c 256,10,11
 111 61 111 61 115.5 72 c 128,-1,12
 120 83 120 83 128 91 c 128,-1,13
 136 99 136 99 147 103.5 c 128,-1,14
 158 108 158 108 170 108 c 256,15,16
 182 108 182 108 193 103.5 c 128,-1,17
 204 99 204 99 212.5 91 c 128,-1,18
 221 83 221 83 225.5 72 c 128,-1,19
 230 61 230 61 230 49 c 256,0,1
230 620 m 0,20,21
 230 618 230 618 228.5 597.5 c 128,-1,22
 227 577 227 577 225 546 c 128,-1,23
 223 515 223 515 220 476 c 128,-1,24
 217 437 217 437 214 397 c 0,25,26
 206 302 206 302 197 183 c 1,27,-1
 149 183 l 1,28,29
 139 302 139 302 131 397 c 0,30,31
 128 437 128 437 125 476 c 128,-1,32
 122 515 122 515 120 546 c 128,-1,33
 118 577 118 577 116.5 597.5 c 128,-1,34
 115 618 115 618 115 620 c 0,35,36
 115 650 115 650 129.5 667 c 128,-1,37
 144 684 144 684 175 684 c 256,38,39
 206 684 206 684 220.5 667 c 128,-1,40
 235 650 235 650 230 620 c 0,20,21
EndSplineSet
EndChar

StartChar: quotedbl
Encoding: 34 34 5
Width: 333
Flags: W
LayerCount: 2
Fore
SplineSet
94 420 m 1,0,-1
 78 420 l 1,1,-1
 43 664 l 1,2,3
 43 687 43 687 54 699.5 c 128,-1,4
 65 712 65 712 85 712 c 256,5,6
 105 712 105 712 115 699.5 c 128,-1,7
 125 687 125 687 125 664 c 1,8,-1
 94 420 l 1,0,-1
251 420 m 1,9,-1
 235 420 l 1,10,-1
 202 664 l 1,11,12
 202 687 202 687 212.5 699.5 c 128,-1,13
 223 712 223 712 243 712 c 256,14,15
 263 712 263 712 273.5 699.5 c 128,-1,16
 284 687 284 687 284 664 c 1,17,-1
 251 420 l 1,9,-1
EndSplineSet
EndChar

StartChar: numbersign
Encoding: 35 35 6
Width: 743
Flags: W
LayerCount: 2
Fore
SplineSet
324 420 m 1,0,-1
 275 277 l 1,1,-1
 420 277 l 1,2,-1
 469 420 l 1,3,-1
 324 420 l 1,0,-1
523 420 m 1,4,-1
 477 277 l 1,5,-1
 638 277 l 1,6,-1
 638 228 l 1,7,-1
 459 228 l 1,8,-1
 376 -22 l 1,9,-1
 327 -6 l 1,10,-1
 404 228 l 1,11,-1
 259 228 l 1,12,-1
 175 -22 l 1,13,-1
 127 -5 l 1,14,-1
 207 228 l 1,15,-1
 65 228 l 1,16,-1
 65 277 l 1,17,-1
 223 277 l 1,18,-1
 271 420 l 1,19,-1
 109 420 l 1,20,-1
 109 471 l 1,21,-1
 288 471 l 1,22,-1
 368 706 l 1,23,-1
 418 690 l 1,24,-1
 341 471 l 1,25,-1
 486 471 l 1,26,-1
 565 706 l 1,27,-1
 618 690 l 1,28,-1
 542 471 l 1,29,-1
 682 471 l 1,30,-1
 682 420 l 1,31,-1
 523 420 l 1,4,-1
EndSplineSet
EndChar

StartChar: dollar
Encoding: 36 36 7
Width: 562
Flags: W
LayerCount: 2
Fore
SplineSet
414 170 m 0,0,1
 414 197 414 197 405.5 216.5 c 128,-1,2
 397 236 397 236 382 249.5 c 128,-1,3
 367 263 367 263 347.5 272 c 128,-1,4
 328 281 328 281 308 287 c 1,5,-1
 308 51 l 1,6,7
 328 54 328 54 347.5 62.5 c 128,-1,8
 367 71 367 71 382 85 c 128,-1,9
 397 99 397 99 405.5 119.5 c 128,-1,10
 414 140 414 140 414 170 c 0,0,1
262 614 m 1,11,12
 242 610 242 610 225 601 c 128,-1,13
 208 592 208 592 195.5 578 c 128,-1,14
 183 564 183 564 176 545 c 128,-1,15
 169 526 169 526 169 502 c 256,16,17
 169 478 169 478 178 460.5 c 128,-1,18
 187 443 187 443 200.5 431 c 128,-1,19
 214 419 214 419 230.5 411 c 128,-1,20
 247 403 247 403 262 398 c 1,21,-1
 262 614 l 1,11,12
505 191 m 1,22,23
 505 161 505 161 495 135.5 c 128,-1,24
 485 110 485 110 469 89.5 c 128,-1,25
 453 69 453 69 432 53.5 c 128,-1,26
 411 38 411 38 389 27.5 c 128,-1,27
 367 17 367 17 346.5 11.5 c 128,-1,28
 326 6 326 6 310 6 c 1,29,-1
 310 -97 l 1,30,-1
 264 -97 l 1,31,-1
 264 6 l 1,32,33
 246 6 246 6 222 7 c 128,-1,34
 198 8 198 8 171.5 10.5 c 128,-1,35
 145 13 145 13 117.5 17.5 c 128,-1,36
 90 22 90 22 65 29 c 1,37,-1
 65 198 l 1,38,-1
 114 198 l 1,39,-1
 132 87 l 1,40,41
 138 79 138 79 151.5 72.5 c 128,-1,42
 165 66 165 66 183 62 c 128,-1,43
 201 58 201 58 221.5 56 c 128,-1,44
 242 54 242 54 262 54 c 1,45,-1
 262 306 l 1,46,47
 230 313 230 313 197.5 326 c 128,-1,48
 165 339 165 339 138.5 360 c 128,-1,49
 112 381 112 381 95.5 412 c 128,-1,50
 79 443 79 443 79 485 c 0,51,52
 79 515 79 515 87 539.5 c 128,-1,53
 95 564 95 564 109 583 c 128,-1,54
 123 602 123 602 141.5 616.5 c 128,-1,55
 160 631 160 631 180.5 641 c 128,-1,56
 201 651 201 651 222.5 657.5 c 128,-1,57
 244 664 244 664 263 666 c 1,58,-1
 263 741 l 1,59,-1
 308 741 l 1,60,-1
 308 669 l 1,61,62
 340 669 340 669 370.5 665.5 c 128,-1,63
 401 662 401 662 424 658 c 0,64,65
 451 653 451 653 475 648 c 1,66,-1
 475 491 l 1,67,-1
 423 491 l 1,68,-1
 409 596 l 1,69,70
 386 621 386 621 307 621 c 1,71,-1
 307 383 l 1,72,73
 328 377 328 377 351 370 c 128,-1,74
 374 363 374 363 395.5 353 c 128,-1,75
 417 343 417 343 436.5 329.5 c 128,-1,76
 456 316 456 316 470.5 296.5 c 128,-1,77
 485 277 485 277 493.5 251.5 c 128,-1,78
 502 226 502 226 505 191 c 1,22,23
EndSplineSet
EndChar

StartChar: percent
Encoding: 37 37 8
Width: 859
Flags: W
LayerCount: 2
Fore
SplineSet
262 477 m 256,0,1
 262 516 262 516 258 547.5 c 128,-1,2
 254 579 254 579 245 601 c 128,-1,3
 236 623 236 623 222 635 c 128,-1,4
 208 647 208 647 188 647 c 256,5,6
 168 647 168 647 153.5 635 c 128,-1,7
 139 623 139 623 129.5 601 c 128,-1,8
 120 579 120 579 115.5 547.5 c 128,-1,9
 111 516 111 516 111 477 c 256,10,11
 111 438 111 438 115.5 406.5 c 128,-1,12
 120 375 120 375 129.5 353 c 128,-1,13
 139 331 139 331 153.5 319 c 128,-1,14
 168 307 168 307 188 307 c 256,15,16
 208 307 208 307 222 319 c 128,-1,17
 236 331 236 331 245 353 c 128,-1,18
 254 375 254 375 258 406.5 c 128,-1,19
 262 438 262 438 262 477 c 256,0,1
750 195 m 256,20,21
 750 234 750 234 746 265.5 c 128,-1,22
 742 297 742 297 733 319 c 128,-1,23
 724 341 724 341 710 353 c 128,-1,24
 696 365 696 365 676 365 c 256,25,26
 656 365 656 365 641.5 353 c 128,-1,27
 627 341 627 341 617.5 319 c 128,-1,28
 608 297 608 297 603.5 265.5 c 128,-1,29
 599 234 599 234 599 195 c 256,30,31
 599 156 599 156 603.5 124.5 c 128,-1,32
 608 93 608 93 617.5 70.5 c 128,-1,33
 627 48 627 48 641.5 36 c 128,-1,34
 656 24 656 24 676 24 c 256,35,36
 696 24 696 24 710 36 c 128,-1,37
 724 48 724 48 733 70.5 c 128,-1,38
 742 93 742 93 746 124.5 c 128,-1,39
 750 156 750 156 750 195 c 256,20,21
338 478 m 256,40,41
 338 434 338 434 329 396 c 128,-1,42
 320 358 320 358 301 330 c 128,-1,43
 282 302 282 302 253.5 286 c 128,-1,44
 225 270 225 270 187 270 c 256,45,46
 149 270 149 270 120.5 286 c 128,-1,47
 92 302 92 302 73 330 c 128,-1,48
 54 358 54 358 44.5 396 c 128,-1,49
 35 434 35 434 35 478 c 256,50,51
 35 522 35 522 44.5 560.5 c 128,-1,52
 54 599 54 599 73 627 c 128,-1,53
 92 655 92 655 120.5 671 c 128,-1,54
 149 687 149 687 187 687 c 256,55,56
 225 687 225 687 253.5 671 c 128,-1,57
 282 655 282 655 301 627 c 128,-1,58
 320 599 320 599 329 560.5 c 128,-1,59
 338 522 338 522 338 478 c 256,40,41
250 1 m 1,60,-1
 188 1 l 1,61,-1
 612 671 l 1,62,-1
 674 671 l 1,63,-1
 250 1 l 1,60,-1
828 194 m 256,64,65
 828 150 828 150 818.5 112 c 128,-1,66
 809 74 809 74 790 46 c 128,-1,67
 771 18 771 18 742.5 2 c 128,-1,68
 714 -14 714 -14 676 -14 c 256,69,70
 638 -14 638 -14 609.5 2 c 128,-1,71
 581 18 581 18 562 46 c 128,-1,72
 543 74 543 74 533.5 112 c 128,-1,73
 524 150 524 150 524 194 c 256,74,75
 524 238 524 238 533.5 276.5 c 128,-1,76
 543 315 543 315 562 343 c 128,-1,77
 581 371 581 371 609.5 387 c 128,-1,78
 638 403 638 403 676 403 c 256,79,80
 714 403 714 403 742.5 387 c 128,-1,81
 771 371 771 371 790 343 c 128,-1,82
 809 315 809 315 818.5 276.5 c 128,-1,83
 828 238 828 238 828 194 c 256,64,65
EndSplineSet
EndChar

StartChar: ampersand
Encoding: 38 38 9
Width: 699
Flags: W
LayerCount: 2
Fore
SplineSet
211 333 m 1,0,1
 196 323 196 323 183.5 311 c 128,-1,2
 171 299 171 299 161.5 284.5 c 128,-1,3
 152 270 152 270 146.5 252 c 128,-1,4
 141 234 141 234 141 212 c 0,5,6
 141 179 141 179 152 150.5 c 128,-1,7
 163 122 163 122 182.5 101.5 c 128,-1,8
 202 81 202 81 228.5 69.5 c 128,-1,9
 255 58 255 58 285 58 c 0,10,11
 307 58 307 58 325.5 62.5 c 128,-1,12
 344 67 344 67 359.5 74.5 c 128,-1,13
 375 82 375 82 388.5 92 c 128,-1,14
 402 102 402 102 414 112 c 1,15,-1
 211 333 l 1,0,1
359 529 m 0,16,17
 359 550 359 550 353.5 569.5 c 128,-1,18
 348 589 348 589 336.5 603.5 c 128,-1,19
 325 618 325 618 307.5 626.5 c 128,-1,20
 290 635 290 635 267 635 c 0,21,22
 247 635 247 635 230.5 628 c 128,-1,23
 214 621 214 621 202.5 608.5 c 128,-1,24
 191 596 191 596 185 579 c 128,-1,25
 179 562 179 562 179 543 c 0,26,27
 179 519 179 519 188.5 497.5 c 128,-1,28
 198 476 198 476 211.5 458 c 128,-1,29
 225 440 225 440 241 425 c 128,-1,30
 257 410 257 410 270 397 c 1,31,32
 291 407 291 407 307.5 419.5 c 128,-1,33
 324 432 324 432 335 448 c 128,-1,34
 346 464 346 464 352 484 c 128,-1,35
 358 504 358 504 359 529 c 0,16,17
490 3 m 1,36,-1
 490 26 l 1,37,-1
 446 76 l 1,38,39
 427 61 427 61 406.5 46 c 128,-1,40
 386 31 386 31 362 19 c 128,-1,41
 338 7 338 7 309.5 -0.5 c 128,-1,42
 281 -8 281 -8 246 -8 c 0,43,44
 204 -8 204 -8 166.5 6.5 c 128,-1,45
 129 21 129 21 101 47 c 128,-1,46
 73 73 73 73 57 109 c 128,-1,47
 41 145 41 145 41 187 c 0,48,49
 41 219 41 219 50.5 246 c 128,-1,50
 60 273 60 273 77.5 294.5 c 128,-1,51
 95 316 95 316 119.5 332.5 c 128,-1,52
 144 349 144 349 173 361 c 1,53,54
 165 369 165 369 151 383 c 128,-1,55
 137 397 137 397 123.5 416.5 c 128,-1,56
 110 436 110 436 100 460 c 128,-1,57
 90 484 90 484 90 512 c 0,58,59
 90 549 90 549 104 580 c 128,-1,60
 118 611 118 611 143.5 633 c 128,-1,61
 169 655 169 655 203.5 667 c 128,-1,62
 238 679 238 679 278 679 c 0,63,64
 316 679 316 679 348 668 c 128,-1,65
 380 657 380 657 403 637 c 128,-1,66
 426 617 426 617 439 589.5 c 128,-1,67
 452 562 452 562 452 530 c 0,68,69
 452 494 452 494 439.5 467 c 128,-1,70
 427 440 427 440 406.5 419.5 c 128,-1,71
 386 399 386 399 360 384 c 128,-1,72
 334 369 334 369 307 357 c 1,73,-1
 474 176 l 1,74,75
 481 186 481 186 490 200 c 128,-1,76
 499 214 499 214 507 229.5 c 128,-1,77
 515 245 515 245 521 261 c 128,-1,78
 527 277 527 277 528 291 c 0,79,80
 528 295 528 295 522.5 301.5 c 128,-1,81
 517 308 517 308 511 308 c 2,82,-1
 457 315 l 1,83,-1
 457 356 l 1,84,-1
 662 356 l 1,85,-1
 662 315 l 1,86,-1
 591 305 l 1,87,88
 584 280 584 280 574 256.5 c 128,-1,89
 564 233 564 233 553 211.5 c 128,-1,90
 542 190 542 190 530 171.5 c 128,-1,91
 518 153 518 153 508 138 c 1,92,-1
 589 45 l 1,93,-1
 678 41 l 1,94,-1
 678 -1 l 1,95,-1
 490 3 l 1,36,-1
EndSplineSet
EndChar

StartChar: quotesingle
Encoding: 39 39 10
Width: 170
Flags: W
LayerCount: 2
Fore
SplineSet
94 420 m 1,0,-1
 78 420 l 1,1,-1
 43 664 l 1,2,3
 43 687 43 687 53.5 699.5 c 128,-1,4
 64 712 64 712 84 712 c 256,5,6
 104 712 104 712 114.5 699.5 c 128,-1,7
 125 687 125 687 125 664 c 1,8,-1
 94 420 l 1,0,-1
EndSplineSet
EndChar

StartChar: parenleft
Encoding: 40 40 11
Width: 375
Flags: W
LayerCount: 2
Fore
SplineSet
342 -142 m 1,0,1
 290 -137 290 -137 249 -118.5 c 128,-1,2
 208 -100 208 -100 177 -70.5 c 128,-1,3
 146 -41 146 -41 124 -2.5 c 128,-1,4
 102 36 102 36 88.5 81.5 c 128,-1,5
 75 127 75 127 68.5 178.5 c 128,-1,6
 62 230 62 230 62 284 c 0,7,8
 62 365 62 365 76.5 438.5 c 128,-1,9
 91 512 91 512 124.5 569.5 c 128,-1,10
 158 627 158 627 211.5 664 c 128,-1,11
 265 701 265 701 343 709 c 1,12,-1
 343 666 l 1,13,14
 291 658 291 658 255 628 c 128,-1,15
 219 598 219 598 196.5 549 c 128,-1,16
 174 500 174 500 164 433 c 128,-1,17
 154 366 154 366 154 283 c 256,18,19
 154 200 154 200 164 133 c 128,-1,20
 174 66 174 66 196.5 16.5 c 128,-1,21
 219 -33 219 -33 255 -63 c 128,-1,22
 291 -93 291 -93 343 -101 c 1,23,-1
 342 -142 l 1,0,1
EndSplineSet
EndChar

StartChar: parenright
Encoding: 41 41 12
Width: 375
Flags: W
LayerCount: 2
Fore
SplineSet
317 288 m 1,0,1
 317 234 317 234 310.5 182.5 c 128,-1,2
 304 131 304 131 290.5 85.5 c 128,-1,3
 277 40 277 40 255 1.5 c 128,-1,4
 233 -37 233 -37 202 -66.5 c 128,-1,5
 171 -96 171 -96 130 -114.5 c 128,-1,6
 89 -133 89 -133 37 -138 c 1,7,-1
 37 -95 l 1,8,9
 89 -87 89 -87 125 -57 c 128,-1,10
 161 -27 161 -27 183 22.5 c 128,-1,11
 205 72 205 72 215 139 c 128,-1,12
 225 206 225 206 225 289 c 256,13,14
 225 372 225 372 215 439 c 128,-1,15
 205 506 205 506 183 555 c 128,-1,16
 161 604 161 604 125 634 c 128,-1,17
 89 664 89 664 37 672 c 1,18,-1
 37 715 l 1,19,20
 115 707 115 707 169 670 c 128,-1,21
 223 633 223 633 256.5 575.5 c 128,-1,22
 290 518 290 518 304.5 444.5 c 128,-1,23
 319 371 319 371 317 288 c 1,0,1
EndSplineSet
EndChar

StartChar: asterisk
Encoding: 42 42 13
Width: 500
Flags: W
LayerCount: 2
Fore
SplineSet
198 362 m 1,0,-1
 129 337 l 1,1,-1
 130 411 l 1,2,-1
 231 492 l 1,3,-1
 243 483 l 1,4,-1
 198 362 l 1,0,-1
227 505 m 1,5,-1
 98 512 l 1,6,-1
 54 568 l 1,7,-1
 124 588 l 1,8,-1
 231 518 l 1,9,-1
 227 505 l 1,5,-1
300 361 m 1,10,-1
 255 481 l 1,11,-1
 267 490 l 1,12,-1
 368 409 l 1,13,-1
 369 335 l 1,14,-1
 300 361 l 1,10,-1
255 527 m 1,15,-1
 242 527 l 1,16,-1
 208 652 l 1,17,-1
 249 713 l 1,18,-1
 290 652 l 1,19,-1
 255 527 l 1,15,-1
399 511 m 1,20,-1
 271 504 l 1,21,-1
 267 518 l 1,22,-1
 374 588 l 1,23,-1
 444 568 l 1,24,-1
 399 511 l 1,20,-1
EndSplineSet
EndChar

StartChar: plus
Encoding: 43 43 14
Width: 1000
Flags: W
LayerCount: 2
Fore
SplineSet
530 269 m 1,0,-1
 530 0 l 1,1,-1
 469 0 l 1,2,-1
 469 269 l 1,3,-1
 200 269 l 1,4,-1
 200 331 l 1,5,-1
 469 331 l 1,6,-1
 469 600 l 1,7,-1
 530 600 l 1,8,-1
 530 331 l 1,9,-1
 799 331 l 1,10,-1
 799 269 l 1,11,-1
 530 269 l 1,0,-1
EndSplineSet
EndChar

StartChar: comma
Encoding: 44 44 15
Width: 279
Flags: W
LayerCount: 2
Fore
SplineSet
206 9 m 0,0,1
 206 -28 206 -28 192 -59 c 128,-1,2
 178 -90 178 -90 154 -113.5 c 128,-1,3
 130 -137 130 -137 99 -151 c 128,-1,4
 68 -165 68 -165 34 -167 c 1,5,-1
 34 -131 l 1,6,7
 60 -126 60 -126 80.5 -116 c 128,-1,8
 101 -106 101 -106 114.5 -90 c 128,-1,9
 128 -74 128 -74 135 -50.5 c 128,-1,10
 142 -27 142 -27 142 7 c 1,11,-1
 80 7 l 1,12,13
 80 7 80 7 77.5 10.5 c 128,-1,14
 75 14 75 14 72 19.5 c 128,-1,15
 69 25 69 25 67 33 c 128,-1,16
 65 41 65 41 65 51 c 0,17,18
 65 64 65 64 69.5 76 c 128,-1,19
 74 88 74 88 82 97.5 c 128,-1,20
 90 107 90 107 101 112.5 c 128,-1,21
 112 118 112 118 125 118 c 0,22,23
 146 118 146 118 161.5 109.5 c 128,-1,24
 177 101 177 101 187 86.5 c 128,-1,25
 197 72 197 72 201.5 51.5 c 128,-1,26
 206 31 206 31 206 9 c 0,0,1
EndSplineSet
EndChar

StartChar: hyphen
Encoding: 45 45 16
Width: 319
Flags: W
LayerCount: 2
Fore
SplineSet
43 203 m 1,0,-1
 43 277 l 1,1,-1
 274 277 l 1,2,-1
 274 203 l 1,3,-1
 43 203 l 1,0,-1
EndSplineSet
EndChar

StartChar: period
Encoding: 46 46 17
Width: 279
Flags: W
LayerCount: 2
Fore
SplineSet
195 55 m 0,0,1
 195 41 195 41 190 29 c 128,-1,2
 185 17 185 17 176 8 c 128,-1,3
 167 -1 167 -1 155 -6 c 128,-1,4
 143 -11 143 -11 130 -11 c 0,5,6
 116 -11 116 -11 104.5 -6 c 128,-1,7
 93 -1 93 -1 84 8 c 128,-1,8
 75 17 75 17 70 29 c 128,-1,9
 65 41 65 41 65 55 c 0,10,11
 65 68 65 68 70 80 c 128,-1,12
 75 92 75 92 84 101 c 128,-1,13
 93 110 93 110 104.5 115 c 128,-1,14
 116 120 116 120 130 120 c 0,15,16
 143 120 143 120 155 115 c 128,-1,17
 167 110 167 110 176 101 c 128,-1,18
 185 92 185 92 190 80 c 128,-1,19
 195 68 195 68 195 55 c 0,0,1
EndSplineSet
EndChar

StartChar: slash
Encoding: 47 47 18
Width: 490
Flags: W
LayerCount: 2
Fore
SplineSet
63 -92 m 1,0,-1
 0 -92 l 1,1,-1
 425 671 l 1,2,-1
 489 671 l 1,3,-1
 63 -92 l 1,0,-1
EndSplineSet
EndChar

StartChar: zero
Encoding: 48 48 19
Width: 562
Flags: W
LayerCount: 2
Fore
SplineSet
416 334 m 256,0,1
 416 371 416 371 413.5 407.5 c 128,-1,2
 411 444 411 444 405 477.5 c 128,-1,3
 399 511 399 511 389 539.5 c 128,-1,4
 379 568 379 568 364 588.5 c 128,-1,5
 349 609 349 609 328.5 620.5 c 128,-1,6
 308 632 308 632 282 632 c 256,7,8
 256 632 256 632 235.5 620.5 c 128,-1,9
 215 609 215 609 200.5 588.5 c 128,-1,10
 186 568 186 568 176 539.5 c 128,-1,11
 166 511 166 511 160 477.5 c 128,-1,12
 154 444 154 444 151.5 407.5 c 128,-1,13
 149 371 149 371 149 334 c 256,14,15
 149 297 149 297 151.5 260.5 c 128,-1,16
 154 224 154 224 160 191 c 128,-1,17
 166 158 166 158 176 129.5 c 128,-1,18
 186 101 186 101 200.5 80.5 c 128,-1,19
 215 60 215 60 235.5 48.5 c 128,-1,20
 256 37 256 37 282 37 c 256,21,22
 308 37 308 37 328.5 48.5 c 128,-1,23
 349 60 349 60 364 80.5 c 128,-1,24
 379 101 379 101 389 129.5 c 128,-1,25
 399 158 399 158 405 191 c 128,-1,26
 411 224 411 224 413.5 260.5 c 128,-1,27
 416 297 416 297 416 334 c 256,0,1
521 334 m 1,28,29
 521 263 521 263 506.5 199.5 c 128,-1,30
 492 136 492 136 462 88.5 c 128,-1,31
 432 41 432 41 386.5 13 c 128,-1,32
 341 -15 341 -15 280 -15 c 256,33,34
 219 -15 219 -15 174 13 c 128,-1,35
 129 41 129 41 99 88.5 c 128,-1,36
 69 136 69 136 54.5 199.5 c 128,-1,37
 40 263 40 263 40 334 c 0,38,39
 40 381 40 381 46.5 425.5 c 128,-1,40
 53 470 53 470 66 509 c 128,-1,41
 79 548 79 548 98.5 580 c 128,-1,42
 118 612 118 612 144.5 635 c 128,-1,43
 171 658 171 658 204.5 670.5 c 128,-1,44
 238 683 238 683 278 683 c 256,45,46
 318 683 318 683 351.5 670.5 c 128,-1,47
 385 658 385 658 411.5 635 c 128,-1,48
 438 612 438 612 458 580 c 128,-1,49
 478 548 478 548 491 509 c 128,-1,50
 504 470 504 470 510.5 425.5 c 128,-1,51
 517 381 517 381 521 334 c 1,28,29
EndSplineSet
EndChar

StartChar: one
Encoding: 49 49 20
Width: 562
Flags: W
LayerCount: 2
Fore
SplineSet
107 0 m 1,0,-1
 107 44 l 1,1,-1
 208 47 l 2,2,3
 217 47 217 47 223 53.5 c 128,-1,4
 229 60 229 60 229 68 c 2,5,-1
 229 599 l 1,6,-1
 75 573 l 1,7,-1
 75 617 l 1,8,-1
 290 683 l 1,9,-1
 328 683 l 1,10,-1
 328 67 l 2,11,12
 328 59 328 59 334 52.5 c 128,-1,13
 340 46 340 46 349 46 c 2,14,-1
 442 43 l 1,15,-1
 442 -1 l 1,16,-1
 107 0 l 1,0,-1
EndSplineSet
EndChar

StartChar: two
Encoding: 50 50 21
Width: 562
Flags: W
LayerCount: 2
Fore
SplineSet
46 0 m 1,0,-1
 46 66 l 1,1,2
 122 128 122 128 185.5 180.5 c 128,-1,3
 249 233 249 233 295.5 282 c 128,-1,4
 342 331 342 331 367.5 378.5 c 128,-1,5
 393 426 393 426 393 478 c 0,6,7
 393 514 393 514 382 542 c 128,-1,8
 371 570 371 570 352 589 c 128,-1,9
 333 608 333 608 307 618 c 128,-1,10
 281 628 281 628 252 628 c 0,11,12
 235 628 235 628 221 624.5 c 128,-1,13
 207 621 207 621 196.5 616.5 c 128,-1,14
 186 612 186 612 179.5 608.5 c 128,-1,15
 173 605 173 605 172 605 c 1,16,-1
 172 495 l 1,17,18
 167 491 167 491 160 488 c 0,19,20
 154 485 154 485 145 483 c 128,-1,21
 136 481 136 481 125 481 c 256,22,23
 114 481 114 481 103.5 484.5 c 128,-1,24
 93 488 93 488 84.5 495 c 128,-1,25
 76 502 76 502 71.5 512.5 c 128,-1,26
 67 523 67 523 67 538 c 0,27,28
 67 569 67 569 84.5 596 c 128,-1,29
 102 623 102 623 132 643 c 128,-1,30
 162 663 162 663 201.5 674 c 128,-1,31
 241 685 241 685 284 685 c 0,32,33
 332 685 332 685 373 671 c 128,-1,34
 414 657 414 657 443.5 631.5 c 128,-1,35
 473 606 473 606 489.5 570.5 c 128,-1,36
 506 535 506 535 506 492 c 0,37,38
 506 457 506 457 493 423 c 128,-1,39
 480 389 480 389 456 356 c 128,-1,40
 432 323 432 323 399.5 290 c 128,-1,41
 367 257 367 257 328.5 223.5 c 128,-1,42
 290 190 290 190 246.5 156 c 128,-1,43
 203 122 203 122 159 87 c 1,44,-1
 455 87 l 1,45,-1
 472 172 l 1,46,-1
 521 172 l 1,47,-1
 521 3 l 1,48,-1
 46 0 l 1,0,-1
EndSplineSet
EndChar

StartChar: three
Encoding: 51 51 22
Width: 562
Flags: W
LayerCount: 2
Fore
SplineSet
516 190 m 0,0,1
 516 145 516 145 495.5 107 c 128,-1,2
 475 69 475 69 439.5 42 c 128,-1,3
 404 15 404 15 356.5 0 c 128,-1,4
 309 -15 309 -15 255 -15 c 0,5,6
 205 -15 205 -15 166.5 -4 c 128,-1,7
 128 7 128 7 102 24.5 c 128,-1,8
 76 42 76 42 63 62.5 c 128,-1,9
 50 83 50 83 50 101 c 0,10,11
 50 111 50 111 53.5 120.5 c 128,-1,12
 57 130 57 130 64 137.5 c 128,-1,13
 71 145 71 145 81.5 149.5 c 128,-1,14
 92 154 92 154 107 154 c 0,15,16
 112 154 112 154 122.5 153 c 128,-1,17
 133 152 133 152 139 148 c 1,18,-1
 168 60 l 1,19,20
 187 49 187 49 208.5 42 c 128,-1,21
 230 35 230 35 253 35 c 0,22,23
 288 35 288 35 316.5 48 c 128,-1,24
 345 61 345 61 365.5 82.5 c 128,-1,25
 386 104 386 104 397 132 c 128,-1,26
 408 160 408 160 408 190 c 0,27,28
 408 226 408 226 394 250 c 128,-1,29
 380 274 380 274 358.5 288 c 128,-1,30
 337 302 337 302 311 308 c 128,-1,31
 285 314 285 314 261 314 c 0,32,33
 248 314 248 314 237 314 c 128,-1,34
 226 314 226 314 218 314 c 0,35,36
 209 314 209 314 202 314 c 1,37,-1
 202 376 l 1,38,39
 203 376 203 376 211 376 c 128,-1,40
 219 376 219 376 226 376 c 0,41,42
 257 376 257 376 286 383.5 c 128,-1,43
 315 391 315 391 337 406 c 128,-1,44
 359 421 359 421 372 444.5 c 128,-1,45
 385 468 385 468 385 501 c 0,46,47
 385 532 385 532 374.5 556 c 128,-1,48
 364 580 364 580 346 596.5 c 128,-1,49
 328 613 328 613 304.5 621.5 c 128,-1,50
 281 630 281 630 256 630 c 0,51,52
 236 630 236 630 219.5 626 c 128,-1,53
 203 622 203 622 192 617 c 1,54,55
 178 612 178 612 168 605 c 1,56,-1
 168 505 l 1,57,58
 166 504 166 504 154.5 498.5 c 128,-1,59
 143 493 143 493 125 493 c 0,60,61
 117 493 117 493 107 495.5 c 128,-1,62
 97 498 97 498 88.5 504 c 128,-1,63
 80 510 80 510 74.5 520.5 c 128,-1,64
 69 531 69 531 69 547 c 0,65,66
 69 575 69 575 86.5 600.5 c 128,-1,67
 104 626 104 626 134 645 c 128,-1,68
 164 664 164 664 204 675 c 128,-1,69
 244 686 244 686 288 686 c 0,70,71
 331 686 331 686 368 674 c 128,-1,72
 405 662 405 662 432.5 640 c 128,-1,73
 460 618 460 618 475.5 586.5 c 128,-1,74
 491 555 491 555 491 516 c 0,75,76
 491 460 491 460 451.5 418.5 c 128,-1,77
 412 377 412 377 338 357 c 1,78,79
 369 356 369 356 401 346 c 128,-1,80
 433 336 433 336 458.5 316.5 c 128,-1,81
 484 297 484 297 500 267 c 128,-1,82
 516 237 516 237 516 190 c 0,0,1
EndSplineSet
EndChar

StartChar: four
Encoding: 52 52 23
Width: 562
Flags: W
LayerCount: 2
Fore
SplineSet
344 559 m 1,0,-1
 119 268 l 1,1,-1
 344 268 l 1,2,-1
 344 559 l 1,0,-1
437 201 m 1,3,-1
 437 -14 l 1,4,-1
 344 -14 l 1,5,-1
 344 201 l 1,6,-1
 40 201 l 1,7,-1
 40 269 l 1,8,-1
 368 687 l 1,9,-1
 437 687 l 1,10,-1
 437 268 l 1,11,-1
 521 268 l 1,12,-1
 521 201 l 1,13,-1
 437 201 l 1,3,-1
EndSplineSet
EndChar

StartChar: five
Encoding: 53 53 24
Width: 562
Flags: W
LayerCount: 2
Fore
SplineSet
517 216 m 1,0,1
 517 166 517 166 499 123.5 c 128,-1,2
 481 81 481 81 445.5 50 c 128,-1,3
 410 19 410 19 357.5 2 c 128,-1,4
 305 -15 305 -15 237 -15 c 0,5,6
 198 -15 198 -15 164 -4 c 128,-1,7
 130 7 130 7 104.5 24 c 128,-1,8
 79 41 79 41 64 61.5 c 128,-1,9
 49 82 49 82 49 101 c 0,10,11
 49 128 49 128 66.5 142 c 128,-1,12
 84 156 84 156 111 156 c 0,13,14
 119 156 119 156 126.5 154.5 c 128,-1,15
 134 153 134 153 136 153 c 1,16,-1
 174 62 l 1,17,18
 179 57 179 57 188.5 52 c 128,-1,19
 198 47 198 47 208.5 43.5 c 128,-1,20
 219 40 219 40 229.5 38 c 128,-1,21
 240 36 240 36 248 36 c 0,22,23
 287 36 287 36 317.5 50.5 c 128,-1,24
 348 65 348 65 368.5 88 c 128,-1,25
 389 111 389 111 399.5 139 c 128,-1,26
 410 167 410 167 410 193 c 0,27,28
 410 234 410 234 397 265 c 128,-1,29
 384 296 384 296 361.5 316.5 c 128,-1,30
 339 337 339 337 308 347 c 128,-1,31
 277 357 277 357 241 357 c 0,32,33
 217 357 217 357 189.5 352 c 128,-1,34
 162 347 162 347 139 341 c 0,35,36
 112 334 112 334 85 325 c 1,37,-1
 85 671 l 1,38,-1
 471 671 l 1,39,-1
 471 587 l 1,40,-1
 156 587 l 1,41,-1
 156 398 l 1,42,43
 156 398 156 398 167.5 402 c 128,-1,44
 179 406 179 406 198 410.5 c 128,-1,45
 217 415 217 415 240.5 419 c 128,-1,46
 264 423 264 423 288 423 c 0,47,48
 340 423 340 423 381.5 409.5 c 128,-1,49
 423 396 423 396 452 370 c 128,-1,50
 481 344 481 344 496.5 306 c 128,-1,51
 512 268 512 268 517 216 c 1,0,1
EndSplineSet
EndChar

StartChar: six
Encoding: 54 54 25
Width: 562
Flags: W
LayerCount: 2
Fore
SplineSet
420 215 m 0,0,1
 420 251 420 251 410.5 280 c 128,-1,2
 401 309 401 309 383 329 c 128,-1,3
 365 349 365 349 339 359 c 128,-1,4
 313 369 313 369 280 369 c 0,5,6
 264 369 264 369 246.5 365.5 c 128,-1,7
 229 362 229 362 211.5 355.5 c 128,-1,8
 194 349 194 349 177.5 340 c 128,-1,9
 161 331 161 331 147 320 c 1,10,11
 146 305 146 305 146 291.5 c 128,-1,12
 146 278 146 278 146 267 c 0,13,14
 146 216 146 216 153.5 174 c 128,-1,15
 161 132 161 132 177.5 101.5 c 128,-1,16
 194 71 194 71 219.5 54.5 c 128,-1,17
 245 38 245 38 281 38 c 256,18,19
 317 38 317 38 343.5 52 c 128,-1,20
 370 66 370 66 387 90 c 128,-1,21
 404 114 404 114 412.5 146.5 c 128,-1,22
 421 179 421 179 420 215 c 0,0,1
523 229 m 1,23,24
 523 175 523 175 504 130 c 128,-1,25
 485 85 485 85 452.5 53 c 128,-1,26
 420 21 420 21 376 3.5 c 128,-1,27
 332 -14 332 -14 282 -14 c 256,28,29
 232 -14 232 -14 188.5 2.5 c 128,-1,30
 145 19 145 19 113 55 c 128,-1,31
 81 91 81 91 62.5 148.5 c 128,-1,32
 44 206 44 206 44 288 c 0,33,34
 44 377 44 377 70.5 450.5 c 128,-1,35
 97 524 97 524 148 576.5 c 128,-1,36
 199 629 199 629 273 657.5 c 128,-1,37
 347 686 347 686 442 686 c 1,38,-1
 442 624 l 1,39,-1
 408 624 l 1,40,41
 361 625 361 625 318 608.5 c 128,-1,42
 275 592 275 592 241 559.5 c 128,-1,43
 207 527 207 527 184 480 c 128,-1,44
 161 433 161 433 154 374 c 1,45,46
 195 409 195 409 236.5 422.5 c 128,-1,47
 278 436 278 436 319 436 c 0,48,49
 366 436 366 436 404 420.5 c 128,-1,50
 442 405 442 405 469 377.5 c 128,-1,51
 496 350 496 350 510.5 312 c 128,-1,52
 525 274 525 274 523 229 c 1,23,24
EndSplineSet
EndChar

StartChar: seven
Encoding: 55 55 26
Width: 562
Flags: W
LayerCount: 2
Fore
SplineSet
192 17 m 1,0,-1
 192 -16 l 1,1,-1
 87 -16 l 1,2,-1
 417 586 l 1,3,-1
 109 586 l 1,4,-1
 93 496 l 1,5,-1
 43 496 l 1,6,-1
 43 671 l 1,7,-1
 522 671 l 1,8,-1
 522 616 l 1,9,-1
 192 17 l 1,0,-1
EndSplineSet
EndChar

StartChar: eight
Encoding: 56 56 27
Width: 562
Flags: W
LayerCount: 2
Fore
SplineSet
420 166 m 1,0,1
 420 197 420 197 407 218.5 c 128,-1,2
 394 240 394 240 369 257 c 128,-1,3
 344 274 344 274 307.5 289 c 128,-1,4
 271 304 271 304 224 323 c 1,5,6
 205 313 205 313 189 300.5 c 128,-1,7
 173 288 173 288 161 272 c 128,-1,8
 149 256 149 256 142 235.5 c 128,-1,9
 135 215 135 215 135 189 c 0,10,11
 135 157 135 157 144.5 130 c 128,-1,12
 154 103 154 103 172.5 83 c 128,-1,13
 191 63 191 63 218.5 52 c 128,-1,14
 246 41 246 41 282 41 c 0,15,16
 314 41 314 41 340 51 c 128,-1,17
 366 61 366 61 384 78.5 c 128,-1,18
 402 96 402 96 411.5 119 c 128,-1,19
 421 142 421 142 420 166 c 1,0,1
403 506 m 0,20,21
 403 536 403 536 393.5 560 c 128,-1,22
 384 584 384 584 367.5 600.5 c 128,-1,23
 351 617 351 617 329 625.5 c 128,-1,24
 307 634 307 634 283 634 c 0,25,26
 258 634 258 634 237 624.5 c 128,-1,27
 216 615 216 615 201 599.5 c 128,-1,28
 186 584 186 584 178 563.5 c 128,-1,29
 170 543 170 543 170 521 c 0,30,31
 170 495 170 495 181 474 c 128,-1,32
 192 453 192 453 212.5 435 c 128,-1,33
 233 417 233 417 263.5 402 c 128,-1,34
 294 387 294 387 332 373 c 1,35,36
 347 384 347 384 360 397.5 c 128,-1,37
 373 411 373 411 382.5 427.5 c 128,-1,38
 392 444 392 444 397.5 463.5 c 128,-1,39
 403 483 403 483 403 506 c 0,20,21
522 183 m 1,40,41
 522 141 522 141 504 105 c 128,-1,42
 486 69 486 69 454 43 c 128,-1,43
 422 17 422 17 378 2.5 c 128,-1,44
 334 -12 334 -12 283 -12 c 0,45,46
 228 -12 228 -12 184 2.5 c 128,-1,47
 140 17 140 17 109 43 c 128,-1,48
 78 69 78 69 61.5 104.5 c 128,-1,49
 45 140 45 140 45 182 c 0,50,51
 45 216 45 216 56.5 242 c 128,-1,52
 68 268 68 268 87.5 288 c 128,-1,53
 107 308 107 308 132.5 322.5 c 128,-1,54
 158 337 158 337 185 347 c 1,55,56
 165 355 165 355 144.5 368.5 c 128,-1,57
 124 382 124 382 107.5 401 c 128,-1,58
 91 420 91 420 81 444 c 128,-1,59
 71 468 71 468 71 497 c 0,60,61
 71 539 71 539 86 573.5 c 128,-1,62
 101 608 101 608 129 632.5 c 128,-1,63
 157 657 157 657 196.5 670 c 128,-1,64
 236 683 236 683 283 683 c 0,65,66
 328 683 328 683 367 670 c 128,-1,67
 406 657 406 657 434.5 634 c 128,-1,68
 463 611 463 611 479 580 c 128,-1,69
 495 549 495 549 495 513 c 0,70,71
 495 482 495 482 483.5 456.5 c 128,-1,72
 472 431 472 431 454 411 c 128,-1,73
 436 391 436 391 415 376.5 c 128,-1,74
 394 362 394 362 375 353 c 1,75,76
 398 345 398 345 424 332 c 128,-1,77
 450 319 450 319 471.5 298.5 c 128,-1,78
 493 278 493 278 507 250 c 128,-1,79
 521 222 521 222 522 183 c 1,40,41
EndSplineSet
EndChar

StartChar: nine
Encoding: 57 57 28
Width: 562
Flags: W
LayerCount: 2
Fore
SplineSet
418 403 m 0,0,1
 418 454 418 454 410.5 496 c 128,-1,2
 403 538 403 538 386.5 568.5 c 128,-1,3
 370 599 370 599 344.5 615.5 c 128,-1,4
 319 632 319 632 284 632 c 0,5,6
 248 632 248 632 221.5 618.5 c 128,-1,7
 195 605 195 605 178 581 c 128,-1,8
 161 557 161 557 152.5 524.5 c 128,-1,9
 144 492 144 492 144 455 c 0,10,11
 144 419 144 419 153.5 390 c 128,-1,12
 163 361 163 361 181 341 c 128,-1,13
 199 321 199 321 225 311 c 128,-1,14
 251 301 251 301 284 301 c 0,15,16
 300 301 300 301 317.5 304.5 c 128,-1,17
 335 308 335 308 352.5 314.5 c 128,-1,18
 370 321 370 321 386.5 330 c 128,-1,19
 403 339 403 339 417 350 c 1,20,21
 418 365 418 365 418 378.5 c 128,-1,22
 418 392 418 392 418 403 c 0,0,1
522 384 m 0,23,24
 522 295 522 295 495.5 221.5 c 128,-1,25
 469 148 469 148 417.5 95.5 c 128,-1,26
 366 43 366 43 292 14.5 c 128,-1,27
 218 -14 218 -14 123 -14 c 1,28,-1
 123 48 l 1,29,-1
 156 48 l 1,30,31
 203 47 203 47 246 63.5 c 128,-1,32
 289 80 289 80 323.5 112.5 c 128,-1,33
 358 145 358 145 381.5 192 c 128,-1,34
 405 239 405 239 412 298 c 1,35,36
 392 280 392 280 371.5 268.5 c 128,-1,37
 351 257 351 257 330.5 250 c 128,-1,38
 310 243 310 243 289.5 240 c 128,-1,39
 269 237 269 237 249 237 c 0,40,41
 202 237 202 237 164 252.5 c 128,-1,42
 126 268 126 268 99 295.5 c 128,-1,43
 72 323 72 323 57.5 360.5 c 128,-1,44
 43 398 43 398 43 442 c 0,45,46
 43 496 43 496 61.5 541 c 128,-1,47
 80 586 80 586 112.5 618 c 128,-1,48
 145 650 145 650 189 667.5 c 128,-1,49
 233 685 233 685 283 685 c 256,50,51
 333 685 333 685 376.5 668.5 c 128,-1,52
 420 652 420 652 452.5 616 c 128,-1,53
 485 580 485 580 503.5 522.5 c 128,-1,54
 522 465 522 465 522 384 c 0,23,24
EndSplineSet
EndChar

StartChar: colon
Encoding: 58 58 29
Width: 279
Flags: W
LayerCount: 2
Fore
SplineSet
195 55 m 0,0,1
 195 41 195 41 190 29 c 128,-1,2
 185 17 185 17 176 8 c 128,-1,3
 167 -1 167 -1 155 -6 c 128,-1,4
 143 -11 143 -11 130 -11 c 0,5,6
 116 -11 116 -11 104.5 -6 c 128,-1,7
 93 -1 93 -1 84 8 c 128,-1,8
 75 17 75 17 70 29 c 128,-1,9
 65 41 65 41 65 55 c 0,10,11
 65 68 65 68 70 80 c 128,-1,12
 75 92 75 92 84 101 c 128,-1,13
 93 110 93 110 104.5 115 c 128,-1,14
 116 120 116 120 130 120 c 0,15,16
 143 120 143 120 155 115 c 128,-1,17
 167 110 167 110 176 101 c 128,-1,18
 185 92 185 92 190 80 c 128,-1,19
 195 68 195 68 195 55 c 0,0,1
195 425 m 256,20,21
 195 412 195 412 190 400 c 128,-1,22
 185 388 185 388 176 379 c 128,-1,23
 167 370 167 370 155 365 c 128,-1,24
 143 360 143 360 130 360 c 0,25,26
 116 360 116 360 104.5 365 c 128,-1,27
 93 370 93 370 84 379 c 128,-1,28
 75 388 75 388 70 400 c 128,-1,29
 65 412 65 412 65 425 c 256,30,31
 65 438 65 438 70 450 c 128,-1,32
 75 462 75 462 84 471 c 128,-1,33
 93 480 93 480 104.5 485 c 128,-1,34
 116 490 116 490 130 490 c 0,35,36
 143 490 143 490 155 485 c 128,-1,37
 167 480 167 480 176 471 c 128,-1,38
 185 462 185 462 190 450 c 128,-1,39
 195 438 195 438 195 425 c 256,20,21
EndSplineSet
EndChar

StartChar: semicolon
Encoding: 59 59 30
Width: 279
Flags: W
LayerCount: 2
Fore
SplineSet
206 9 m 0,0,1
 206 -28 206 -28 192 -59 c 128,-1,2
 178 -90 178 -90 154 -113.5 c 128,-1,3
 130 -137 130 -137 99 -151 c 128,-1,4
 68 -165 68 -165 34 -167 c 1,5,-1
 34 -131 l 1,6,7
 60 -126 60 -126 80.5 -116 c 128,-1,8
 101 -106 101 -106 114.5 -90 c 128,-1,9
 128 -74 128 -74 135 -50.5 c 128,-1,10
 142 -27 142 -27 142 7 c 1,11,-1
 80 7 l 1,12,13
 80 7 80 7 77.5 10.5 c 128,-1,14
 75 14 75 14 72 19.5 c 128,-1,15
 69 25 69 25 67 33 c 128,-1,16
 65 41 65 41 65 51 c 0,17,18
 65 64 65 64 69.5 76 c 128,-1,19
 74 88 74 88 82 97.5 c 128,-1,20
 90 107 90 107 101 112.5 c 128,-1,21
 112 118 112 118 125 118 c 0,22,23
 146 118 146 118 161.5 109.5 c 128,-1,24
 177 101 177 101 187 86.5 c 128,-1,25
 197 72 197 72 201.5 51.5 c 128,-1,26
 206 31 206 31 206 9 c 0,0,1
195 424 m 256,27,28
 195 411 195 411 190 399 c 128,-1,29
 185 387 185 387 176 378 c 128,-1,30
 167 369 167 369 155 364 c 128,-1,31
 143 359 143 359 130 359 c 0,32,33
 116 359 116 359 104.5 364 c 128,-1,34
 93 369 93 369 84 378 c 128,-1,35
 75 387 75 387 70 399 c 128,-1,36
 65 411 65 411 65 424 c 256,37,38
 65 437 65 437 70 449 c 128,-1,39
 75 461 75 461 84 470 c 128,-1,40
 93 479 93 479 105 484 c 128,-1,41
 117 489 117 489 131 489 c 0,42,43
 144 489 144 489 156 484 c 128,-1,44
 168 479 168 479 176.5 470 c 128,-1,45
 185 461 185 461 190 449 c 128,-1,46
 195 437 195 437 195 424 c 256,27,28
EndSplineSet
EndChar

StartChar: less
Encoding: 60 60 31
Width: 1000
Flags: W
LayerCount: 2
Fore
SplineSet
200 269 m 1,0,-1
 200 331 l 1,1,-1
 799 560 l 1,2,-1
 799 498 l 1,3,-1
 264 299 l 1,4,-1
 799 101 l 1,5,-1
 799 39 l 1,6,-1
 200 269 l 1,0,-1
EndSplineSet
EndChar

StartChar: equal
Encoding: 61 61 32
Width: 1000
Flags: W
LayerCount: 2
Fore
SplineSet
200 178 m 1,0,-1
 200 240 l 1,1,-1
 799 240 l 1,2,-1
 799 178 l 1,3,-1
 200 178 l 1,0,-1
200 359 m 1,4,-1
 200 421 l 1,5,-1
 799 421 l 1,6,-1
 799 359 l 1,7,-1
 200 359 l 1,4,-1
EndSplineSet
EndChar

StartChar: greater
Encoding: 62 62 33
Width: 1000
Flags: W
LayerCount: 2
Fore
SplineSet
200 39 m 1,0,-1
 200 101 l 1,1,-1
 735 299 l 1,2,-1
 200 498 l 1,3,-1
 200 560 l 1,4,-1
 799 331 l 1,5,-1
 799 269 l 1,6,-1
 200 39 l 1,0,-1
EndSplineSet
EndChar

StartChar: question
Encoding: 63 63 34
Width: 485
Flags: W
LayerCount: 2
Fore
SplineSet
416 507 m 1,0,1
 416 476 416 476 407.5 450 c 128,-1,2
 399 424 399 424 384.5 403 c 128,-1,3
 370 382 370 382 351 365.5 c 128,-1,4
 332 349 332 349 311.5 336 c 128,-1,5
 291 323 291 323 269.5 312.5 c 128,-1,6
 248 302 248 302 229 294 c 1,7,-1
 229 184 l 1,8,-1
 173 184 l 1,9,-1
 173 329 l 1,10,11
 196 336 196 336 221.5 350 c 128,-1,12
 247 364 247 364 268 385 c 128,-1,13
 289 406 289 406 302.5 435 c 128,-1,14
 316 464 316 464 316 501 c 0,15,16
 316 570 316 570 279 604 c 128,-1,17
 242 638 242 638 174 638 c 1,18,-1
 133 536 l 1,19,20
 129 536 129 536 126 536 c 0,21,22
 124 536 124 536 122 536 c 2,23,-1
 119 536 l 2,24,25
 106 536 106 536 94.5 538.5 c 128,-1,26
 83 541 83 541 74.5 547.5 c 128,-1,27
 66 554 66 554 61 564 c 128,-1,28
 56 574 56 574 56 588 c 0,29,30
 56 605 56 605 65.5 622.5 c 128,-1,31
 75 640 75 640 94.5 653.5 c 128,-1,32
 114 667 114 667 143.5 675.5 c 128,-1,33
 173 684 173 684 214 684 c 0,34,35
 258 684 258 684 296 671.5 c 128,-1,36
 334 659 334 659 361.5 636 c 128,-1,37
 389 613 389 613 404.5 580 c 128,-1,38
 420 547 420 547 416 507 c 1,0,1
266 47 m 0,39,40
 266 35 266 35 261.5 24.5 c 128,-1,41
 257 14 257 14 248.5 6 c 128,-1,42
 240 -2 240 -2 229 -6.5 c 128,-1,43
 218 -11 218 -11 206 -11 c 256,44,45
 194 -11 194 -11 183 -6.5 c 128,-1,46
 172 -2 172 -2 164 6.5 c 128,-1,47
 156 15 156 15 151.5 26 c 128,-1,48
 147 37 147 37 147 49 c 256,49,50
 147 61 147 61 151.5 72 c 128,-1,51
 156 83 156 83 164 91 c 128,-1,52
 172 99 172 99 183 103.5 c 128,-1,53
 194 108 194 108 206 108 c 0,54,55
 219 108 219 108 230 103.5 c 128,-1,56
 241 99 241 99 249 90.5 c 128,-1,57
 257 82 257 82 261.5 71 c 128,-1,58
 266 60 266 60 266 47 c 0,39,40
EndSplineSet
EndChar

StartChar: at
Encoding: 64 64 35
Width: 936
Flags: W
LayerCount: 2
Fore
SplineSet
583 393 m 2,0,1
 584 399 584 399 580.5 408.5 c 128,-1,2
 577 418 577 418 569 427 c 128,-1,3
 561 436 561 436 550 442.5 c 128,-1,4
 539 449 539 449 526 449 c 0,5,6
 489 449 489 449 459.5 432 c 128,-1,7
 430 415 430 415 409.5 385 c 128,-1,8
 389 355 389 355 378 315 c 128,-1,9
 367 275 367 275 367 230 c 0,10,11
 367 176 367 176 387 149.5 c 128,-1,12
 407 123 407 123 444 123 c 0,13,14
 460 123 460 123 475 129.5 c 128,-1,15
 490 136 490 136 502.5 145.5 c 128,-1,16
 515 155 515 155 525.5 166 c 128,-1,17
 536 177 536 177 543 186 c 1,18,-1
 583 393 l 2,0,1
862 373 m 1,19,20
 862 323 862 323 851.5 280 c 128,-1,21
 841 237 841 237 822.5 202 c 128,-1,22
 804 167 804 167 779.5 140 c 128,-1,23
 755 113 755 113 728 95 c 128,-1,24
 701 77 701 77 673.5 68 c 128,-1,25
 646 59 646 59 622 59 c 0,26,27
 581 59 581 59 563 79.5 c 128,-1,28
 545 100 545 100 545 141 c 1,29,30
 506 102 506 102 471 81 c 128,-1,31
 436 60 436 60 401 60 c 0,32,33
 374 60 374 60 351.5 71 c 128,-1,34
 329 82 329 82 312.5 103 c 128,-1,35
 296 124 296 124 287 154 c 128,-1,36
 278 184 278 184 278 221 c 0,37,38
 278 278 278 278 299 327.5 c 128,-1,39
 320 377 320 377 354.5 413.5 c 128,-1,40
 389 450 389 450 433.5 470.5 c 128,-1,41
 478 491 478 491 525 491 c 0,42,43
 535 491 535 491 547.5 489.5 c 128,-1,44
 560 488 560 488 572.5 484.5 c 128,-1,45
 585 481 585 481 597 476 c 128,-1,46
 609 471 609 471 620 466 c 1,47,-1
 638 488 l 1,48,-1
 693 488 l 1,49,50
 693 486 693 486 690 472 c 128,-1,51
 687 458 687 458 682.5 437 c 128,-1,52
 678 416 678 416 672 389.5 c 128,-1,53
 666 363 666 363 661 337 c 0,54,55
 647 274 647 274 630 195 c 0,56,57
 626 178 626 178 626 164 c 128,-1,58
 626 150 626 150 630 140 c 128,-1,59
 634 130 634 130 643 124.5 c 128,-1,60
 652 119 652 119 666 119 c 0,61,62
 687 119 687 119 713.5 137 c 128,-1,63
 740 155 740 155 762.5 188.5 c 128,-1,64
 785 222 785 222 800.5 270 c 128,-1,65
 816 318 816 318 816 377 c 0,66,67
 816 447 816 447 792.5 498.5 c 128,-1,68
 769 550 769 550 730 583.5 c 128,-1,69
 691 617 691 617 641 633.5 c 128,-1,70
 591 650 591 650 539 650 c 0,71,72
 482 650 482 650 431 637 c 128,-1,73
 380 624 380 624 337 599.5 c 128,-1,74
 294 575 294 575 259.5 540 c 128,-1,75
 225 505 225 505 201 462 c 128,-1,76
 177 419 177 419 164 368.5 c 128,-1,77
 151 318 151 318 151 263 c 0,78,79
 151 187 151 187 174.5 121.5 c 128,-1,80
 198 56 198 56 242.5 8 c 128,-1,81
 287 -40 287 -40 351.5 -67.5 c 128,-1,82
 416 -95 416 -95 499 -95 c 0,83,84
 542 -95 542 -95 580 -88.5 c 128,-1,85
 618 -82 618 -82 650.5 -71.5 c 128,-1,86
 683 -61 683 -61 710.5 -48 c 128,-1,87
 738 -35 738 -35 760 -23 c 1,88,-1
 774 -59 l 1,89,90
 741 -77 741 -77 706 -92.5 c 128,-1,91
 671 -108 671 -108 634 -119.5 c 128,-1,92
 597 -131 597 -131 557.5 -138 c 128,-1,93
 518 -145 518 -145 475 -145 c 0,94,95
 422 -145 422 -145 372 -133 c 128,-1,96
 322 -121 322 -121 278 -98 c 128,-1,97
 234 -75 234 -75 197.5 -41.5 c 128,-1,98
 161 -8 161 -8 135 35 c 128,-1,99
 109 78 109 78 94.5 130.5 c 128,-1,100
 80 183 80 183 80 243 c 0,101,102
 80 317 80 317 97.5 379 c 128,-1,103
 115 441 115 441 146 491 c 128,-1,104
 177 541 177 541 219.5 579 c 128,-1,105
 262 617 262 617 311.5 642 c 128,-1,106
 361 667 361 667 415.5 679.5 c 128,-1,107
 470 692 470 692 525 692 c 0,108,109
 599 692 599 692 661.5 671.5 c 128,-1,110
 724 651 724 651 769 611 c 128,-1,111
 814 571 814 571 839.5 512 c 128,-1,112
 865 453 865 453 862 373 c 1,19,20
EndSplineSet
EndChar

StartChar: A
Encoding: 65 65 36
Width: 673
Flags: W
LayerCount: 2
Fore
SplineSet
313 558 m 1,0,-1
 216 296 l 1,1,-1
 411 296 l 1,2,-1
 313 558 l 1,0,-1
430 1 m 1,3,-1
 430 43 l 1,4,-1
 487 47 l 2,5,6
 491 47 491 47 494 53.5 c 128,-1,7
 497 60 497 60 496 63 c 2,8,-1
 428 246 l 1,9,-1
 198 246 l 1,10,-1
 132 66 l 2,11,12
 132 64 132 64 132.5 61 c 128,-1,13
 133 58 133 58 135 55 c 128,-1,14
 137 52 137 52 139.5 50.5 c 128,-1,15
 142 49 142 49 144 49 c 2,16,-1
 203 45 l 1,17,-1
 203 3 l 1,18,-1
 2 3 l 1,19,-1
 2 45 l 1,20,-1
 60 57 l 1,21,-1
 292 688 l 1,22,-1
 367 688 l 1,23,-1
 598 71 l 2,24,25
 601 61 601 61 604 58 c 128,-1,26
 607 55 607 55 618 54 c 2,27,-1
 662 47 l 1,28,-1
 662 5 l 1,29,-1
 430 1 l 1,3,-1
EndSplineSet
EndChar

StartChar: B
Encoding: 66 66 37
Width: 604
Flags: W
LayerCount: 2
Fore
SplineSet
565 198 m 0,0,1
 565 158 565 158 554 127.5 c 128,-1,2
 543 97 543 97 523.5 75.5 c 128,-1,3
 504 54 504 54 478.5 40 c 128,-1,4
 453 26 453 26 425 17.5 c 128,-1,5
 397 9 397 9 368 6 c 128,-1,6
 339 3 339 3 313 3 c 2,7,-1
 34 3 l 1,8,-1
 34 45 l 1,9,-1
 86 48 l 2,10,11
 96 48 96 48 101 54.5 c 128,-1,12
 106 61 106 61 106 68 c 2,13,-1
 106 601 l 2,14,15
 106 608 106 608 101 614.5 c 128,-1,16
 96 621 96 621 86 621 c 2,17,-1
 34 624 l 1,18,-1
 34 666 l 1,19,-1
 301 666 l 2,20,21
 360 666 360 666 402.5 655.5 c 128,-1,22
 445 645 445 645 472 624.5 c 128,-1,23
 499 604 499 604 511.5 574.5 c 128,-1,24
 524 545 524 545 524 508 c 256,25,26
 524 471 524 471 510 445 c 128,-1,27
 496 419 496 419 475 401 c 128,-1,28
 454 383 454 383 429 372.5 c 128,-1,29
 404 362 404 362 383 357 c 1,30,31
 416 357 416 357 448.5 349 c 128,-1,32
 481 341 481 341 507 322.5 c 128,-1,33
 533 304 533 304 549 274 c 128,-1,34
 565 244 565 244 565 198 c 0,0,1
457 192 m 1,35,36
 457 260 457 260 416.5 291.5 c 128,-1,37
 376 323 376 323 296 323 c 0,38,39
 284 323 284 323 269.5 322.5 c 128,-1,40
 255 322 255 322 242 321.5 c 128,-1,41
 229 321 229 321 219.5 320.5 c 128,-1,42
 210 320 210 320 209 320 c 1,43,-1
 209 56 l 1,44,45
 221 56 221 56 232 56 c 0,46,47
 241 56 241 56 251 56 c 128,-1,48
 261 56 261 56 268 56 c 0,49,50
 320 56 320 56 355.5 64.5 c 128,-1,51
 391 73 391 73 413 90.5 c 128,-1,52
 435 108 435 108 444.5 134 c 128,-1,53
 454 160 454 160 457 192 c 1,35,36
414 508 m 1,54,55
 414 567 414 567 376 598 c 128,-1,56
 338 629 338 629 261 629 c 0,57,58
 254 629 254 629 245 629 c 128,-1,59
 236 629 236 629 228 629 c 128,-1,60
 220 629 220 629 214 629 c 128,-1,61
 208 629 208 629 206 629 c 1,62,-1
 206 377 l 1,63,64
 212 377 212 377 218 377 c 0,65,66
 223 377 223 377 228 377 c 2,67,-1
 238 377 l 2,68,69
 286 377 286 377 319 386 c 128,-1,70
 352 395 352 395 372.5 412 c 128,-1,71
 393 429 393 429 402 454 c 128,-1,72
 411 479 411 479 414 508 c 1,54,55
EndSplineSet
EndChar

StartChar: C
Encoding: 67 67 38
Width: 626
Flags: W
LayerCount: 2
Fore
SplineSet
587 22 m 2,0,1
 586 22 586 22 569 16 c 128,-1,2
 552 10 552 10 525 3 c 128,-1,3
 498 -4 498 -4 463 -9.5 c 128,-1,4
 428 -15 428 -15 390 -15 c 0,5,6
 334 -15 334 -15 286.5 -2 c 128,-1,7
 239 11 239 11 200.5 34.5 c 128,-1,8
 162 58 162 58 132.5 91 c 128,-1,9
 103 124 103 124 83 163 c 128,-1,10
 63 202 63 202 53 245.5 c 128,-1,11
 43 289 43 289 43 334 c 0,12,13
 43 411 43 411 68 475 c 128,-1,14
 93 539 93 539 138.5 585 c 128,-1,15
 184 631 184 631 248 656.5 c 128,-1,16
 312 682 312 682 390 682 c 0,17,18
 414 682 414 682 436.5 679.5 c 128,-1,19
 459 677 459 677 482 672.5 c 128,-1,20
 505 668 505 668 530.5 661 c 128,-1,21
 556 654 556 654 586 645 c 1,22,-1
 586 489 l 1,23,-1
 526 489 l 1,24,-1
 512 579 l 2,25,26
 512 585 512 585 506.5 591.5 c 128,-1,27
 501 598 501 598 497 600 c 0,28,29
 492 602 492 602 482.5 606 c 128,-1,30
 473 610 473 610 460 614 c 128,-1,31
 447 618 447 618 431 621 c 128,-1,32
 415 624 415 624 397 624 c 0,33,34
 346 624 346 624 302.5 605 c 128,-1,35
 259 586 259 586 227 549 c 128,-1,36
 195 512 195 512 177 457.5 c 128,-1,37
 159 403 159 403 159 332 c 0,38,39
 159 263 159 263 176 208 c 128,-1,40
 193 153 193 153 225.5 114.5 c 128,-1,41
 258 76 258 76 304.5 56 c 128,-1,42
 351 36 351 36 410 36 c 0,43,44
 427 36 427 36 441 38 c 128,-1,45
 455 40 455 40 465.5 43 c 128,-1,46
 476 46 476 46 481.5 48.5 c 128,-1,47
 487 51 487 51 487 51 c 1,48,49
 494 53 494 53 498.5 58 c 128,-1,50
 503 63 503 63 504 69 c 2,51,-1
 526 177 l 1,52,-1
 584 177 l 1,53,-1
 587 22 l 2,0,1
EndSplineSet
EndChar

StartChar: D
Encoding: 68 68 39
Width: 695
Flags: W
LayerCount: 2
Fore
SplineSet
543 334 m 0,0,1
 543 412 543 412 525 466.5 c 128,-1,2
 507 521 507 521 473.5 555 c 128,-1,3
 440 589 440 589 392 604 c 128,-1,4
 344 619 344 619 285 619 c 2,5,-1
 209 619 l 1,6,-1
 209 44 l 1,7,-1
 290 44 l 2,8,9
 347 44 347 44 394 59.5 c 128,-1,10
 441 75 441 75 474 109 c 128,-1,11
 507 143 507 143 525 197 c 128,-1,12
 543 251 543 251 543 334 c 0,0,1
656 330 m 0,13,14
 656 287 656 287 648 245.5 c 128,-1,15
 640 204 640 204 622.5 166.5 c 128,-1,16
 605 129 605 129 577.5 98 c 128,-1,17
 550 67 550 67 511.5 44.5 c 128,-1,18
 473 22 473 22 423 9.5 c 128,-1,19
 373 -3 373 -3 311 -3 c 2,20,-1
 34 -3 l 1,21,-1
 34 39 l 1,22,-1
 86 42 l 2,23,24
 96 42 96 42 101.5 48.5 c 128,-1,25
 107 55 107 55 107 62 c 2,26,-1
 107 595 l 2,27,28
 107 602 107 602 101.5 608.5 c 128,-1,29
 96 615 96 615 86 615 c 2,30,-1
 34 618 l 1,31,-1
 34 660 l 1,32,-1
 291 660 l 2,33,34
 369 660 369 660 436 640.5 c 128,-1,35
 503 621 503 621 552 580 c 128,-1,36
 601 539 601 539 628.5 476.5 c 128,-1,37
 656 414 656 414 656 330 c 0,13,14
EndSplineSet
EndChar

StartChar: E
Encoding: 69 69 40
Width: 583
Flags: W
LayerCount: 2
Fore
SplineSet
32 0 m 1,0,-1
 32 42 l 1,1,-1
 83 45 l 2,2,3
 93 45 93 45 98.5 51.5 c 128,-1,4
 104 58 104 58 104 65 c 2,5,-1
 104 598 l 2,6,7
 104 605 104 605 98.5 611.5 c 128,-1,8
 93 618 93 618 83 618 c 2,9,-1
 32 621 l 1,10,-1
 32 663 l 1,11,-1
 517 663 l 1,12,-1
 517 515 l 1,13,-1
 457 515 l 1,14,-1
 442 597 l 1,15,16
 442 604 442 604 437 609.5 c 128,-1,17
 432 615 432 615 426 615 c 2,18,-1
 210 615 l 1,19,-1
 210 366 l 1,20,-1
 359 366 l 2,21,22
 365 366 365 366 370.5 371.5 c 128,-1,23
 376 377 376 377 376 382 c 2,24,-1
 386 450 l 1,25,-1
 436 450 l 1,26,-1
 436 227 l 1,27,-1
 386 227 l 1,28,-1
 376 296 l 2,29,30
 376 301 376 301 370.5 307 c 128,-1,31
 365 313 365 313 359 313 c 2,32,-1
 210 313 l 1,33,-1
 210 38 l 1,34,-1
 462 38 l 2,35,36
 468 38 468 38 473 44.5 c 128,-1,37
 478 51 478 51 478 56 c 2,38,-1
 496 155 l 1,39,-1
 549 155 l 1,40,-1
 549 -11 l 1,41,-1
 32 0 l 1,0,-1
EndSplineSet
EndChar

StartChar: F
Encoding: 70 70 41
Width: 541
Flags: W
LayerCount: 2
Fore
SplineSet
452 512 m 1,0,-1
 438 603 l 2,1,2
 437 610 437 610 433 615 c 128,-1,3
 429 620 429 620 423 620 c 2,4,-1
 211 620 l 1,5,-1
 211 360 l 1,6,-1
 363 360 l 2,7,8
 369 360 369 360 374 366 c 128,-1,9
 379 372 379 372 379 377 c 2,10,-1
 388 447 l 1,11,-1
 437 447 l 1,12,-1
 437 222 l 1,13,-1
 388 222 l 1,14,-1
 379 291 l 2,15,16
 379 296 379 296 374 302 c 128,-1,17
 369 308 369 308 363 308 c 2,18,-1
 211 308 l 1,19,-1
 211 64 l 2,20,21
 211 57 211 57 216 50.5 c 128,-1,22
 221 44 221 44 231 44 c 2,23,-1
 297 41 l 1,24,-1
 297 -1 l 1,25,-1
 35 -1 l 1,26,-1
 35 41 l 1,27,-1
 87 44 l 2,28,29
 97 44 97 44 102 50.5 c 128,-1,30
 107 57 107 57 107 64 c 2,31,-1
 107 597 l 2,32,33
 107 604 107 604 102 610.5 c 128,-1,34
 97 617 97 617 87 617 c 2,35,-1
 26 620 l 1,36,-1
 26 662 l 1,37,-1
 512 662 l 1,38,-1
 512 504 l 1,39,-1
 452 512 l 1,0,-1
EndSplineSet
EndChar

StartChar: G
Encoding: 71 71 42
Width: 694
Flags: W
LayerCount: 2
Fore
SplineSet
619 275 m 2,0,1
 609 275 609 275 604 269 c 128,-1,2
 599 263 599 263 599 256 c 2,3,-1
 599 26 l 1,4,5
 569 15 569 15 535 7 c 0,6,7
 506 0 506 0 468.5 -6 c 128,-1,8
 431 -12 431 -12 391 -12 c 0,9,10
 336 -12 336 -12 288.5 1 c 128,-1,11
 241 14 241 14 202.5 37.5 c 128,-1,12
 164 61 164 61 134.5 93.5 c 128,-1,13
 105 126 105 126 85 165 c 128,-1,14
 65 204 65 204 55 248 c 128,-1,15
 45 292 45 292 45 338 c 0,16,17
 45 416 45 416 69.5 480.5 c 128,-1,18
 94 545 94 545 140.5 590.5 c 128,-1,19
 187 636 187 636 254 661 c 128,-1,20
 321 686 321 686 404 686 c 0,21,22
 432 686 432 686 457.5 683 c 128,-1,23
 483 680 483 680 506.5 675.5 c 128,-1,24
 530 671 530 671 552.5 665 c 128,-1,25
 575 659 575 659 597 654 c 1,26,-1
 597 493 l 1,27,-1
 537 493 l 1,28,-1
 521 582 l 2,29,30
 520 590 520 590 514.5 596 c 128,-1,31
 509 602 509 602 503 604 c 0,32,33
 496 606 496 606 486 610 c 128,-1,34
 476 614 476 614 463 618 c 128,-1,35
 450 622 450 622 434.5 624.5 c 128,-1,36
 419 627 419 627 402 627 c 0,37,38
 348 627 348 627 303.5 608 c 128,-1,39
 259 589 259 589 227 552.5 c 128,-1,40
 195 516 195 516 177.5 462.5 c 128,-1,41
 160 409 160 409 160 340 c 0,42,43
 160 269 160 269 178 213 c 128,-1,44
 196 157 196 157 229 118.5 c 128,-1,45
 262 80 262 80 309 60 c 128,-1,46
 356 40 356 40 414 40 c 0,47,48
 430 40 430 40 445 42 c 128,-1,49
 460 44 460 44 471.5 46.5 c 128,-1,50
 483 49 483 49 490.5 51 c 128,-1,51
 498 53 498 53 499 53 c 1,52,-1
 499 252 l 2,53,54
 499 259 499 259 494 265 c 128,-1,55
 489 271 489 271 479 271 c 2,56,-1
 413 275 l 1,57,-1
 413 318 l 1,58,-1
 673 318 l 1,59,-1
 673 275 l 1,60,-1
 619 275 l 2,0,1
EndSplineSet
EndChar

StartChar: H
Encoding: 72 72 43
Width: 743
Flags: W
LayerCount: 2
Fore
SplineSet
458 0 m 1,0,-1
 458 42 l 1,1,-1
 515 45 l 2,2,3
 525 45 525 45 530 51.5 c 128,-1,4
 535 58 535 58 535 65 c 2,5,-1
 535 323 l 1,6,-1
 206 323 l 1,7,-1
 206 65 l 2,8,9
 206 58 206 58 211 51.5 c 128,-1,10
 216 45 216 45 226 45 c 2,11,-1
 283 42 l 1,12,-1
 283 0 l 1,13,-1
 31 0 l 1,14,-1
 31 42 l 1,15,-1
 82 45 l 2,16,17
 92 45 92 45 97.5 51.5 c 128,-1,18
 103 58 103 58 103 65 c 2,19,-1
 103 598 l 2,20,21
 103 605 103 605 97.5 611 c 128,-1,22
 92 617 92 617 82 617 c 2,23,-1
 31 620 l 1,24,-1
 31 663 l 1,25,-1
 283 663 l 1,26,-1
 283 620 l 1,27,-1
 226 617 l 2,28,29
 216 617 216 617 211 611 c 128,-1,30
 206 605 206 605 206 598 c 2,31,-1
 206 373 l 1,32,-1
 535 373 l 1,33,-1
 535 598 l 2,34,35
 535 605 535 605 530 611 c 128,-1,36
 525 617 525 617 515 617 c 2,37,-1
 458 620 l 1,38,-1
 458 663 l 1,39,-1
 710 663 l 1,40,-1
 710 620 l 1,41,-1
 659 617 l 2,42,43
 649 617 649 617 643.5 611 c 128,-1,44
 638 605 638 605 638 598 c 2,45,-1
 638 65 l 2,46,47
 638 58 638 58 643.5 51.5 c 128,-1,48
 649 45 649 45 659 45 c 2,49,-1
 710 42 l 1,50,-1
 710 0 l 1,51,-1
 458 0 l 1,0,-1
EndSplineSet
EndChar

StartChar: I
Encoding: 73 73 44
Width: 330
Flags: W
LayerCount: 2
Fore
SplineSet
33 0 m 1,0,-1
 33 42 l 1,1,-1
 92 45 l 2,2,3
 102 45 102 45 107 51.5 c 128,-1,4
 112 58 112 58 112 65 c 2,5,-1
 112 598 l 2,6,7
 112 605 112 605 107 611 c 128,-1,8
 102 617 102 617 92 617 c 2,9,-1
 33 620 l 1,10,-1
 33 663 l 1,11,-1
 296 663 l 1,12,-1
 296 620 l 1,13,-1
 235 617 l 2,14,15
 225 617 225 617 220 611 c 128,-1,16
 215 605 215 605 215 598 c 2,17,-1
 215 65 l 2,18,19
 215 58 215 58 220 51.5 c 128,-1,20
 225 45 225 45 235 45 c 2,21,-1
 296 42 l 1,22,-1
 296 0 l 1,23,-1
 33 0 l 1,0,-1
EndSplineSet
EndChar

StartChar: J
Encoding: 74 74 45
Width: 484
Flags: W
LayerCount: 2
Fore
SplineSet
400 624 m 2,0,1
 390 624 390 624 385 617.5 c 128,-1,2
 380 611 380 611 380 604 c 2,3,-1
 380 255 l 2,4,5
 380 193 380 193 368.5 143.5 c 128,-1,6
 357 94 357 94 331.5 59.5 c 128,-1,7
 306 25 306 25 264.5 6.5 c 128,-1,8
 223 -12 223 -12 163 -12 c 0,9,10
 139 -12 139 -12 116 -8 c 128,-1,11
 93 -4 93 -4 74.5 1 c 128,-1,12
 56 6 56 6 44 10 c 128,-1,13
 32 14 32 14 31 14 c 1,14,-1
 31 184 l 1,15,-1
 91 184 l 1,16,-1
 112 62 l 2,17,18
 113 55 113 55 117.5 50 c 128,-1,19
 122 45 122 45 128 42.5 c 128,-1,20
 134 40 134 40 141.5 39 c 128,-1,21
 149 38 149 38 156 38 c 0,22,23
 190 38 190 38 213.5 51 c 128,-1,24
 237 64 237 64 252 90 c 128,-1,25
 267 116 267 116 273.5 155.5 c 128,-1,26
 280 195 280 195 280 247 c 2,27,-1
 280 602 l 2,28,29
 280 609 280 609 275 615.5 c 128,-1,30
 270 622 270 622 260 622 c 2,31,-1
 198 625 l 1,32,-1
 198 667 l 1,33,-1
 462 667 l 1,34,-1
 462 625 l 1,35,-1
 400 624 l 2,0,1
EndSplineSet
EndChar

StartChar: K
Encoding: 75 75 46
Width: 638
Flags: W
LayerCount: 2
Fore
SplineSet
462 0 m 1,0,-1
 462 30 l 1,1,-1
 276 297 l 1,2,-1
 207 297 l 1,3,-1
 207 68 l 2,4,5
 207 61 207 61 212.5 54.5 c 128,-1,6
 218 48 218 48 228 48 c 2,7,-1
 285 45 l 1,8,-1
 285 3 l 1,9,-1
 32 3 l 1,10,-1
 32 45 l 1,11,-1
 84 48 l 2,12,13
 94 48 94 48 99 54.5 c 128,-1,14
 104 61 104 61 104 68 c 2,15,-1
 104 601 l 2,16,17
 104 608 104 608 99 614.5 c 128,-1,18
 94 621 94 621 84 621 c 2,19,-1
 32 624 l 1,20,-1
 32 666 l 1,21,-1
 285 666 l 1,22,-1
 285 624 l 1,23,-1
 228 621 l 2,24,25
 218 621 218 621 212.5 614.5 c 128,-1,26
 207 608 207 608 207 601 c 2,27,-1
 207 339 l 1,28,-1
 243 339 l 1,29,-1
 460 605 l 2,30,31
 463 609 463 609 460 614.5 c 128,-1,32
 457 620 457 620 453 620 c 2,33,-1
 402 624 l 1,34,-1
 402 666 l 1,35,-1
 613 666 l 1,36,-1
 613 624 l 1,37,38
 596 623 596 623 582 622 c 0,39,40
 570 621 570 621 559.5 620 c 128,-1,41
 549 619 549 619 547 619 c 1,42,-1
 343 375 l 1,43,-1
 567 47 l 1,44,-1
 639 43 l 1,45,-1
 639 1 l 1,46,-1
 462 0 l 1,0,-1
EndSplineSet
EndChar

StartChar: L
Encoding: 76 76 47
Width: 530
Flags: W
LayerCount: 2
Fore
SplineSet
26 0 m 1,0,-1
 26 42 l 1,1,-1
 84 45 l 2,2,3
 94 45 94 45 99 51.5 c 128,-1,4
 104 58 104 58 104 65 c 2,5,-1
 104 598 l 2,6,7
 104 605 104 605 99 611.5 c 128,-1,8
 94 618 94 618 84 618 c 2,9,-1
 26 621 l 1,10,-1
 26 663 l 1,11,-1
 281 663 l 1,12,-1
 281 621 l 1,13,-1
 228 618 l 2,14,15
 218 618 218 618 212.5 611.5 c 128,-1,16
 207 605 207 605 207 598 c 2,17,-1
 207 45 l 1,18,-1
 416 45 l 2,19,20
 422 45 422 45 429 50 c 128,-1,21
 436 55 436 55 436 61 c 2,22,-1
 452 181 l 1,23,-1
 510 181 l 1,24,-1
 510 -5 l 1,25,-1
 26 0 l 1,0,-1
EndSplineSet
EndChar

StartChar: M
Encoding: 77 77 48
Width: 875
Flags: W
LayerCount: 2
Fore
SplineSet
592 0 m 1,0,-1
 592 42 l 1,1,-1
 645 45 l 2,2,3
 655 45 655 45 660.5 51.5 c 128,-1,4
 666 58 666 58 666 65 c 2,5,-1
 666 616 l 1,6,-1
 437 -4 l 1,7,-1
 388 -4 l 1,8,-1
 166 606 l 1,9,-1
 166 65 l 2,10,11
 166 58 166 58 171.5 51.5 c 128,-1,12
 177 45 177 45 187 45 c 2,13,-1
 244 42 l 1,14,-1
 244 0 l 1,15,-1
 28 0 l 1,16,-1
 28 42 l 1,17,-1
 85 45 l 2,18,19
 95 45 95 45 100 51.5 c 128,-1,20
 105 58 105 58 105 65 c 2,21,-1
 105 598 l 2,22,23
 105 605 105 605 100 611.5 c 128,-1,24
 95 618 95 618 85 618 c 2,25,-1
 28 621 l 1,26,-1
 28 663 l 1,27,-1
 252 663 l 1,28,-1
 252 637 l 1,29,-1
 433 146 l 1,30,-1
 614 634 l 1,31,-1
 614 663 l 1,32,-1
 843 663 l 1,33,-1
 843 621 l 1,34,-1
 789 618 l 2,35,36
 779 618 779 618 773.5 611.5 c 128,-1,37
 768 605 768 605 768 598 c 2,38,-1
 768 65 l 2,39,40
 768 58 768 58 773.5 51.5 c 128,-1,41
 779 45 779 45 789 45 c 2,42,-1
 843 42 l 1,43,-1
 843 0 l 1,44,-1
 592 0 l 1,0,-1
EndSplineSet
EndChar

StartChar: N
Encoding: 78 78 49
Width: 721
Flags: W
LayerCount: 2
Fore
SplineSet
636 624 m 2,0,1
 626 624 626 624 621 617.5 c 128,-1,2
 616 611 616 611 616 604 c 2,3,-1
 616 2 l 1,4,-1
 538 2 l 1,5,-1
 166 562 l 1,6,-1
 166 71 l 2,7,8
 166 64 166 64 171 57.5 c 128,-1,9
 176 51 176 51 186 51 c 2,10,-1
 243 48 l 1,11,-1
 243 6 l 1,12,-1
 27 6 l 1,13,-1
 27 48 l 1,14,-1
 84 51 l 2,15,16
 94 51 94 51 99.5 57.5 c 128,-1,17
 105 64 105 64 105 71 c 2,18,-1
 105 604 l 2,19,20
 105 611 105 611 99.5 617.5 c 128,-1,21
 94 624 94 624 84 624 c 2,22,-1
 25 627 l 1,23,-1
 25 669 l 1,24,-1
 223 669 l 1,25,-1
 223 645 l 1,26,-1
 556 143 l 1,27,-1
 556 601 l 2,28,29
 556 608 556 608 551 614.5 c 128,-1,30
 546 621 546 621 536 621 c 2,31,-1
 479 624 l 1,32,-1
 479 666 l 1,33,-1
 692 666 l 1,34,-1
 692 624 l 1,35,-1
 636 624 l 2,0,1
EndSplineSet
EndChar

StartChar: O
Encoding: 79 79 50
Width: 730
Flags: W
LayerCount: 2
Fore
SplineSet
576 333 m 1,0,1
 576 394 576 394 563 447.5 c 128,-1,2
 550 501 550 501 524 541 c 128,-1,3
 498 581 498 581 459 604 c 128,-1,4
 420 627 420 627 368 627 c 0,5,6
 314 627 314 627 274 604 c 128,-1,7
 234 581 234 581 208 541 c 128,-1,8
 182 501 182 501 169.5 448 c 128,-1,9
 157 395 157 395 157 336 c 0,10,11
 157 276 157 276 169.5 222.5 c 128,-1,12
 182 169 182 169 208 128.5 c 128,-1,13
 234 88 234 88 273 64.5 c 128,-1,14
 312 41 312 41 365 41 c 0,15,16
 419 41 419 41 458.5 64.5 c 128,-1,17
 498 88 498 88 524 128 c 128,-1,18
 550 168 550 168 562.5 221 c 128,-1,19
 575 274 575 274 576 333 c 1,0,1
690 334 m 0,20,21
 690 262 690 262 667 198.5 c 128,-1,22
 644 135 644 135 601.5 87.5 c 128,-1,23
 559 40 559 40 499 12.5 c 128,-1,24
 439 -15 439 -15 366 -15 c 256,25,26
 293 -15 293 -15 233 11.5 c 128,-1,27
 173 38 173 38 130.5 85 c 128,-1,28
 88 132 88 132 65 196 c 128,-1,29
 42 260 42 260 42 335 c 0,30,31
 42 408 42 408 64.5 471.5 c 128,-1,32
 87 535 87 535 129 582.5 c 128,-1,33
 171 630 171 630 231 657 c 128,-1,34
 291 684 291 684 365 684 c 256,35,36
 439 684 439 684 499 656.5 c 128,-1,37
 559 629 559 629 601.5 581.5 c 128,-1,38
 644 534 644 534 667 470.5 c 128,-1,39
 690 407 690 407 690 334 c 0,20,21
EndSplineSet
EndChar

StartChar: P
Encoding: 80 80 51
Width: 579
Flags: W
LayerCount: 2
Fore
SplineSet
436 467 m 0,0,1
 436 503 436 503 426.5 531.5 c 128,-1,2
 417 560 417 560 396 579.5 c 128,-1,3
 375 599 375 599 341.5 609 c 128,-1,4
 308 619 308 619 261 619 c 0,5,6
 255 619 255 619 246.5 619 c 128,-1,7
 238 619 238 619 231 619 c 0,8,9
 223 619 223 619 214 619 c 1,10,-1
 214 305 l 1,11,12
 214 305 214 305 220 304.5 c 128,-1,13
 226 304 226 304 234 303 c 128,-1,14
 242 302 242 302 251 301.5 c 128,-1,15
 260 301 260 301 267 301 c 0,16,17
 306 301 306 301 337.5 310.5 c 128,-1,18
 369 320 369 320 391 340.5 c 128,-1,19
 413 361 413 361 425 392.5 c 128,-1,20
 437 424 437 424 436 467 c 0,0,1
541 468 m 1,21,22
 541 413 541 413 520.5 372 c 128,-1,23
 500 331 500 331 465 304 c 128,-1,24
 430 277 430 277 382.5 264 c 128,-1,25
 335 251 335 251 281 251 c 0,26,27
 272 251 272 251 261 251 c 128,-1,28
 250 251 250 251 240 251.5 c 128,-1,29
 230 252 230 252 222.5 252 c 128,-1,30
 215 252 215 252 214 252 c 1,31,-1
 214 66 l 2,32,33
 214 59 214 59 219 52.5 c 128,-1,34
 224 46 224 46 234 46 c 2,35,-1
 299 43 l 1,36,-1
 299 1 l 1,37,-1
 37 1 l 1,38,-1
 37 43 l 1,39,-1
 89 46 l 2,40,41
 99 46 99 46 104.5 52.5 c 128,-1,42
 110 59 110 59 110 66 c 2,43,-1
 110 599 l 2,44,45
 110 606 110 606 104.5 612.5 c 128,-1,46
 99 619 99 619 89 619 c 2,47,-1
 29 622 l 1,48,-1
 29 664 l 1,49,-1
 268 664 l 2,50,51
 338 664 338 664 390 653.5 c 128,-1,52
 442 643 442 643 475.5 619.5 c 128,-1,53
 509 596 509 596 525.5 558 c 128,-1,54
 542 520 542 520 541 468 c 1,21,22
EndSplineSet
EndChar

StartChar: Q
Encoding: 81 81 52
Width: 738
Flags: W
LayerCount: 2
Fore
SplineSet
582 334 m 0,0,1
 582 393 582 393 569.5 446 c 128,-1,2
 557 499 557 499 531 539.5 c 128,-1,3
 505 580 505 580 465 604 c 128,-1,4
 425 628 425 628 370 628 c 0,5,6
 316 628 316 628 276 605 c 128,-1,7
 236 582 236 582 210 542 c 128,-1,8
 184 502 184 502 171.5 449 c 128,-1,9
 159 396 159 396 159 337 c 0,10,11
 159 279 159 279 172 225.5 c 128,-1,12
 185 172 185 172 211.5 131 c 128,-1,13
 238 90 238 90 278 66 c 128,-1,14
 318 42 318 42 371 42 c 0,15,16
 425 42 425 42 465 66 c 128,-1,17
 505 90 505 90 531 130.5 c 128,-1,18
 557 171 557 171 569.5 224.5 c 128,-1,19
 582 278 582 278 582 334 c 0,0,1
700 336 m 0,20,21
 700 269 700 269 681.5 210.5 c 128,-1,22
 663 152 663 152 627.5 107 c 128,-1,23
 592 62 592 62 541 32 c 128,-1,24
 490 2 490 2 426 -8 c 1,25,26
 426 -64 426 -64 459.5 -96 c 128,-1,27
 493 -128 493 -128 562 -128 c 0,28,29
 580 -128 580 -128 596 -127 c 128,-1,30
 612 -126 612 -126 624.5 -124.5 c 128,-1,31
 637 -123 637 -123 645.5 -121.5 c 128,-1,32
 654 -120 654 -120 657 -120 c 1,33,-1
 657 -162 l 1,34,35
 652 -162 652 -162 638.5 -164.5 c 128,-1,36
 625 -167 625 -167 605 -169.5 c 128,-1,37
 585 -172 585 -172 561 -174 c 128,-1,38
 537 -176 537 -176 511 -176 c 0,39,40
 459 -176 459 -176 422.5 -164.5 c 128,-1,41
 386 -153 386 -153 363 -131.5 c 128,-1,42
 340 -110 340 -110 330 -79 c 128,-1,43
 320 -48 320 -48 320 -10 c 1,44,45
 260 -2 260 -2 209.5 25.5 c 128,-1,46
 159 53 159 53 122 97.5 c 128,-1,47
 85 142 85 142 64.5 202.5 c 128,-1,48
 44 263 44 263 44 336 c 0,49,50
 44 384 44 384 54 429 c 128,-1,51
 64 474 64 474 83.5 513 c 128,-1,52
 103 552 103 552 131.5 583.5 c 128,-1,53
 160 615 160 615 196.5 637.5 c 128,-1,54
 233 660 233 660 276.5 672 c 128,-1,55
 320 684 320 684 369 684 c 0,56,57
 445 684 445 684 506 657 c 128,-1,58
 567 630 567 630 610 583 c 128,-1,59
 653 536 653 536 676 472 c 128,-1,60
 699 408 699 408 700 336 c 0,20,21
EndSplineSet
EndChar

StartChar: R
Encoding: 82 82 53
Width: 648
Flags: W
LayerCount: 2
Fore
SplineSet
429 488 m 1,0,1
 429 520 429 520 419.5 544.5 c 128,-1,2
 410 569 410 569 389 586 c 128,-1,3
 368 603 368 603 335 611.5 c 128,-1,4
 302 620 302 620 255 620 c 2,5,-1
 210 620 l 1,6,-1
 210 347 l 1,7,8
 210 347 210 347 215.5 347 c 128,-1,9
 221 347 221 347 228.5 347 c 128,-1,10
 236 347 236 347 244 347 c 128,-1,11
 252 347 252 347 257 347 c 0,12,13
 298 347 298 347 330 354 c 128,-1,14
 362 361 362 361 383.5 377.5 c 128,-1,15
 405 394 405 394 416 421 c 128,-1,16
 427 448 427 448 429 488 c 1,0,1
646 -3 m 1,17,18
 643 -3 643 -3 637 -4.5 c 128,-1,19
 631 -6 631 -6 622.5 -8 c 128,-1,20
 614 -10 614 -10 604 -11.5 c 128,-1,21
 594 -13 594 -13 583 -13 c 0,22,23
 539 -13 539 -13 511.5 0 c 128,-1,24
 484 13 484 13 467 35 c 128,-1,25
 450 57 450 57 440.5 85 c 128,-1,26
 431 113 431 113 423 142.5 c 128,-1,27
 415 172 415 172 405 200 c 128,-1,28
 395 228 395 228 377 250 c 128,-1,29
 359 272 359 272 330.5 285 c 128,-1,30
 302 298 302 298 257 298 c 0,31,32
 250 298 250 298 242.5 298 c 128,-1,33
 235 298 235 298 229 298 c 128,-1,34
 223 298 223 298 219 298 c 128,-1,35
 215 298 215 298 215 298 c 1,36,-1
 215 70 l 2,37,38
 215 63 215 63 220 56.5 c 128,-1,39
 225 50 225 50 235 50 c 2,40,-1
 287 47 l 1,41,-1
 287 5 l 1,42,-1
 39 5 l 1,43,-1
 39 47 l 1,44,-1
 90 50 l 2,45,46
 100 50 100 50 105.5 56.5 c 128,-1,47
 111 63 111 63 111 70 c 2,48,-1
 111 603 l 2,49,50
 111 610 111 610 105.5 616.5 c 128,-1,51
 100 623 100 623 90 623 c 2,52,-1
 39 626 l 1,53,-1
 39 668 l 1,54,-1
 299 668 l 2,55,56
 356 668 356 668 401 659 c 128,-1,57
 446 650 446 650 477.5 629.5 c 128,-1,58
 509 609 509 609 525.5 575.5 c 128,-1,59
 542 542 542 542 542 493 c 0,60,61
 542 454 542 454 528.5 426 c 128,-1,62
 515 398 515 398 492.5 378.5 c 128,-1,63
 470 359 470 359 440.5 347 c 128,-1,64
 411 335 411 335 380 328 c 1,65,66
 420 319 420 319 444 302 c 128,-1,67
 468 285 468 285 482 263.5 c 128,-1,68
 496 242 496 242 502.5 217.5 c 128,-1,69
 509 193 509 193 514 169 c 128,-1,70
 519 145 519 145 525.5 123.5 c 128,-1,71
 532 102 532 102 546 85 c 128,-1,72
 560 68 560 68 584.5 58 c 128,-1,73
 609 48 609 48 650 48 c 1,74,-1
 646 -3 l 1,17,18
EndSplineSet
EndChar

StartChar: S
Encoding: 83 83 54
Width: 520
Flags: W
LayerCount: 2
Fore
SplineSet
481 187 m 1,0,1
 481 149 481 149 466.5 112.5 c 128,-1,2
 452 76 452 76 420 47.5 c 128,-1,3
 388 19 388 19 338 1.5 c 128,-1,4
 288 -16 288 -16 218 -16 c 0,5,6
 177 -16 177 -16 145 -10.5 c 128,-1,7
 113 -5 113 -5 90 1 c 1,8,9
 64 9 64 9 43 19 c 1,10,-1
 43 196 l 1,11,-1
 105 196 l 1,12,-1
 118 83 l 2,13,14
 118 78 118 78 123 71.5 c 128,-1,15
 128 65 128 65 133 63 c 2,16,-1
 141 59 l 2,17,18
 148 56 148 56 160.5 52 c 128,-1,19
 173 48 173 48 191 45 c 128,-1,20
 209 42 209 42 232 42 c 0,21,22
 263 42 263 42 290 50 c 128,-1,23
 317 58 317 58 336.5 73 c 128,-1,24
 356 88 356 88 366.5 109.5 c 128,-1,25
 377 131 377 131 377 158 c 0,26,27
 377 188 377 188 360 210.5 c 128,-1,28
 343 233 343 233 317 250.5 c 128,-1,29
 291 268 291 268 260.5 282 c 128,-1,30
 230 296 230 296 203 309 c 0,31,32
 173 323 173 323 145 338.5 c 128,-1,33
 117 354 117 354 96 374.5 c 128,-1,34
 75 395 75 395 63 422.5 c 128,-1,35
 51 450 51 450 51 488 c 0,36,37
 51 532 51 532 68.5 568 c 128,-1,38
 86 604 86 604 117 629.5 c 128,-1,39
 148 655 148 655 190 668.5 c 128,-1,40
 232 682 232 682 281 682 c 0,41,42
 309 682 309 682 334 679 c 128,-1,43
 359 676 359 676 380.5 671 c 128,-1,44
 402 666 402 666 420.5 660.5 c 128,-1,45
 439 655 439 655 455 650 c 1,46,-1
 455 495 l 1,47,-1
 398 495 l 1,48,-1
 383 590 l 2,49,50
 383 594 383 594 378.5 598.5 c 128,-1,51
 374 603 374 603 370 605 c 2,52,53
 370 605 370 605 365 608.5 c 128,-1,54
 360 612 360 612 350 615.5 c 128,-1,55
 340 619 340 619 324 622 c 128,-1,56
 308 625 308 625 286 625 c 0,57,58
 256 625 256 625 232.5 616.5 c 128,-1,59
 209 608 209 608 192.5 592.5 c 128,-1,60
 176 577 176 577 167 556 c 128,-1,61
 158 535 158 535 158 510 c 0,62,63
 158 488 158 488 167 469.5 c 128,-1,64
 176 451 176 451 193.5 435.5 c 128,-1,65
 211 420 211 420 236.5 406.5 c 128,-1,66
 262 393 262 393 295 381 c 0,67,68
 340 364 340 364 375 345.5 c 128,-1,69
 410 327 410 327 434 304.5 c 128,-1,70
 458 282 458 282 470.5 253.5 c 128,-1,71
 483 225 483 225 481 187 c 1,0,1
EndSplineSet
EndChar

StartChar: T
Encoding: 84 84 55
Width: 599
Flags: W
LayerCount: 2
Fore
SplineSet
523 511 m 1,0,-1
 509 604 l 2,1,2
 508 611 508 611 504 615.5 c 128,-1,3
 500 620 500 620 494 620 c 2,4,-1
 351 620 l 1,5,-1
 351 67 l 2,6,7
 351 60 351 60 356 53.5 c 128,-1,8
 361 47 361 47 371 47 c 2,9,-1
 434 44 l 1,10,-1
 434 2 l 1,11,-1
 164 2 l 1,12,-1
 164 44 l 1,13,-1
 227 47 l 2,14,15
 237 47 237 47 242 53.5 c 128,-1,16
 247 60 247 60 247 67 c 2,17,-1
 247 620 l 1,18,-1
 103 620 l 2,19,20
 97 620 97 620 92.5 615.5 c 128,-1,21
 88 611 88 611 88 604 c 2,22,-1
 75 511 l 1,23,-1
 17 511 l 1,24,-1
 17 670 l 1,25,-1
 583 670 l 1,26,-1
 583 511 l 1,27,-1
 523 511 l 1,0,-1
EndSplineSet
EndChar

StartChar: U
Encoding: 85 85 56
Width: 711
Flags: W
LayerCount: 2
Fore
SplineSet
626 624 m 1,0,1
 616 624 616 624 611 617.5 c 128,-1,2
 606 611 606 611 606 604 c 2,3,-1
 606 225 l 2,4,5
 606 164 606 164 589.5 119.5 c 128,-1,6
 573 75 573 75 541 46 c 128,-1,7
 509 17 509 17 461 3 c 128,-1,8
 413 -11 413 -11 351 -11 c 0,9,10
 227 -11 227 -11 167 49 c 128,-1,11
 107 109 107 109 107 227 c 2,12,-1
 107 606 l 2,13,14
 107 613 107 613 102 619.5 c 128,-1,15
 97 626 97 626 87 626 c 2,16,-1
 34 629 l 1,17,-1
 34 671 l 1,18,-1
 288 671 l 1,19,-1
 288 629 l 1,20,-1
 231 626 l 2,21,22
 221 626 221 626 216 619.5 c 128,-1,23
 211 613 211 613 211 606 c 2,24,-1
 211 252 l 2,25,26
 211 209 211 209 217.5 173 c 128,-1,27
 224 137 224 137 242.5 111.5 c 128,-1,28
 261 86 261 86 293.5 72 c 128,-1,29
 326 58 326 58 378 58 c 0,30,31
 429 58 429 58 462 73 c 128,-1,32
 495 88 495 88 514 114.5 c 128,-1,33
 533 141 533 141 540 177 c 128,-1,34
 547 213 547 213 547 254 c 2,35,-1
 547 608 l 2,36,37
 547 615 547 615 541.5 621.5 c 128,-1,38
 536 628 536 628 526 628 c 2,39,-1
 469 631 l 1,40,-1
 469 673 l 1,41,-1
 686 673 l 1,42,-1
 686 631 l 1,43,-1
 626 624 l 1,0,1
EndSplineSet
EndChar

StartChar: V
Encoding: 86 86 57
Width: 666
Flags: W
LayerCount: 2
Fore
SplineSet
598 617 m 1,0,-1
 374 -16 l 1,1,-1
 298 -16 l 1,2,-1
 69 618 l 1,3,-1
 10 627 l 1,4,-1
 10 669 l 1,5,-1
 249 669 l 1,6,-1
 249 627 l 1,7,-1
 190 623 l 2,8,9
 185 623 185 623 183 617 c 128,-1,10
 181 611 181 611 182 607 c 2,11,-1
 357 113 l 1,12,-1
 525 605 l 2,13,14
 526 610 526 610 521.5 616.5 c 128,-1,15
 517 623 517 623 511 623 c 2,16,-1
 456 627 l 1,17,-1
 456 669 l 1,18,-1
 654 669 l 1,19,-1
 654 627 l 1,20,-1
 598 617 l 1,0,-1
EndSplineSet
EndChar

StartChar: W
Encoding: 87 87 58
Width: 931
Flags: W
LayerCount: 2
Fore
SplineSet
859 616 m 1,0,-1
 707 -16 l 1,1,-1
 634 -16 l 1,2,-1
 468 538 l 1,3,-1
 305 -16 l 1,4,-1
 233 -16 l 1,5,-1
 70 616 l 1,6,-1
 12 627 l 1,7,-1
 12 669 l 1,8,-1
 241 669 l 1,9,-1
 241 627 l 1,10,-1
 182 622 l 2,11,12
 176 622 176 622 174 616 c 128,-1,13
 172 610 172 610 173 604 c 2,14,-1
 292 153 l 1,15,-1
 448 673 l 1,16,-1
 525 673 l 1,17,-1
 686 137 l 1,18,-1
 796 604 l 2,19,20
 797 610 797 610 793.5 616 c 128,-1,21
 790 622 790 622 783 622 c 2,22,-1
 721 627 l 1,23,-1
 721 669 l 1,24,-1
 925 669 l 1,25,-1
 925 627 l 1,26,-1
 859 616 l 1,0,-1
EndSplineSet
EndChar

StartChar: X
Encoding: 88 88 59
Width: 633
Flags: W
LayerCount: 2
Fore
SplineSet
367 0 m 1,0,-1
 367 42 l 1,1,-1
 424 47 l 2,2,3
 431 47 431 47 435 53 c 128,-1,4
 439 59 439 59 435 66 c 2,5,-1
 303 274 l 1,6,-1
 149 63 l 2,7,8
 146 58 146 58 147.5 52 c 128,-1,9
 149 46 149 46 161 46 c 2,10,-1
 221 42 l 1,11,-1
 221 0 l 1,12,-1
 9 0 l 1,13,-1
 9 42 l 1,14,-1
 69 54 l 1,15,-1
 270 329 l 1,16,-1
 88 614 l 1,17,-1
 23 625 l 1,18,-1
 23 667 l 1,19,-1
 273 667 l 1,20,-1
 273 625 l 1,21,-1
 223 621 l 2,22,23
 211 621 211 621 209.5 614.5 c 128,-1,24
 208 608 208 608 211 603 c 2,25,-1
 333 416 l 1,26,-1
 467 601 l 2,27,28
 472 608 472 608 468 614 c 128,-1,29
 464 620 464 620 457 620 c 2,30,-1
 406 626 l 1,31,-1
 406 668 l 1,32,-1
 615 668 l 1,33,-1
 615 626 l 1,34,-1
 551 617 l 1,35,-1
 366 362 l 1,36,-1
 562 55 l 1,37,-1
 624 43 l 1,38,-1
 624 1 l 1,39,-1
 367 0 l 1,0,-1
EndSplineSet
EndChar

StartChar: Y
Encoding: 89 89 60
Width: 625
Flags: W
LayerCount: 2
Fore
SplineSet
562 618 m 1,0,-1
 361 285 l 1,1,-1
 361 69 l 2,2,3
 361 62 361 62 366 55.5 c 128,-1,4
 371 49 371 49 381 49 c 2,5,-1
 444 46 l 1,6,-1
 444 4 l 1,7,-1
 174 4 l 1,8,-1
 174 46 l 1,9,-1
 236 49 l 2,10,11
 246 49 246 49 251.5 55.5 c 128,-1,12
 257 62 257 62 257 69 c 2,13,-1
 257 270 l 1,14,-1
 66 616 l 1,15,-1
 8 627 l 1,16,-1
 8 669 l 1,17,-1
 245 669 l 1,18,-1
 245 627 l 1,19,-1
 195 623 l 2,20,21
 184 622 184 622 183 616 c 128,-1,22
 182 610 182 610 184 605 c 2,23,-1
 325 344 l 1,24,-1
 479 602 l 2,25,26
 483 609 483 609 479 615 c 128,-1,27
 475 621 475 621 468 621 c 2,28,-1
 412 627 l 1,29,-1
 412 669 l 1,30,-1
 615 669 l 1,31,-1
 615 627 l 1,32,-1
 562 618 l 1,0,-1
EndSplineSet
EndChar

StartChar: Z
Encoding: 90 90 61
Width: 575
Flags: W
LayerCount: 2
Fore
SplineSet
39 0 m 1,0,-1
 39 43 l 1,1,-1
 411 620 l 1,2,-1
 151 620 l 2,3,4
 145 620 145 620 141 615.5 c 128,-1,5
 137 611 137 611 136 604 c 2,6,-1
 122 512 l 1,7,-1
 63 512 l 1,8,-1
 63 671 l 1,9,-1
 533 671 l 1,10,-1
 533 626 l 1,11,-1
 161 52 l 1,12,-1
 445 52 l 2,13,14
 451 52 451 52 455 57 c 128,-1,15
 459 62 459 62 460 69 c 2,16,-1
 477 185 l 1,17,-1
 536 185 l 1,18,-1
 536 0 l 1,19,-1
 39 0 l 1,0,-1
EndSplineSet
EndChar

StartChar: bracketleft
Encoding: 91 91 62
Width: 422
Flags: W
LayerCount: 2
Fore
SplineSet
136 -131 m 1,0,-1
 136 708 l 1,1,-1
 378 708 l 1,2,-1
 378 664 l 1,3,-1
 223 664 l 1,4,-1
 223 -85 l 1,5,-1
 378 -85 l 1,6,-1
 378 -130 l 1,7,-1
 136 -131 l 1,0,-1
EndSplineSet
EndChar

StartChar: backslash
Encoding: 92 92 63
Width: 488
Flags: W
LayerCount: 2
Fore
SplineSet
424 -92 m 1,0,-1
 0 671 l 1,1,-1
 63 671 l 1,2,-1
 487 -92 l 1,3,-1
 424 -92 l 1,0,-1
EndSplineSet
EndChar

StartChar: bracketright
Encoding: 93 93 64
Width: 422
Flags: W
LayerCount: 2
Fore
SplineSet
43 -131 m 1,0,-1
 43 -86 l 1,1,-1
 200 -86 l 1,2,-1
 200 663 l 1,3,-1
 43 663 l 1,4,-1
 43 707 l 1,5,-1
 287 707 l 1,6,-1
 287 -132 l 1,7,-1
 43 -131 l 1,0,-1
EndSplineSet
EndChar

StartChar: asciicircum
Encoding: 94 94 65
Width: 327
Flags: W
LayerCount: 2
Fore
SplineSet
267 550 m 1,0,-1
 164 649 l 1,1,-1
 60 550 l 1,2,-1
 0 550 l 1,3,-1
 125 719 l 1,4,-1
 200 719 l 1,5,-1
 325 550 l 1,6,-1
 267 550 l 1,0,-1
EndSplineSet
EndChar

StartChar: glyph66
Encoding: 95 95 66
Width: 334
Flags: W
LayerCount: 2
Fore
SplineSet
0 -148 m 1,0,-1
 0 -85 l 1,1,-1
 334 -85 l 1,2,-1
 334 -148 l 1,3,-1
 0 -148 l 1,0,-1
EndSplineSet
EndChar

StartChar: grave
Encoding: 96 96 67
Width: 350
Flags: W
LayerCount: 2
Fore
SplineSet
174 550 m 1,0,-1
 23 647 l 2,1,2
 13 653 13 653 7 662.5 c 128,-1,3
 1 672 1 672 1 685 c 0,4,5
 1 692 1 692 3 700 c 128,-1,6
 5 708 5 708 10 714 c 128,-1,7
 15 720 15 720 23.5 724 c 128,-1,8
 32 728 32 728 44 728 c 0,9,10
 54 728 54 728 61 726.5 c 128,-1,11
 68 725 68 725 73.5 722 c 128,-1,12
 79 719 79 719 83.5 714 c 128,-1,13
 88 709 88 709 93 703 c 2,14,-1
 226 548 l 1,15,-1
 174 550 l 1,0,-1
EndSplineSet
EndChar

StartChar: a
Encoding: 97 97 68
Width: 508
Flags: W
LayerCount: 2
Fore
SplineSet
331 267 m 1,0,1
 264 250 264 250 224.5 233.5 c 128,-1,2
 185 217 185 217 165 200.5 c 128,-1,3
 145 184 145 184 139.5 167 c 128,-1,4
 134 150 134 150 134 132 c 0,5,6
 134 117 134 117 139 102.5 c 128,-1,7
 144 88 144 88 153.5 76.5 c 128,-1,8
 163 65 163 65 176.5 58 c 128,-1,9
 190 51 190 51 208 51 c 0,10,11
 228 51 228 51 249.5 58 c 128,-1,12
 271 65 271 65 289 73 c 0,13,14
 309 83 309 83 329 96 c 1,15,-1
 331 267 l 1,0,1
342 2 m 1,16,-1
 329 61 l 1,17,18
 303 41 303 41 276 26 c 0,19,20
 264 20 264 20 250.5 14 c 128,-1,21
 237 8 237 8 223 3 c 128,-1,22
 209 -2 209 -2 194.5 -4.5 c 128,-1,23
 180 -7 180 -7 166 -7 c 0,24,25
 139 -7 139 -7 115.5 2 c 128,-1,26
 92 11 92 11 74.5 28.5 c 128,-1,27
 57 46 57 46 47 70.5 c 128,-1,28
 37 95 37 95 37 126 c 0,29,30
 37 144 37 144 40.5 160.5 c 128,-1,31
 44 177 44 177 55 192.5 c 128,-1,32
 66 208 66 208 86 222 c 128,-1,33
 106 236 106 236 138.5 250 c 128,-1,34
 171 264 171 264 218.5 277.5 c 128,-1,35
 266 291 266 291 331 305 c 1,36,-1
 331 347 l 2,37,38
 331 397 331 397 309 421 c 128,-1,39
 287 445 287 445 239 445 c 0,40,41
 213 445 213 445 194.5 440.5 c 128,-1,42
 176 436 176 436 169 434 c 1,43,-1
 169 348 l 1,44,-1
 97 348 l 2,45,46
 91 348 91 348 84.5 348.5 c 128,-1,47
 78 349 78 349 73 352 c 128,-1,48
 68 355 68 355 65 360.5 c 128,-1,49
 62 366 62 366 62 375 c 0,50,51
 62 405 62 405 80.5 427 c 128,-1,52
 99 449 99 449 128.5 463.5 c 128,-1,53
 158 478 158 478 195 484.5 c 128,-1,54
 232 491 232 491 269 491 c 0,55,56
 315 491 315 491 345.5 480 c 128,-1,57
 376 469 376 469 393.5 449 c 128,-1,58
 411 429 411 429 418 402 c 128,-1,59
 425 375 425 375 425 343 c 2,60,-1
 425 63 l 2,61,62
 425 54 425 54 431 48.5 c 128,-1,63
 437 43 437 43 445 43 c 2,64,-1
 493 41 l 1,65,-1
 493 2 l 1,66,-1
 342 2 l 1,16,-1
EndSplineSet
EndChar

StartChar: b
Encoding: 98 98 69
Width: 555
Flags: W
LayerCount: 2
Fore
SplineSet
520 264 m 1,0,1
 520 208 520 208 503.5 160 c 128,-1,2
 487 112 487 112 452.5 76.5 c 128,-1,3
 418 41 418 41 364 21 c 128,-1,4
 310 1 310 1 235 1 c 2,5,-1
 91 1 l 1,6,-1
 91 666 l 1,7,-1
 16 666 l 1,8,-1
 16 699 l 1,9,-1
 144 737 l 1,10,-1
 184 737 l 1,11,-1
 184 458 l 1,12,13
 192 461 192 461 206 467 c 128,-1,14
 220 473 220 473 238 478.5 c 128,-1,15
 256 484 256 484 276.5 488 c 128,-1,16
 297 492 297 492 318 492 c 0,17,18
 367 492 367 492 404 473.5 c 128,-1,19
 441 455 441 455 466 423.5 c 128,-1,20
 491 392 491 392 503.5 350.5 c 128,-1,21
 516 309 516 309 520 264 c 1,0,1
414 244 m 0,22,23
 414 338 414 338 374 386 c 128,-1,24
 334 434 334 434 262 434 c 0,25,26
 254 434 254 434 243 433 c 128,-1,27
 232 432 232 432 221 430 c 128,-1,28
 210 428 210 428 199.5 425.5 c 128,-1,29
 189 423 189 423 182 421 c 1,30,-1
 182 50 l 1,31,32
 190 50 190 50 198 50 c 0,33,34
 205 50 205 50 213 50 c 2,35,-1
 229 50 l 2,36,37
 273 50 273 50 307.5 60 c 128,-1,38
 342 70 342 70 365.5 93 c 128,-1,39
 389 116 389 116 401.5 153.5 c 128,-1,40
 414 191 414 191 414 244 c 0,22,23
EndSplineSet
EndChar

StartChar: c
Encoding: 99 99 70
Width: 465
Flags: W
LayerCount: 2
Fore
SplineSet
432 37 m 1,0,1
 415 29 415 29 396.5 20 c 128,-1,2
 378 11 378 11 357 4.5 c 128,-1,3
 336 -2 336 -2 313 -6 c 128,-1,4
 290 -10 290 -10 265 -10 c 0,5,6
 213 -10 213 -10 171 8.5 c 128,-1,7
 129 27 129 27 99.5 60 c 128,-1,8
 70 93 70 93 54 138.5 c 128,-1,9
 38 184 38 184 38 237 c 0,10,11
 38 299 38 299 57.5 346.5 c 128,-1,12
 77 394 77 394 110 426 c 128,-1,13
 143 458 143 458 186.5 474 c 128,-1,14
 230 490 230 490 277 490 c 0,15,16
 309 490 309 490 337.5 483.5 c 128,-1,17
 366 477 366 477 386.5 464.5 c 128,-1,18
 407 452 407 452 418.5 433.5 c 128,-1,19
 430 415 430 415 430 391 c 0,20,21
 430 377 430 377 425 366.5 c 128,-1,22
 420 356 420 356 412 348.5 c 128,-1,23
 404 341 404 341 394 337.5 c 128,-1,24
 384 334 384 334 373 334 c 0,25,26
 357 334 357 334 345 339.5 c 128,-1,27
 333 345 333 345 324 350 c 1,28,-1
 324 436 l 1,29,30
 314 441 314 441 303.5 444.5 c 128,-1,31
 293 448 293 448 284 448 c 0,32,33
 251 448 251 448 224.5 433 c 128,-1,34
 198 418 198 418 180 391.5 c 128,-1,35
 162 365 162 365 152.5 328.5 c 128,-1,36
 143 292 143 292 143 249 c 0,37,38
 143 208 143 208 153 171.5 c 128,-1,39
 163 135 163 135 183.5 108 c 128,-1,40
 204 81 204 81 235 65.5 c 128,-1,41
 266 50 266 50 307 50 c 0,42,43
 342 50 342 50 373 60.5 c 128,-1,44
 404 71 404 71 436 92 c 1,45,-1
 432 37 l 1,0,1
EndSplineSet
EndChar

StartChar: d
Encoding: 100 100 71
Width: 563
Flags: W
LayerCount: 2
Fore
SplineSet
380 431 m 1,0,1
 374 432 374 432 364 434.5 c 128,-1,2
 354 437 354 437 343 439 c 128,-1,3
 332 441 332 441 320 442 c 128,-1,4
 308 443 308 443 298 443 c 0,5,6
 261 443 261 443 231 429 c 128,-1,7
 201 415 201 415 180 389 c 128,-1,8
 159 363 159 363 148 326 c 128,-1,9
 137 289 137 289 137 244 c 0,10,11
 137 203 137 203 146.5 169 c 128,-1,12
 156 135 156 135 174.5 110 c 128,-1,13
 193 85 193 85 219.5 71 c 128,-1,14
 246 57 246 57 280 57 c 0,15,16
 295 57 295 57 309 60 c 128,-1,17
 323 63 323 63 336 68 c 128,-1,18
 349 73 349 73 360.5 79 c 128,-1,19
 372 85 372 85 381 90 c 1,20,-1
 380 431 l 1,0,1
381 0 m 1,21,-1
 381 53 l 1,22,23
 364 40 364 40 346 28.5 c 128,-1,24
 328 17 328 17 309 8.5 c 128,-1,25
 290 0 290 0 270 -5 c 128,-1,26
 250 -10 250 -10 229 -10 c 0,27,28
 179 -10 179 -10 143 11.5 c 128,-1,29
 107 33 107 33 84 67 c 128,-1,30
 61 101 61 101 50.5 143.5 c 128,-1,31
 40 186 40 186 40 228 c 0,32,33
 40 278 40 278 55.5 326 c 128,-1,34
 71 374 71 374 102.5 411 c 128,-1,35
 134 448 134 448 181.5 470 c 128,-1,36
 229 492 229 492 293 492 c 0,37,38
 304 492 304 492 317.5 491 c 128,-1,39
 331 490 331 490 343.5 488.5 c 128,-1,40
 356 487 356 487 366 485 c 128,-1,41
 376 483 376 483 381 482 c 1,42,-1
 381 665 l 1,43,-1
 306 665 l 1,44,-1
 306 698 l 1,45,-1
 434 736 l 1,46,-1
 474 736 l 1,47,-1
 474 64 l 2,48,49
 474 55 474 55 479.5 49.5 c 128,-1,50
 485 44 485 44 494 44 c 2,51,-1
 536 42 l 1,52,-1
 536 3 l 1,53,-1
 381 0 l 1,21,-1
EndSplineSet
EndChar

StartChar: e
Encoding: 101 101 72
Width: 490
Flags: W
LayerCount: 2
Fore
SplineSet
456 49 m 1,0,1
 436 36 436 36 413.5 25 c 128,-1,2
 391 14 391 14 367 6 c 128,-1,3
 343 -2 343 -2 318.5 -6.5 c 128,-1,4
 294 -11 294 -11 269 -11 c 0,5,6
 224 -11 224 -11 182.5 4 c 128,-1,7
 141 19 141 19 109.5 49.5 c 128,-1,8
 78 80 78 80 59 126.5 c 128,-1,9
 40 173 40 173 40 235 c 0,10,11
 40 293 40 293 57.5 340.5 c 128,-1,12
 75 388 75 388 106 421.5 c 128,-1,13
 137 455 137 455 179.5 473 c 128,-1,14
 222 491 222 491 273 491 c 0,15,16
 319 491 319 491 354 476 c 128,-1,17
 389 461 389 461 412 434 c 128,-1,18
 435 407 435 407 446.5 369.5 c 128,-1,19
 458 332 458 332 458 288 c 2,20,-1
 458 275 l 2,21,22
 458 268 458 268 458 262 c 1,23,-1
 134 262 l 1,24,25
 134 224 134 224 142 186 c 128,-1,26
 150 148 150 148 169 118 c 128,-1,27
 188 88 188 88 220 69.5 c 128,-1,28
 252 51 252 51 300 51 c 0,29,30
 321 51 321 51 341.5 56.5 c 128,-1,31
 362 62 362 62 382 70.5 c 128,-1,32
 402 79 402 79 420.5 89.5 c 128,-1,33
 439 100 439 100 456 111 c 1,34,-1
 456 49 l 1,0,1
356 328 m 1,35,36
 356 352 356 352 350.5 373 c 128,-1,37
 345 394 345 394 333.5 409.5 c 128,-1,38
 322 425 322 425 304 434 c 128,-1,39
 286 443 286 443 262 443 c 256,40,41
 238 443 238 443 217 433.5 c 128,-1,42
 196 424 196 424 180 406 c 128,-1,43
 164 388 164 388 154 362.5 c 128,-1,44
 144 337 144 337 143 305 c 1,45,-1
 362 305 l 1,46,-1
 356 328 l 1,35,36
EndSplineSet
EndChar

StartChar: f
Encoding: 102 102 73
Width: 326
Flags: W
LayerCount: 2
Fore
SplineSet
389 676 m 1,0,1
 389 661 389 661 383 651 c 128,-1,2
 377 641 377 641 369 635 c 128,-1,3
 361 629 361 629 353.5 626.5 c 128,-1,4
 346 624 346 624 344 624 c 1,5,6
 344 624 344 624 337 629 c 128,-1,7
 330 634 330 634 320 641 c 128,-1,8
 310 648 310 648 299 655.5 c 128,-1,9
 288 663 288 663 278.5 670 c 128,-1,10
 269 677 269 677 262.5 681.5 c 128,-1,11
 256 686 256 686 256 686 c 1,12,13
 246 681 246 681 236 670.5 c 128,-1,14
 226 660 226 660 217.5 642 c 128,-1,15
 209 624 209 624 204 598.5 c 128,-1,16
 199 573 199 573 199 538 c 2,17,-1
 199 475 l 1,18,-1
 323 475 l 1,19,-1
 323 424 l 1,20,-1
 199 424 l 1,21,-1
 199 66 l 2,22,23
 199 57 199 57 205 51.5 c 128,-1,24
 211 46 211 46 219 46 c 2,25,-1
 278 44 l 1,26,-1
 278 5 l 1,27,-1
 35 5 l 1,28,-1
 35 44 l 1,29,-1
 84 46 l 2,30,31
 92 46 92 46 98 51.5 c 128,-1,32
 104 57 104 57 104 66 c 2,33,-1
 104 424 l 1,34,-1
 41 424 l 1,35,-1
 41 459 l 1,36,-1
 104 477 l 1,37,38
 104 501 104 501 105.5 520.5 c 128,-1,39
 107 540 107 540 111 557 c 128,-1,40
 115 574 115 574 121 590 c 128,-1,41
 127 606 127 606 136 624 c 0,42,43
 150 652 150 652 169 672.5 c 128,-1,44
 188 693 188 693 210 706.5 c 128,-1,45
 232 720 232 720 256 726.5 c 128,-1,46
 280 733 280 733 304 733 c 0,47,48
 324 733 324 733 340 728.5 c 128,-1,49
 356 724 356 724 366.5 716 c 128,-1,50
 377 708 377 708 382 697.5 c 128,-1,51
 387 687 387 687 389 676 c 1,0,1
EndSplineSet
EndChar

StartChar: g
Encoding: 103 103 74
Width: 524
Flags: W
LayerCount: 2
Fore
SplineSet
395 -66 m 1,0,1
 395 -46 395 -46 385 -32 c 128,-1,2
 375 -18 375 -18 358.5 -9 c 128,-1,3
 342 0 342 0 321 5.5 c 128,-1,4
 300 11 300 11 278.5 14.5 c 128,-1,5
 257 18 257 18 237 20 c 128,-1,6
 217 22 217 22 202 24 c 1,7,8
 181 17 181 17 166.5 6.5 c 128,-1,9
 152 -4 152 -4 143.5 -16.5 c 128,-1,10
 135 -29 135 -29 131.5 -42 c 128,-1,11
 128 -55 128 -55 128 -67 c 0,12,13
 128 -85 128 -85 135.5 -105.5 c 128,-1,14
 143 -126 143 -126 159 -143 c 128,-1,15
 175 -160 175 -160 199.5 -171 c 128,-1,16
 224 -182 224 -182 257 -182 c 0,17,18
 292 -182 292 -182 318.5 -171 c 128,-1,19
 345 -160 345 -160 362.5 -143 c 128,-1,20
 380 -126 380 -126 388.5 -105.5 c 128,-1,21
 397 -85 397 -85 395 -66 c 1,0,1
341 331 m 0,22,23
 341 354 341 354 335 376 c 128,-1,24
 329 398 329 398 317.5 414.5 c 128,-1,25
 306 431 306 431 289 441 c 128,-1,26
 272 451 272 451 250 451 c 0,27,28
 230 451 230 451 212.5 443 c 128,-1,29
 195 435 195 435 183 419.5 c 128,-1,30
 171 404 171 404 164 381.5 c 128,-1,31
 157 359 157 359 157 331 c 0,32,33
 157 307 157 307 163 285 c 128,-1,34
 169 263 169 263 180.5 246.5 c 128,-1,35
 192 230 192 230 209.5 220.5 c 128,-1,36
 227 211 227 211 250 211 c 0,37,38
 272 211 272 211 289 220.5 c 128,-1,39
 306 230 306 230 317.5 246.5 c 128,-1,40
 329 263 329 263 335 285 c 128,-1,41
 341 307 341 307 341 331 c 0,22,23
409 416 m 1,42,43
 420 398 420 398 427.5 377 c 128,-1,44
 435 356 435 356 435 327 c 0,45,46
 435 288 435 288 417 257.5 c 128,-1,47
 399 227 399 227 369 206.5 c 128,-1,48
 339 186 339 186 300.5 176.5 c 128,-1,49
 262 167 262 167 221 169 c 1,50,51
 216 160 216 160 214 149 c 128,-1,52
 212 138 212 138 212 128.5 c 128,-1,53
 212 119 212 119 212.5 112 c 128,-1,54
 213 105 213 105 213 105 c 1,55,56
 235 103 235 103 263.5 100.5 c 128,-1,57
 292 98 292 98 322 92.5 c 128,-1,58
 352 87 352 87 381 78 c 128,-1,59
 410 69 410 69 432 54.5 c 128,-1,60
 454 40 454 40 467.5 19 c 128,-1,61
 481 -2 481 -2 481 -31 c 0,62,63
 481 -66 481 -66 461 -99.5 c 128,-1,64
 441 -133 441 -133 406 -159.5 c 128,-1,65
 371 -186 371 -186 324 -202 c 128,-1,66
 277 -218 277 -218 223 -218 c 0,67,68
 179 -218 179 -218 144.5 -207.5 c 128,-1,69
 110 -197 110 -197 86.5 -178 c 128,-1,70
 63 -159 63 -159 50.5 -133 c 128,-1,71
 38 -107 38 -107 38 -77 c 0,72,73
 38 -56 38 -56 44 -36.5 c 128,-1,74
 50 -17 50 -17 63 -1.5 c 128,-1,75
 76 14 76 14 95.5 25 c 128,-1,76
 115 36 115 36 142 40 c 1,77,78
 140 47 140 47 138.5 52 c 128,-1,79
 137 57 137 57 136 61.5 c 128,-1,80
 135 66 135 66 135 71 c 128,-1,81
 135 76 135 76 135 84 c 0,82,83
 135 103 135 103 146.5 126.5 c 128,-1,84
 158 150 158 150 184 176 c 1,85,86
 160 181 160 181 138 193.5 c 128,-1,87
 116 206 116 206 99 225 c 128,-1,88
 82 244 82 244 72 269 c 128,-1,89
 62 294 62 294 62 324 c 0,90,91
 62 363 62 363 76.5 394 c 128,-1,92
 91 425 91 425 117 446.5 c 128,-1,93
 143 468 143 468 179.5 479.5 c 128,-1,94
 216 491 216 491 260 491 c 0,95,96
 277 491 277 491 293.5 488.5 c 128,-1,97
 310 486 310 486 324.5 481.5 c 128,-1,98
 339 477 339 477 351.5 472 c 128,-1,99
 364 467 364 467 373 463 c 1,100,-1
 507 463 l 1,101,-1
 507 415 l 1,102,-1
 409 416 l 1,42,43
EndSplineSet
EndChar

StartChar: h
Encoding: 104 104 75
Width: 574
Flags: W
LayerCount: 2
Fore
SplineSet
328 0 m 1,0,-1
 328 39 l 1,1,-1
 369 41 l 2,2,3
 377 41 377 41 383.5 46.5 c 128,-1,4
 390 52 390 52 390 61 c 2,5,-1
 390 318 l 2,6,7
 390 339 390 339 385.5 357 c 128,-1,8
 381 375 381 375 370 388 c 128,-1,9
 359 401 359 401 340 408.5 c 128,-1,10
 321 416 321 416 293 416 c 0,11,12
 280 416 280 416 265.5 414 c 128,-1,13
 251 412 251 412 237 408.5 c 128,-1,14
 223 405 223 405 210 400 c 128,-1,15
 197 395 197 395 187 390 c 1,16,-1
 187 62 l 2,17,18
 187 53 187 53 192 47.5 c 128,-1,19
 197 42 197 42 206 42 c 2,20,-1
 248 40 l 1,21,-1
 248 1 l 1,22,-1
 23 1 l 1,23,-1
 23 40 l 1,24,-1
 70 42 l 2,25,26
 79 42 79 42 84.5 47.5 c 128,-1,27
 90 53 90 53 90 62 c 2,28,-1
 90 663 l 1,29,-1
 16 663 l 1,30,-1
 16 696 l 1,31,-1
 143 734 l 1,32,-1
 183 734 l 1,33,-1
 183 430 l 1,34,35
 196 438 196 438 216 448.5 c 128,-1,36
 236 459 236 459 258.5 468.5 c 128,-1,37
 281 478 281 478 304 484.5 c 128,-1,38
 327 491 327 491 346 491 c 0,39,40
 374 491 374 491 398.5 482 c 128,-1,41
 423 473 423 473 441 454.5 c 128,-1,42
 459 436 459 436 469 407.5 c 128,-1,43
 479 379 479 379 479 341 c 2,44,-1
 479 63 l 2,45,46
 479 54 479 54 485.5 48.5 c 128,-1,47
 492 43 492 43 500 43 c 2,48,-1
 544 41 l 1,49,-1
 544 2 l 1,50,-1
 328 0 l 1,0,-1
EndSplineSet
EndChar

StartChar: i
Encoding: 105 105 76
Width: 303
Flags: W
LayerCount: 2
Fore
SplineSet
34 0 m 1,0,-1
 34 39 l 1,1,-1
 82 41 l 2,2,3
 91 41 91 41 96.5 46.5 c 128,-1,4
 102 52 102 52 102 61 c 2,5,-1
 102 417 l 1,6,-1
 34 417 l 1,7,-1
 34 452 l 1,8,-1
 156 490 l 1,9,-1
 195 490 l 1,10,-1
 195 60 l 2,11,12
 195 51 195 51 201 45.5 c 128,-1,13
 207 40 207 40 215 40 c 2,14,-1
 266 38 l 1,15,-1
 266 -1 l 1,16,-1
 34 0 l 1,0,-1
215 645 m 256,17,18
 215 633 215 633 210.5 622 c 128,-1,19
 206 611 206 611 198 603 c 128,-1,20
 190 595 190 595 179.5 590.5 c 128,-1,21
 169 586 169 586 157 586 c 256,22,23
 145 586 145 586 134 590.5 c 128,-1,24
 123 595 123 595 115 603 c 128,-1,25
 107 611 107 611 102.5 622 c 128,-1,26
 98 633 98 633 98 645 c 256,27,28
 98 657 98 657 102.5 668 c 128,-1,29
 107 679 107 679 115 687 c 128,-1,30
 123 695 123 695 134 699.5 c 128,-1,31
 145 704 145 704 157 704 c 256,32,33
 169 704 169 704 179.5 699.5 c 128,-1,34
 190 695 190 695 198 687 c 128,-1,35
 206 679 206 679 210.5 668 c 128,-1,36
 215 657 215 657 215 645 c 256,17,18
EndSplineSet
EndChar

StartChar: j
Encoding: 106 106 77
Width: 291
Flags: W
LayerCount: 2
Fore
SplineSet
202 63 m 2,0,1
 202 41 202 41 201 14.5 c 128,-1,2
 200 -12 200 -12 196 -38.5 c 128,-1,3
 192 -65 192 -65 184.5 -90 c 128,-1,4
 177 -115 177 -115 165 -135 c 0,5,6
 135 -182 135 -182 91.5 -204.5 c 128,-1,7
 48 -227 48 -227 1 -227 c 0,8,9
 -14 -227 -14 -227 -27.5 -224 c 128,-1,10
 -41 -221 -41 -221 -51 -214.5 c 128,-1,11
 -61 -208 -61 -208 -67 -198 c 128,-1,12
 -73 -188 -73 -188 -73 -174 c 0,13,14
 -73 -162 -73 -162 -69.5 -152.5 c 128,-1,15
 -66 -143 -66 -143 -60 -136 c 128,-1,16
 -54 -129 -54 -129 -46.5 -124.5 c 128,-1,17
 -39 -120 -39 -120 -32 -118 c 1,18,-1
 65 -184 l 1,19,20
 78 -177 78 -177 87 -162 c 128,-1,21
 96 -147 96 -147 101.5 -126 c 128,-1,22
 107 -105 107 -105 109 -79 c 128,-1,23
 111 -53 111 -53 111 -25 c 2,24,-1
 111 418 l 1,25,-1
 41 418 l 1,26,-1
 41 451 l 1,27,-1
 164 489 l 1,28,-1
 205 489 l 1,29,-1
 202 63 l 2,0,1
215 641 m 256,30,31
 215 629 215 629 210.5 618 c 128,-1,32
 206 607 206 607 198 599 c 128,-1,33
 190 591 190 591 179 586.5 c 128,-1,34
 168 582 168 582 156 582 c 256,35,36
 144 582 144 582 133 586.5 c 128,-1,37
 122 591 122 591 113.5 599 c 128,-1,38
 105 607 105 607 100.5 618 c 128,-1,39
 96 629 96 629 96 641 c 256,40,41
 96 653 96 653 100.5 664 c 128,-1,42
 105 675 105 675 113.5 683 c 128,-1,43
 122 691 122 691 133 695.5 c 128,-1,44
 144 700 144 700 156 700 c 256,45,46
 168 700 168 700 179 695.5 c 128,-1,47
 190 691 190 691 198 683 c 128,-1,48
 206 675 206 675 210.5 664 c 128,-1,49
 215 653 215 653 215 641 c 256,30,31
EndSplineSet
EndChar

StartChar: k
Encoding: 107 107 78
Width: 534
Flags: W
LayerCount: 2
Fore
SplineSet
363 0 m 1,0,-1
 363 39 l 1,1,-1
 238 226 l 1,2,-1
 183 226 l 1,3,-1
 183 63 l 2,4,5
 183 54 183 54 188.5 48.5 c 128,-1,6
 194 43 194 43 203 43 c 2,7,-1
 245 41 l 1,8,-1
 245 2 l 1,9,-1
 18 2 l 1,10,-1
 18 41 l 1,11,-1
 66 43 l 2,12,13
 75 43 75 43 80.5 48.5 c 128,-1,14
 86 54 86 54 86 63 c 2,15,-1
 86 664 l 1,16,-1
 11 664 l 1,17,-1
 11 697 l 1,18,-1
 138 735 l 1,19,-1
 179 735 l 1,20,-1
 179 255 l 1,21,-1
 199 255 l 1,22,-1
 345 421 l 2,23,24
 348 425 348 425 345.5 430.5 c 128,-1,25
 343 436 343 436 337 436 c 2,26,-1
 296 439 l 1,27,-1
 296 478 l 1,28,-1
 490 478 l 1,29,-1
 490 439 l 1,30,-1
 427 433 l 1,31,-1
 295 292 l 1,32,-1
 467 42 l 1,33,-1
 519 37 l 1,34,-1
 519 -2 l 1,35,-1
 363 0 l 1,0,-1
EndSplineSet
EndChar

StartChar: l
Encoding: 108 108 79
Width: 296
Flags: W
LayerCount: 2
Fore
SplineSet
26 0 m 1,0,-1
 26 39 l 1,1,-1
 79 41 l 2,2,3
 85 41 85 41 92.5 48 c 128,-1,4
 100 55 100 55 100 61 c 2,5,-1
 100 663 l 1,6,-1
 24 663 l 1,7,-1
 24 696 l 1,8,-1
 151 734 l 1,9,-1
 192 734 l 1,10,-1
 192 61 l 2,11,12
 192 55 192 55 199 48 c 128,-1,13
 206 41 206 41 212 41 c 2,14,-1
 266 39 l 1,15,-1
 266 0 l 1,16,-1
 26 0 l 1,0,-1
EndSplineSet
EndChar

StartChar: m
Encoding: 109 109 80
Width: 850
Flags: W
LayerCount: 2
Fore
SplineSet
604 0 m 1,0,-1
 604 39 l 1,1,-1
 645 41 l 2,2,3
 654 41 654 41 659.5 46.5 c 128,-1,4
 665 52 665 52 665 61 c 2,5,-1
 665 315 l 2,6,7
 665 338 665 338 661 356.5 c 128,-1,8
 657 375 657 375 647 388 c 128,-1,9
 637 401 637 401 620 408 c 128,-1,10
 603 415 603 415 579 415 c 0,11,12
 567 415 567 415 553.5 413 c 128,-1,13
 540 411 540 411 526.5 407.5 c 128,-1,14
 513 404 513 404 500 399 c 128,-1,15
 487 394 487 394 476 389 c 1,16,-1
 476 60 l 2,17,18
 476 51 476 51 481.5 45.5 c 128,-1,19
 487 40 487 40 496 40 c 2,20,-1
 537 38 l 1,21,-1
 537 -1 l 1,22,-1
 318 -1 l 1,23,-1
 318 38 l 1,24,-1
 359 40 l 2,25,26
 368 40 368 40 373.5 45.5 c 128,-1,27
 379 51 379 51 379 60 c 2,28,-1
 379 321 l 2,29,30
 379 341 379 341 374.5 358.5 c 128,-1,31
 370 376 370 376 360 388 c 128,-1,32
 350 400 350 400 333.5 407 c 128,-1,33
 317 414 317 414 294 414 c 0,34,35
 280 414 280 414 265 411.5 c 128,-1,36
 250 409 250 409 236 405 c 128,-1,37
 222 401 222 401 210 396 c 128,-1,38
 198 391 198 391 190 387 c 1,39,-1
 190 59 l 2,40,41
 190 50 190 50 195.5 44.5 c 128,-1,42
 201 39 201 39 210 39 c 2,43,-1
 251 37 l 1,44,-1
 251 -2 l 1,45,-1
 25 -2 l 1,46,-1
 25 37 l 1,47,-1
 73 39 l 2,48,49
 82 39 82 39 87.5 44.5 c 128,-1,50
 93 50 93 50 93 59 c 2,51,-1
 93 406 l 1,52,-1
 25 406 l 1,53,-1
 25 438 l 1,54,-1
 146 476 l 1,55,-1
 187 476 l 1,56,-1
 187 427 l 1,57,58
 203 437 203 437 223 447.5 c 128,-1,59
 243 458 243 458 264 467 c 128,-1,60
 285 476 285 476 306.5 481.5 c 128,-1,61
 328 487 328 487 347 487 c 0,62,63
 368 487 368 487 385.5 481 c 128,-1,64
 403 475 403 475 416 465 c 128,-1,65
 429 455 429 455 439 443 c 128,-1,66
 449 431 449 431 455 419 c 1,67,68
 470 428 470 428 491 440 c 128,-1,69
 512 452 512 452 535.5 462 c 128,-1,70
 559 472 559 472 582.5 479 c 128,-1,71
 606 486 606 486 626 486 c 0,72,73
 665 486 665 486 689.5 472 c 128,-1,74
 714 458 714 458 728 436 c 128,-1,75
 742 414 742 414 747 387 c 128,-1,76
 752 360 752 360 752 335 c 2,77,-1
 752 59 l 2,78,79
 752 50 752 50 758 44.5 c 128,-1,80
 764 39 764 39 772 39 c 2,81,-1
 820 37 l 1,82,-1
 820 -2 l 1,83,-1
 604 0 l 1,0,-1
EndSplineSet
EndChar

StartChar: n
Encoding: 110 110 81
Width: 566
Flags: W
LayerCount: 2
Fore
SplineSet
326 0 m 1,0,-1
 326 39 l 1,1,-1
 367 41 l 2,2,3
 375 41 375 41 381 46.5 c 128,-1,4
 387 52 387 52 387 61 c 2,5,-1
 387 321 l 2,6,7
 387 368 387 368 365.5 392.5 c 128,-1,8
 344 417 344 417 292 417 c 0,9,10
 264 417 264 417 236.5 409 c 128,-1,11
 209 401 209 401 184 389 c 1,12,-1
 184 61 l 2,13,14
 184 52 184 52 189.5 46.5 c 128,-1,15
 195 41 195 41 204 41 c 2,16,-1
 245 39 l 1,17,-1
 245 0 l 1,18,-1
 19 0 l 1,19,-1
 19 39 l 1,20,-1
 67 41 l 2,21,22
 76 41 76 41 81.5 46.5 c 128,-1,23
 87 52 87 52 87 61 c 2,24,-1
 87 408 l 1,25,-1
 18 408 l 1,26,-1
 18 440 l 1,27,-1
 140 478 l 1,28,-1
 181 478 l 1,29,-1
 181 429 l 1,30,31
 201 440 201 440 222.5 451 c 128,-1,32
 244 462 244 462 265 470.5 c 128,-1,33
 286 479 286 479 306 484 c 128,-1,34
 326 489 326 489 343 489 c 0,35,36
 408 489 408 489 442 448.5 c 128,-1,37
 476 408 476 408 476 335 c 2,38,-1
 476 60 l 2,39,40
 476 51 476 51 482 45.5 c 128,-1,41
 488 40 488 40 496 40 c 2,42,-1
 539 38 l 1,43,-1
 539 -1 l 1,44,-1
 326 0 l 1,0,-1
EndSplineSet
EndChar

StartChar: o
Encoding: 111 111 82
Width: 543
Flags: W
LayerCount: 2
Fore
SplineSet
405 241 m 1,0,1
 405 282 405 282 397 319.5 c 128,-1,2
 389 357 389 357 372.5 385.5 c 128,-1,3
 356 414 356 414 331.5 431 c 128,-1,4
 307 448 307 448 274 448 c 0,5,6
 240 448 240 448 215 431 c 128,-1,7
 190 414 190 414 174 385.5 c 128,-1,8
 158 357 158 357 150.5 319.5 c 128,-1,9
 143 282 143 282 143 241 c 0,10,11
 143 201 143 201 151 163.5 c 128,-1,12
 159 126 159 126 175.5 97.5 c 128,-1,13
 192 69 192 69 216.5 52 c 128,-1,14
 241 35 241 35 274 35 c 0,15,16
 308 35 308 35 333 52 c 128,-1,17
 358 69 358 69 374 97.5 c 128,-1,18
 390 126 390 126 398 163.5 c 128,-1,19
 406 201 406 201 405 241 c 1,0,1
510 241 m 0,20,21
 510 188 510 188 493.5 142 c 128,-1,22
 477 96 477 96 446 62.5 c 128,-1,23
 415 29 415 29 371 9.5 c 128,-1,24
 327 -10 327 -10 273 -10 c 256,25,26
 219 -10 219 -10 175.5 9 c 128,-1,27
 132 28 132 28 101.5 61.5 c 128,-1,28
 71 95 71 95 55 141 c 128,-1,29
 39 187 39 187 39 241 c 0,30,31
 39 294 39 294 55.5 340 c 128,-1,32
 72 386 72 386 103 420 c 128,-1,33
 134 454 134 454 178 473.5 c 128,-1,34
 222 493 222 493 277 493 c 256,35,36
 332 493 332 493 375.5 473 c 128,-1,37
 419 453 419 453 449 419 c 128,-1,38
 479 385 479 385 494.5 339 c 128,-1,39
 510 293 510 293 510 241 c 0,20,21
EndSplineSet
EndChar

StartChar: p
Encoding: 112 112 83
Width: 559
Flags: W
LayerCount: 2
Fore
SplineSet
424 233 m 1,0,1
 424 271 424 271 415 305 c 128,-1,2
 406 339 406 339 388.5 365 c 128,-1,3
 371 391 371 391 345 406 c 128,-1,4
 319 421 319 421 285 421 c 0,5,6
 266 421 266 421 248 416.5 c 128,-1,7
 230 412 230 412 216 407 c 0,8,9
 200 401 200 401 185 393 c 1,10,-1
 185 49 l 1,11,12
 196 45 196 45 209 42 c 0,13,14
 220 40 220 40 234.5 38 c 128,-1,15
 249 36 249 36 264 36 c 0,16,17
 305 36 305 36 335 52.5 c 128,-1,18
 365 69 365 69 384.5 96.5 c 128,-1,19
 404 124 404 124 413.5 160 c 128,-1,20
 423 196 423 196 424 233 c 1,0,1
523 249 m 1,21,22
 523 190 523 190 506 142 c 128,-1,23
 489 94 489 94 457 60.5 c 128,-1,24
 425 27 425 27 378 8.5 c 128,-1,25
 331 -10 331 -10 272 -10 c 0,26,27
 259 -10 259 -10 243.5 -9 c 128,-1,28
 228 -8 228 -8 215 -7 c 0,29,30
 200 -6 200 -6 185 -4 c 1,31,-1
 185 -152 l 2,32,33
 185 -161 185 -161 191 -166 c 128,-1,34
 197 -171 197 -171 206 -171 c 2,35,-1
 265 -177 l 1,36,-1
 265 -215 l 1,37,-1
 22 -215 l 1,38,-1
 22 -177 l 1,39,-1
 69 -171 l 1,40,41
 78 -171 78 -171 83.5 -166 c 128,-1,42
 89 -161 89 -161 89 -152 c 2,43,-1
 89 410 l 1,44,-1
 21 410 l 1,45,-1
 21 442 l 1,46,-1
 144 480 l 1,47,-1
 183 480 l 1,48,-1
 183 431 l 1,49,50
 204 448 204 448 228 461 c 0,51,52
 248 472 248 472 275 481.5 c 128,-1,53
 302 491 302 491 331 491 c 0,54,55
 369 491 369 491 403.5 473.5 c 128,-1,56
 438 456 438 456 464 424 c 128,-1,57
 490 392 490 392 505 347 c 128,-1,58
 520 302 520 302 523 249 c 1,21,22
EndSplineSet
EndChar

StartChar: q
Encoding: 113 113 84
Width: 548
Flags: W
LayerCount: 2
Fore
SplineSet
372 437 m 1,0,1
 359 439 359 439 342 443 c 128,-1,2
 325 447 325 447 305 447 c 0,3,4
 264 447 264 447 233 432.5 c 128,-1,5
 202 418 202 418 181 391.5 c 128,-1,6
 160 365 160 365 149.5 328 c 128,-1,7
 139 291 139 291 139 246 c 0,8,9
 139 208 139 208 147.5 172.5 c 128,-1,10
 156 137 156 137 174 110 c 128,-1,11
 192 83 192 83 220.5 66.5 c 128,-1,12
 249 50 249 50 289 50 c 0,13,14
 298 50 298 50 309 51 c 128,-1,15
 320 52 320 52 331.5 53.5 c 128,-1,16
 343 55 343 55 353.5 57.5 c 128,-1,17
 364 60 364 60 372 62 c 1,18,-1
 372 437 l 1,0,1
292 -216 m 1,19,-1
 292 -179 l 1,20,-1
 351 -174 l 2,21,22
 359 -174 359 -174 365 -169 c 128,-1,23
 371 -164 371 -164 371 -155 c 2,24,-1
 371 25 l 1,25,26
 357 19 357 19 340 12.5 c 128,-1,27
 323 6 323 6 304.5 0.5 c 128,-1,28
 286 -5 286 -5 267.5 -8.5 c 128,-1,29
 249 -12 249 -12 233 -12 c 0,30,31
 187 -12 187 -12 150.5 7 c 128,-1,32
 114 26 114 26 89 58.5 c 128,-1,33
 64 91 64 91 50.5 134.5 c 128,-1,34
 37 178 37 178 37 227 c 0,35,36
 37 288 37 288 56.5 337 c 128,-1,37
 76 386 76 386 113 420 c 128,-1,38
 150 454 150 454 203.5 472.5 c 128,-1,39
 257 491 257 491 325 491 c 0,40,41
 338 491 338 491 356 490 c 128,-1,42
 374 489 374 489 393 487.5 c 128,-1,43
 412 486 412 486 431 483 c 128,-1,44
 450 480 450 480 465 477 c 1,45,-1
 465 -154 l 2,46,47
 465 -163 465 -163 471 -168 c 128,-1,48
 477 -173 477 -173 485 -174 c 2,49,-1
 533 -179 l 1,50,-1
 533 -216 l 1,51,-1
 292 -216 l 1,19,-1
EndSplineSet
EndChar

StartChar: r
Encoding: 114 114 85
Width: 391
Flags: W
LayerCount: 2
Fore
SplineSet
341 379 m 1,0,1
 332 390 332 390 319.5 398 c 128,-1,2
 307 406 307 406 289 406 c 0,3,4
 265 406 265 406 240.5 390 c 128,-1,5
 216 374 216 374 191 345 c 1,6,-1
 191 64 l 2,7,8
 191 55 191 55 196.5 49.5 c 128,-1,9
 202 44 202 44 211 44 c 2,10,-1
 276 42 l 1,11,-1
 276 3 l 1,12,-1
 26 3 l 1,13,-1
 26 41 l 1,14,-1
 75 44 l 2,15,16
 83 44 83 44 89 49.5 c 128,-1,17
 95 55 95 55 95 64 c 2,18,-1
 95 411 l 1,19,-1
 23 411 l 1,20,-1
 23 443 l 1,21,-1
 147 481 l 1,22,-1
 188 481 l 1,23,-1
 188 393 l 1,24,25
 198 404 198 404 213 421 c 128,-1,26
 228 438 228 438 245.5 454 c 128,-1,27
 263 470 263 470 281.5 481 c 128,-1,28
 300 492 300 492 317 492 c 0,29,30
 324 492 324 492 332.5 491 c 128,-1,31
 341 490 341 490 349 488 c 128,-1,32
 357 486 357 486 364 483.5 c 128,-1,33
 371 481 371 481 375 479 c 1,34,-1
 375 380 l 1,35,-1
 341 379 l 1,0,1
EndSplineSet
EndChar

StartChar: s
Encoding: 115 115 86
Width: 397
Flags: W
LayerCount: 2
Fore
SplineSet
363 145 m 1,0,1
 363 109 363 109 350 80 c 128,-1,2
 337 51 337 51 313 31 c 128,-1,3
 289 11 289 11 253.5 0.5 c 128,-1,4
 218 -10 218 -10 174 -10 c 0,5,6
 152 -10 152 -10 130.5 -7.5 c 128,-1,7
 109 -5 109 -5 91 -1 c 128,-1,8
 73 3 73 3 59 7 c 128,-1,9
 45 11 45 11 38 13 c 1,10,-1
 38 145 l 1,11,-1
 88 145 l 1,12,-1
 100 61 l 1,13,14
 115 52 115 52 137 43 c 128,-1,15
 159 34 159 34 188 34 c 0,16,17
 209 34 209 34 225.5 40.5 c 128,-1,18
 242 47 242 47 253 57.5 c 128,-1,19
 264 68 264 68 270 81.5 c 128,-1,20
 276 95 276 95 276 110 c 0,21,22
 276 130 276 130 268 144.5 c 128,-1,23
 260 159 260 159 244.5 170.5 c 128,-1,24
 229 182 229 182 206.5 193 c 128,-1,25
 184 204 184 204 156 218 c 0,26,27
 129 231 129 231 108.5 243.5 c 128,-1,28
 88 256 88 256 74 270.5 c 128,-1,29
 60 285 60 285 53 302.5 c 128,-1,30
 46 320 46 320 46 342 c 0,31,32
 46 375 46 375 57.5 401.5 c 128,-1,33
 69 428 69 428 91.5 446.5 c 128,-1,34
 114 465 114 465 147 475 c 128,-1,35
 180 485 180 485 223 485 c 0,36,37
 244 485 244 485 264 483 c 128,-1,38
 284 481 284 481 300.5 478 c 128,-1,39
 317 475 317 475 329.5 471.5 c 128,-1,40
 342 468 342 468 349 465 c 1,41,-1
 349 347 l 1,42,-1
 297 347 l 1,43,-1
 290 416 l 1,44,45
 280 424 280 424 259.5 431 c 128,-1,46
 239 438 239 438 216 438 c 0,47,48
 175 438 175 438 155.5 419.5 c 128,-1,49
 136 401 136 401 136 372 c 0,50,51
 136 355 136 355 141.5 342.5 c 128,-1,52
 147 330 147 330 159.5 319 c 128,-1,53
 172 308 172 308 193 296.5 c 128,-1,54
 214 285 214 285 245 271 c 0,55,56
 271 260 271 260 292.5 247.5 c 128,-1,57
 314 235 314 235 330 219.5 c 128,-1,58
 346 204 346 204 355 185 c 128,-1,59
 364 166 364 166 363 145 c 1,0,1
EndSplineSet
EndChar

StartChar: t
Encoding: 116 116 87
Width: 339
Flags: W
LayerCount: 2
Fore
SplineSet
333 20 m 1,0,1
 315 11 315 11 294 4 c 0,2,3
 276 -2 276 -2 252 -7 c 128,-1,4
 228 -12 228 -12 202 -12 c 0,5,6
 146 -12 146 -12 121 14 c 128,-1,7
 96 40 96 40 96 99 c 2,8,-1
 96 431 l 1,9,-1
 33 431 l 1,10,-1
 33 463 l 1,11,-1
 101 495 l 1,12,-1
 145 600 l 1,13,-1
 188 600 l 1,14,-1
 188 479 l 1,15,-1
 329 479 l 1,16,-1
 329 430 l 1,17,-1
 188 430 l 1,18,-1
 188 151 l 2,19,20
 188 122 188 122 193 101.5 c 128,-1,21
 198 81 198 81 208 68.5 c 128,-1,22
 218 56 218 56 232.5 50.5 c 128,-1,23
 247 45 247 45 267 45 c 0,24,25
 281 45 281 45 293 47 c 128,-1,26
 305 49 305 49 314 52 c 0,27,28
 324 55 324 55 333 59 c 1,29,-1
 333 20 l 1,0,1
EndSplineSet
EndChar

StartChar: u
Encoding: 117 117 88
Width: 568
Flags: W
LayerCount: 2
Fore
SplineSet
389 0 m 1,0,-1
 389 57 l 1,1,2
 377 48 377 48 359 36 c 128,-1,3
 341 24 341 24 320 14 c 128,-1,4
 299 4 299 4 276 -3 c 128,-1,5
 253 -10 253 -10 232 -10 c 0,6,7
 200 -10 200 -10 174.5 -0.5 c 128,-1,8
 149 9 149 9 131.5 28.5 c 128,-1,9
 114 48 114 48 104.5 78.5 c 128,-1,10
 95 109 95 109 95 151 c 2,11,-1
 95 421 l 1,12,-1
 26 421 l 1,13,-1
 26 455 l 1,14,-1
 149 494 l 1,15,-1
 189 494 l 1,16,-1
 189 169 l 2,17,18
 189 143 189 143 194 122.5 c 128,-1,19
 199 102 199 102 210 87.5 c 128,-1,20
 221 73 221 73 239.5 65.5 c 128,-1,21
 258 58 258 58 284 58 c 0,22,23
 299 58 299 58 314.5 60.5 c 128,-1,24
 330 63 330 63 344 67.5 c 128,-1,25
 358 72 358 72 370 77 c 128,-1,26
 382 82 382 82 390 86 c 1,27,-1
 390 420 l 1,28,-1
 320 420 l 1,29,-1
 320 454 l 1,30,-1
 442 493 l 1,31,-1
 483 493 l 1,32,-1
 483 63 l 2,33,34
 483 54 483 54 489.5 48.5 c 128,-1,35
 496 43 496 43 504 43 c 2,36,-1
 547 41 l 1,37,-1
 547 2 l 1,38,-1
 389 0 l 1,0,-1
EndSplineSet
EndChar

StartChar: v
Encoding: 118 118 89
Width: 528
Flags: W
LayerCount: 2
Fore
SplineSet
465 437 m 1,0,-1
 291 0 l 1,1,-1
 227 0 l 1,2,-1
 66 437 l 1,3,-1
 11 442 l 1,4,-1
 11 481 l 1,5,-1
 232 481 l 1,6,-1
 232 442 l 1,7,-1
 185 440 l 2,8,9
 177 440 177 440 172.5 434 c 128,-1,10
 168 428 168 428 170 420 c 2,11,-1
 281 108 l 1,12,-1
 404 420 l 2,13,14
 407 427 407 427 403 433.5 c 128,-1,15
 399 440 399 440 391 440 c 2,16,-1
 347 442 l 1,17,-1
 347 481 l 1,18,-1
 521 481 l 1,19,-1
 521 442 l 1,20,-1
 465 437 l 1,0,-1
EndSplineSet
EndChar

StartChar: w
Encoding: 119 119 90
Width: 783
Flags: W
LayerCount: 2
Fore
SplineSet
722 437 m 1,0,-1
 585 0 l 1,1,-1
 515 0 l 1,2,-1
 397 374 l 1,3,-1
 266 0 l 1,4,-1
 195 0 l 1,5,-1
 68 437 l 1,6,-1
 13 442 l 1,7,-1
 13 481 l 1,8,-1
 232 481 l 1,9,-1
 232 442 l 1,10,-1
 186 440 l 2,11,12
 178 440 178 440 173.5 434 c 128,-1,13
 169 428 169 428 171 420 c 2,14,-1
 254 109 l 1,15,-1
 382 484 l 1,16,-1
 453 484 l 1,17,-1
 568 109 l 1,18,-1
 660 420 l 2,19,20
 662 427 662 427 658 433.5 c 128,-1,21
 654 440 654 440 646 440 c 2,22,-1
 601 442 l 1,23,-1
 601 481 l 1,24,-1
 775 481 l 1,25,-1
 775 442 l 1,26,-1
 722 437 l 1,0,-1
EndSplineSet
EndChar

StartChar: x
Encoding: 120 120 91
Width: 509
Flags: W
LayerCount: 2
Fore
SplineSet
285 0 m 1,0,-1
 285 39 l 1,1,-1
 318 42 l 2,2,3
 324 42 324 42 326.5 47.5 c 128,-1,4
 329 53 329 53 327 58 c 1,5,-1
 242 185 l 1,6,-1
 144 58 l 2,7,8
 141 54 141 54 142 48 c 128,-1,9
 143 42 143 42 149 42 c 2,10,-1
 199 39 l 1,11,-1
 199 0 l 1,12,-1
 9 0 l 1,13,-1
 9 39 l 1,14,-1
 66 46 l 1,15,-1
 209 232 l 1,16,-1
 74 433 l 1,17,-1
 15 441 l 1,18,-1
 15 480 l 1,19,-1
 234 480 l 1,20,-1
 234 441 l 1,21,-1
 200 437 l 2,22,23
 194 437 194 437 191 431.5 c 128,-1,24
 188 426 188 426 190 421 c 1,25,-1
 269 310 l 1,26,-1
 355 421 l 2,27,28
 358 425 358 425 356.5 431 c 128,-1,29
 355 437 355 437 349 437 c 2,30,-1
 307 441 l 1,31,-1
 307 480 l 1,32,-1
 486 480 l 1,33,-1
 486 441 l 1,34,-1
 433 433 l 1,35,-1
 299 263 l 1,36,-1
 446 47 l 1,37,-1
 500 40 l 1,38,-1
 500 1 l 1,39,-1
 285 0 l 1,0,-1
EndSplineSet
EndChar

StartChar: y
Encoding: 121 121 92
Width: 529
Flags: W
LayerCount: 2
Fore
SplineSet
467 437 m 1,0,-1
 276 -30 l 2,1,2
 272 -42 272 -42 263.5 -62.5 c 128,-1,3
 255 -83 255 -83 243.5 -106 c 128,-1,4
 232 -129 232 -129 218 -151 c 128,-1,5
 204 -173 204 -173 189 -188 c 0,6,7
 171 -206 171 -206 149.5 -216 c 128,-1,8
 128 -226 128 -226 103 -226 c 0,9,10
 86 -226 86 -226 72.5 -221.5 c 128,-1,11
 59 -217 59 -217 50 -209.5 c 128,-1,12
 41 -202 41 -202 36.5 -192 c 128,-1,13
 32 -182 32 -182 32 -171 c 0,14,15
 32 -154 32 -154 39.5 -140 c 128,-1,16
 47 -126 47 -126 64 -112 c 1,17,-1
 157 -154 l 1,18,19
 169 -142 169 -142 181.5 -122.5 c 128,-1,20
 194 -103 194 -103 205 -81.5 c 128,-1,21
 216 -60 216 -60 225 -38.5 c 128,-1,22
 234 -17 234 -17 239 -1 c 1,23,-1
 70 435 l 1,24,-1
 15 440 l 1,25,-1
 15 479 l 1,26,-1
 236 479 l 1,27,-1
 236 440 l 1,28,-1
 189 438 l 2,29,30
 181 438 181 438 176.5 432 c 128,-1,31
 172 426 172 426 174 418 c 1,32,-1
 290 124 l 1,33,-1
 408 418 l 2,34,35
 411 425 411 425 407 431.5 c 128,-1,36
 403 438 403 438 395 438 c 2,37,-1
 348 440 l 1,38,-1
 348 479 l 1,39,-1
 526 479 l 1,40,-1
 526 440 l 1,41,-1
 467 437 l 1,0,-1
EndSplineSet
EndChar

StartChar: z
Encoding: 122 122 93
Width: 461
Flags: W
LayerCount: 2
Fore
SplineSet
34 0 m 1,0,-1
 34 53 l 1,1,-1
 298 434 l 1,2,-1
 125 434 l 2,3,4
 118 434 118 434 112.5 427 c 128,-1,5
 107 420 107 420 106 414 c 2,6,-1
 97 340 l 1,7,-1
 46 340 l 1,8,-1
 46 482 l 1,9,-1
 416 482 l 1,10,-1
 416 441 l 1,11,-1
 143 48 l 1,12,-1
 344 48 l 2,13,14
 347 48 347 48 350.5 50 c 128,-1,15
 354 52 354 52 357 55 c 128,-1,16
 360 58 360 58 362 62 c 128,-1,17
 364 66 364 66 364 69 c 2,18,-1
 374 148 l 1,19,-1
 428 148 l 1,20,-1
 428 -2 l 1,21,-1
 34 0 l 1,0,-1
EndSplineSet
EndChar

StartChar: braceleft
Encoding: 123 123 94
Width: 487
Flags: W
LayerCount: 2
Fore
SplineSet
418 -123 m 1,0,1
 392 -123 392 -123 366.5 -121.5 c 128,-1,2
 341 -120 341 -120 318.5 -115 c 128,-1,3
 296 -110 296 -110 277.5 -102 c 128,-1,4
 259 -94 259 -94 247 -81 c 0,5,6
 230 -64 230 -64 222 -43.5 c 128,-1,7
 214 -23 214 -23 210.5 -0.5 c 128,-1,8
 207 22 207 22 207 45 c 2,9,-1
 207 130 l 2,10,11
 207 150 207 150 205 169.5 c 128,-1,12
 203 189 203 189 197.5 206.5 c 128,-1,13
 192 224 192 224 181 235 c 0,14,15
 173 243 173 243 162 248 c 128,-1,16
 151 253 151 253 137.5 255.5 c 128,-1,17
 124 258 124 258 107 258.5 c 128,-1,18
 90 259 90 259 69 259 c 1,19,-1
 69 303 l 1,20,21
 90 303 90 303 107 303.5 c 128,-1,22
 124 304 124 304 137.5 306.5 c 128,-1,23
 151 309 151 309 162 314 c 128,-1,24
 173 319 173 319 181 327 c 0,25,26
 192 338 192 338 197.5 355.5 c 128,-1,27
 203 373 203 373 205 392.5 c 128,-1,28
 207 412 207 412 207 432 c 2,29,-1
 207 517 l 2,30,31
 207 541 207 541 210.5 563.5 c 128,-1,32
 214 586 214 586 222 606.5 c 128,-1,33
 230 627 230 627 247 644 c 0,34,35
 259 657 259 657 277.5 665 c 128,-1,36
 296 673 296 673 318.5 678 c 128,-1,37
 341 683 341 683 366.5 684.5 c 128,-1,38
 392 686 392 686 418 686 c 1,39,-1
 418 645 l 1,40,41
 412 645 412 645 399 644.5 c 128,-1,42
 386 644 386 644 371 641.5 c 128,-1,43
 356 639 356 639 341.5 633 c 128,-1,44
 327 627 327 627 318 617 c 0,45,46
 308 606 308 606 303 589.5 c 128,-1,47
 298 573 298 573 296.5 553.5 c 128,-1,48
 295 534 295 534 295 513 c 128,-1,49
 295 492 295 492 295 472 c 0,50,51
 295 455 295 455 294.5 436.5 c 128,-1,52
 294 418 294 418 291.5 400 c 128,-1,53
 289 382 289 382 283.5 366 c 128,-1,54
 278 350 278 350 268 338 c 0,55,56
 248 313 248 313 220.5 301 c 128,-1,57
 193 289 193 289 163 283 c 1,58,59
 193 277 193 277 220.5 264.5 c 128,-1,60
 248 252 248 252 268 227 c 0,61,62
 278 215 278 215 283.5 199 c 128,-1,63
 289 183 289 183 291.5 165 c 128,-1,64
 294 147 294 147 294.5 128.5 c 128,-1,65
 295 110 295 110 295 93 c 0,66,67
 295 73 295 73 295 52 c 128,-1,68
 295 31 295 31 296.5 11.5 c 128,-1,69
 298 -8 298 -8 303 -24.5 c 128,-1,70
 308 -41 308 -41 318 -52 c 0,71,72
 327 -62 327 -62 341.5 -68 c 128,-1,73
 356 -74 356 -74 371 -76.5 c 128,-1,74
 386 -79 386 -79 399 -79.5 c 128,-1,75
 412 -80 412 -80 418 -80 c 1,76,-1
 418 -123 l 1,0,1
EndSplineSet
EndChar

StartChar: glyph95
Encoding: 124 124 95
Width: 353
Flags: W
LayerCount: 2
Fore
SplineSet
146 -257 m 1,0,-1
 146 796 l 1,1,-1
 206 796 l 1,2,-1
 206 -257 l 1,3,-1
 146 -257 l 1,0,-1
EndSplineSet
EndChar

StartChar: glyph96
Encoding: 125 125 96
Width: 487
Flags: W
LayerCount: 2
Fore
SplineSet
428 268 m 1,0,1
 385 268 385 268 358 263.5 c 128,-1,2
 331 259 331 259 313 242 c 0,3,4
 302 231 302 231 296.5 213.5 c 128,-1,5
 291 196 291 196 289 176.5 c 128,-1,6
 287 157 287 157 287 137 c 2,7,-1
 287 52 l 2,8,9
 287 29 287 29 283.5 6.5 c 128,-1,10
 280 -16 280 -16 271.5 -36.5 c 128,-1,11
 263 -57 263 -57 247 -74 c 0,12,13
 235 -87 235 -87 216.5 -95 c 128,-1,14
 198 -103 198 -103 175.5 -108 c 128,-1,15
 153 -113 153 -113 127.5 -114.5 c 128,-1,16
 102 -116 102 -116 76 -116 c 1,17,-1
 76 -75 l 1,18,19
 82 -75 82 -75 95 -74.5 c 128,-1,20
 108 -74 108 -74 123 -71.5 c 128,-1,21
 138 -69 138 -69 152.5 -63 c 128,-1,22
 167 -57 167 -57 176 -47 c 0,23,24
 186 -36 186 -36 190.5 -19.5 c 128,-1,25
 195 -3 195 -3 196.5 16.5 c 128,-1,26
 198 36 198 36 198 57 c 128,-1,27
 198 78 198 78 198 98 c 0,28,29
 198 115 198 115 198.5 133.5 c 128,-1,30
 199 152 199 152 201.5 170 c 128,-1,31
 204 188 204 188 209.5 204 c 128,-1,32
 215 220 215 220 225 232 c 0,33,34
 244 257 244 257 271.5 269.5 c 128,-1,35
 299 282 299 282 329 288 c 1,36,37
 314 291 314 291 299.5 295 c 128,-1,38
 285 299 285 299 271.5 305.5 c 128,-1,39
 258 312 258 312 246.5 321 c 128,-1,40
 235 330 235 330 226 342 c 0,41,42
 216 354 216 354 210.5 370 c 128,-1,43
 205 386 205 386 202.5 404 c 128,-1,44
 200 422 200 422 199.5 440.5 c 128,-1,45
 199 459 199 459 199 476 c 0,46,47
 199 496 199 496 199 517 c 128,-1,48
 199 538 199 538 197.5 557.5 c 128,-1,49
 196 577 196 577 191.5 593.5 c 128,-1,50
 187 610 187 610 177 621 c 0,51,52
 168 631 168 631 153.5 637 c 128,-1,53
 139 643 139 643 124 645.5 c 128,-1,54
 109 648 109 648 96 648.5 c 128,-1,55
 83 649 83 649 77 649 c 1,56,-1
 77 690 l 1,57,58
 103 690 103 690 128.5 688.5 c 128,-1,59
 154 687 154 687 176.5 682 c 128,-1,60
 199 677 199 677 217.5 669 c 128,-1,61
 236 661 236 661 248 648 c 0,62,63
 264 631 264 631 272.5 610.5 c 128,-1,64
 281 590 281 590 284.5 567.5 c 128,-1,65
 288 545 288 545 288 521 c 2,66,-1
 288 436 l 2,67,68
 288 416 288 416 290 396.5 c 128,-1,69
 292 377 292 377 297.5 359.5 c 128,-1,70
 303 342 303 342 314 331 c 0,71,72
 332 314 332 314 359 309.5 c 128,-1,73
 386 305 386 305 429 305 c 1,74,-1
 428 268 l 1,0,1
EndSplineSet
EndChar

StartChar: asciitilde
Encoding: 126 126 97
Width: 833
Flags: W
LayerCount: 2
Fore
SplineSet
747 306 m 1,0,1
 719 286 719 286 694.5 273 c 128,-1,2
 670 260 670 260 647.5 252 c 128,-1,3
 625 244 625 244 604 241 c 128,-1,4
 583 238 583 238 562 238 c 0,5,6
 527 238 527 238 492 248 c 128,-1,7
 457 258 457 258 421.5 270.5 c 128,-1,8
 386 283 386 283 349.5 293 c 128,-1,9
 313 303 313 303 275 303 c 256,10,11
 237 303 237 303 189.5 282.5 c 128,-1,12
 142 262 142 262 92 226 c 1,13,-1
 92 290 l 1,14,15
 145 328 145 328 192.5 344 c 128,-1,16
 240 360 240 360 280 360 c 0,17,18
 316 360 316 360 352.5 350 c 128,-1,19
 389 340 389 340 425 328 c 128,-1,20
 461 316 461 316 495.5 306 c 128,-1,21
 530 296 530 296 562 296 c 0,22,23
 597 296 597 296 642.5 312.5 c 128,-1,24
 688 329 688 329 748 372 c 1,25,-1
 747 306 l 1,0,1
EndSplineSet
EndChar

StartChar: quoteleft
Encoding: 8216 8216 98
Width: 247
Flags: W
LayerCount: 2
Fore
SplineSet
186 702 m 1,0,1
 174 689 174 689 160 673 c 128,-1,2
 146 657 146 657 134 638 c 128,-1,3
 122 619 122 619 113.5 597.5 c 128,-1,4
 105 576 105 576 105 552 c 0,5,6
 105 548 105 548 105 543 c 128,-1,7
 105 538 105 538 105 535 c 1,8,-1
 167 535 l 1,9,10
 170 530 170 530 173 525 c 0,11,12
 175 520 175 520 177 513 c 128,-1,13
 179 506 179 506 179 498 c 0,14,15
 179 486 179 486 175 475 c 128,-1,16
 171 464 171 464 163.5 456 c 128,-1,17
 156 448 156 448 145.5 443.5 c 128,-1,18
 135 439 135 439 122 439 c 0,19,20
 84 439 84 439 62 463 c 128,-1,21
 40 487 40 487 40 530 c 0,22,23
 40 566 40 566 53 596 c 128,-1,24
 66 626 66 626 84 649.5 c 128,-1,25
 102 673 102 673 120 689 c 128,-1,26
 138 705 138 705 147 713 c 1,27,-1
 186 702 l 1,0,1
EndSplineSet
EndChar

StartChar: quoteright
Encoding: 8217 8217 99
Width: 247
Flags: W
LayerCount: 2
Fore
SplineSet
208 616 m 1,0,1
 208 580 208 580 195 549.5 c 128,-1,2
 182 519 182 519 164 496 c 128,-1,3
 146 473 146 473 128 457 c 128,-1,4
 110 441 110 441 101 433 c 1,5,-1
 64 440 l 1,6,7
 80 456 80 456 95 473.5 c 128,-1,8
 110 491 110 491 121 510 c 128,-1,9
 132 529 132 529 138.5 549 c 128,-1,10
 145 569 145 569 145 590 c 0,11,12
 145 593 145 593 145 598 c 128,-1,13
 145 603 145 603 145 606 c 1,14,-1
 83 606 l 1,15,16
 79 610 79 610 76 616 c 0,17,18
 74 621 74 621 72 628 c 128,-1,19
 70 635 70 635 70 643 c 0,20,21
 70 668 70 668 85.5 685.5 c 128,-1,22
 101 703 101 703 129 703 c 0,23,24
 166 703 166 703 188.5 678.5 c 128,-1,25
 211 654 211 654 208 616 c 1,0,1
EndSplineSet
EndChar

StartChar: quotedblleft
Encoding: 8220 8220 100
Width: 453
Flags: W
LayerCount: 2
Fore
SplineSet
186 702 m 1,0,1
 171 687 171 687 156.5 670.5 c 128,-1,2
 142 654 142 654 130.5 635 c 128,-1,3
 119 616 119 616 112 595.5 c 128,-1,4
 105 575 105 575 105 552 c 0,5,6
 105 547 105 547 105 542.5 c 128,-1,7
 105 538 105 538 105 535 c 1,8,-1
 167 535 l 1,9,10
 170 531 170 531 173 526 c 0,11,12
 175 521 175 521 177 514 c 128,-1,13
 179 507 179 507 179 498 c 0,14,15
 179 486 179 486 175 475 c 128,-1,16
 171 464 171 464 163.5 456 c 128,-1,17
 156 448 156 448 145.5 443.5 c 128,-1,18
 135 439 135 439 122 439 c 0,19,20
 84 439 84 439 62 463.5 c 128,-1,21
 40 488 40 488 40 530 c 0,22,23
 40 566 40 566 53 596.5 c 128,-1,24
 66 627 66 627 84 650 c 128,-1,25
 102 673 102 673 120 689 c 128,-1,26
 138 705 138 705 147 713 c 1,27,-1
 186 702 l 1,0,1
390 707 m 1,28,29
 380 695 380 695 366 679.5 c 128,-1,30
 352 664 352 664 339.5 645 c 128,-1,31
 327 626 327 626 318 604.5 c 128,-1,32
 309 583 309 583 309 558 c 0,33,34
 309 553 309 553 309 548 c 128,-1,35
 309 543 309 543 309 540 c 1,36,-1
 371 540 l 1,37,38
 374 535 374 535 377 530 c 0,39,40
 379 525 379 525 381 518.5 c 128,-1,41
 383 512 383 512 383 504 c 0,42,43
 383 492 383 492 379 481 c 128,-1,44
 375 470 375 470 367.5 462 c 128,-1,45
 360 454 360 454 349 449.5 c 128,-1,46
 338 445 338 445 325 445 c 0,47,48
 286 445 286 445 264.5 470.5 c 128,-1,49
 243 496 243 496 243 538 c 0,50,51
 243 574 243 574 256 604 c 128,-1,52
 269 634 269 634 287 657 c 128,-1,53
 305 680 305 680 323 696 c 128,-1,54
 341 712 341 712 350 720 c 1,55,-1
 390 707 l 1,28,29
EndSplineSet
EndChar

StartChar: quotedblright
Encoding: 8221 8221 101
Width: 453
Flags: W
LayerCount: 2
Fore
SplineSet
208 615 m 1,0,1
 208 579 208 579 195 549 c 128,-1,2
 182 519 182 519 164 496 c 128,-1,3
 146 473 146 473 128 457 c 128,-1,4
 110 441 110 441 101 433 c 1,5,-1
 64 440 l 1,6,7
 74 452 74 452 88 467.5 c 128,-1,8
 102 483 102 483 114.5 501.5 c 128,-1,9
 127 520 127 520 136 541.5 c 128,-1,10
 145 563 145 563 145 587 c 0,11,12
 145 592 145 592 145 597 c 128,-1,13
 145 602 145 602 145 605 c 1,14,-1
 83 605 l 1,15,16
 79 610 79 610 76 616 c 0,17,18
 74 621 74 621 72 628 c 128,-1,19
 70 635 70 635 70 643 c 0,20,21
 70 655 70 655 74 666 c 128,-1,22
 78 677 78 677 86 685 c 128,-1,23
 94 693 94 693 105 697.5 c 128,-1,24
 116 702 116 702 129 702 c 0,25,26
 168 702 168 702 189 677 c 128,-1,27
 210 652 210 652 208 615 c 1,0,1
416 611 m 1,28,29
 416 575 416 575 403 544.5 c 128,-1,30
 390 514 390 514 372 491 c 128,-1,31
 354 468 354 468 336 452 c 128,-1,32
 318 436 318 436 309 428 c 1,33,-1
 272 435 l 1,34,35
 287 450 287 450 301.5 466.5 c 128,-1,36
 316 483 316 483 327.5 501.5 c 128,-1,37
 339 520 339 520 346.5 540.5 c 128,-1,38
 354 561 354 561 354 584 c 0,39,40
 354 589 354 589 353.5 593 c 128,-1,41
 353 597 353 597 353 600 c 1,42,-1
 291 600 l 1,43,44
 287 604 287 604 284 610 c 0,45,46
 282 615 282 615 280 622 c 128,-1,47
 278 629 278 629 278 638 c 0,48,49
 278 663 278 663 294 680 c 128,-1,50
 310 697 310 697 337 697 c 0,51,52
 375 697 375 697 397 672 c 128,-1,53
 419 647 419 647 416 611 c 1,28,29
EndSplineSet
EndChar

StartChar: u0A81
Encoding: 2689 2689 102
Width: 11
Flags: W
LayerCount: 2
Fore
SplineSet
-132 707 m 1,0,-1
 -177 661 l 1,1,-1
 -222 707 l 1,2,-1
 -177 752 l 1,3,-1
 -132 707 l 1,0,-1
-281 718 m 1,4,-1
 -232 668 l 1,5,6
 -249 663 -249 663 -259.5 646 c 128,-1,7
 -270 629 -270 629 -270 610 c 0,8,9
 -270 594 -270 594 -262.5 585 c 128,-1,10
 -255 576 -255 576 -237 576 c 0,11,12
 -181 576 -181 576 -138 617 c 0,13,14
 -103 651 -103 651 -95 690 c 1,15,-1
 -52 613 l 1,16,17
 -75 580 -75 580 -114.5 561 c 128,-1,18
 -154 542 -154 542 -197 542 c 0,19,20
 -259 542 -259 542 -294 572.5 c 128,-1,21
 -329 603 -329 603 -329 643 c 0,22,23
 -329 694 -329 694 -281 718 c 1,4,-1
EndSplineSet
AnchorPoint: "a" -196 511 mark 0
EndChar

StartChar: u0A82
Encoding: 2690 2690 103
Width: 11
Flags: W
LayerCount: 2
Fore
SplineSet
-156 635 m 1,0,-1
 -113 591 l 1,1,-1
 -156 547 l 1,2,-1
 -198 591 l 1,3,-1
 -156 635 l 1,0,-1
EndSplineSet
AnchorPoint: "a" -156 511 basechar 0
EndChar

StartChar: u0A83
Encoding: 2691 2691 104
Width: 279
Flags: W
LayerCount: 2
Fore
SplineSet
103 201 m 0,0,1
 89 201 89 201 78 210 c 0,2,3
 63 222 63 222 63 241 c 0,4,5
 63 259 63 259 74.5 271.5 c 128,-1,6
 86 284 86 284 103 284 c 256,7,8
 120 284 120 284 133 271 c 128,-1,9
 146 258 146 258 146 241 c 0,10,11
 146 223 146 223 132 212 c 128,-1,12
 118 201 118 201 103 201 c 0,0,1
103 -7 m 0,13,14
 89 -7 89 -7 78 2 c 0,15,16
 63 14 63 14 63 32 c 256,17,18
 63 50 63 50 74.5 62.5 c 128,-1,19
 86 75 86 75 103 75 c 256,20,21
 120 75 120 75 133 62 c 128,-1,22
 146 49 146 49 146 32 c 0,23,24
 146 14 146 14 132 3.5 c 128,-1,25
 118 -7 118 -7 103 -7 c 0,13,14
EndSplineSet
EndChar

StartChar: u0A85
Encoding: 2693 2693 105
Width: 715
Flags: W
LayerCount: 2
Fore
SplineSet
467 229 m 1,0,1
 460 228 460 228 456 228 c 0,2,3
 413 228 413 228 384 261 c 1,4,-1
 384 160 l 1,5,6
 377 131 377 131 340 104 c 0,7,8
 296 72 296 72 240 72 c 0,9,10
 183 72 183 72 134 121 c 0,11,12
 94 161 94 161 71 222 c 1,13,14
 38 229 38 229 18.5 251.5 c 128,-1,15
 -1 274 -1 274 -1 303 c 0,16,17
 -1 314 -1 314 2 325.5 c 128,-1,18
 5 337 5 337 15.5 342 c 128,-1,19
 26 347 26 347 37 347 c 0,20,21
 41 347 41 347 45 347 c 1,22,23
 50 345 50 345 52 345 c 0,24,25
 69 341 69 341 83 320 c 128,-1,26
 97 299 97 299 100 278 c 1,27,28
 151 278 151 278 189 304 c 0,29,30
 235 335 235 335 235 389 c 0,31,32
 235 422 235 422 220 456 c 1,33,-1
 73 456 l 1,34,-1
 44 510 l 1,35,-1
 190 510 l 1,36,37
 226 495 226 495 247 456.5 c 128,-1,38
 268 418 268 418 268 371 c 0,39,40
 268 310 268 310 230 269 c 0,41,42
 186 222 186 222 105 222 c 1,43,44
 105 188 105 188 141.5 156 c 128,-1,45
 178 124 178 124 215 124 c 0,46,47
 264 124 264 124 298 149 c 0,48,49
 327 170 327 170 330 197 c 1,50,-1
 330 438 l 1,51,-1
 383 380 l 1,52,-1
 383 294 l 1,53,54
 395 282 395 282 413 282 c 0,55,56
 427 282 427 282 441 289.5 c 128,-1,57
 455 297 455 297 466 309 c 1,58,-1
 466 510 l 1,59,-1
 519 452 l 1,60,-1
 519 51 l 2,61,62
 519 40 519 40 528 40 c 256,63,64
 537 40 537 40 548 52 c 128,-1,65
 559 64 559 64 564 81 c 1,66,-1
 613 24 l 1,67,68
 603 11 603 11 588.5 5.5 c 128,-1,69
 574 0 574 0 554 0 c 0,70,71
 536 0 536 0 519 5 c 0,72,73
 466 20 466 20 466 81 c 2,74,-1
 467 229 l 1,0,1
EndSplineSet
EndChar

StartChar: u0A87
Encoding: 2695 2695 107
Width: 430
Flags: W
LayerCount: 2
Fore
SplineSet
285 39 m 1,0,1
 234 1 234 1 171 1 c 0,2,3
 101 1 101 1 53 49 c 0,4,5
 1 101 1 101 1 189 c 0,6,7
 1 230 1 230 19 261 c 128,-1,8
 37 292 37 292 71 311 c 1,9,10
 2 394 2 394 2 452 c 0,11,12
 2 509 2 509 73 509 c 2,13,-1
 154 509 l 1,14,-1
 170 455 l 1,15,-1
 63 455 l 1,16,17
 50 438 50 438 50 415 c 0,18,19
 50 390 50 390 63 365.5 c 128,-1,20
 76 341 76 341 96 325 c 1,21,22
 111 332 111 332 128 334 c 128,-1,23
 145 336 145 336 167 336 c 2,24,-1
 193 336 l 1,25,-1
 202 278 l 1,26,27
 114 278 114 278 68 242 c 0,28,29
 28 211 28 211 28 162 c 0,30,31
 28 116 28 116 64 79 c 128,-1,32
 100 42 100 42 151 42 c 0,33,34
 178 42 178 42 203.5 51.5 c 128,-1,35
 229 61 229 61 258 84 c 1,36,37
 289 113 289 113 300 157 c 0,38,39
 307 186 307 186 307 239 c 0,40,41
 307 279 307 279 287 353 c 0,42,43
 260 448 260 448 233 542 c 1,44,45
 232 550 232 550 231.5 558.5 c 128,-1,46
 231 567 231 567 231 572 c 0,47,48
 231 610 231 610 244.5 634.5 c 128,-1,49
 258 659 258 659 289 659 c 1,50,-1
 289 603 l 1,51,52
 274 601 274 601 264 590 c 0,53,54
 258 583 258 583 258 574 c 0,55,56
 258 541 258 541 279 468 c 0,57,58
 312 350 312 350 318 327 c 0,59,60
 340 238 340 238 340 183 c 0,61,62
 340 134 340 134 328 99 c 128,-1,63
 316 64 316 64 285 39 c 1,0,1
EndSplineSet
EndChar

StartChar: u0A87.abvm
Encoding: 65539 -1 108
Width: 430
Flags: W
LayerCount: 2
Fore
SplineSet
285 39 m 1,0,1
 234 1 234 1 171 1 c 0,2,3
 101 1 101 1 53 49 c 0,4,5
 1 101 1 101 1 189 c 0,6,7
 1 230 1 230 19 261 c 128,-1,8
 37 292 37 292 71 311 c 1,9,10
 2 394 2 394 2 452 c 0,11,12
 2 509 2 509 73 509 c 2,13,-1
 154 509 l 1,14,-1
 170 455 l 1,15,-1
 63 455 l 1,16,17
 50 438 50 438 50 415 c 0,18,19
 50 390 50 390 63 365.5 c 128,-1,20
 76 341 76 341 96 325 c 1,21,22
 111 332 111 332 128 334 c 128,-1,23
 145 336 145 336 167 336 c 2,24,-1
 193 336 l 1,25,-1
 202 278 l 1,26,27
 114 278 114 278 68 242 c 0,28,29
 28 211 28 211 28 162 c 0,30,31
 28 116 28 116 64 79 c 128,-1,32
 100 42 100 42 151 42 c 0,33,34
 178 42 178 42 203.5 51.5 c 128,-1,35
 229 61 229 61 258 84 c 1,36,37
 289 113 289 113 300 157 c 0,38,39
 307 186 307 186 307 239 c 0,40,41
 307 279 307 279 287 353 c 0,42,43
 260 448 260 448 233 542 c 1,44,45
 232 550 232 550 231.5 558.5 c 128,-1,46
 231 567 231 567 231 572 c 0,47,48
 231 610 231 610 244.5 634.5 c 128,-1,49
 258 659 258 659 289 659 c 1,50,-1
 289 603 l 1,51,52
 274 601 274 601 264 590 c 0,53,54
 258 583 258 583 258 574 c 0,55,56
 258 541 258 541 279 468 c 0,57,58
 312 350 312 350 318 327 c 0,59,60
 340 238 340 238 340 183 c 0,61,62
 340 134 340 134 328 99 c 128,-1,63
 316 64 316 64 285 39 c 1,0,1
133 665 m 1,64,-1
 177 621 l 1,65,-1
 133 577 l 1,66,-1
 91 621 l 1,67,-1
 133 665 l 1,64,-1
EndSplineSet
EndChar

StartChar: u0A88
Encoding: 2696 2696 109
Width: 461
Flags: W
LayerCount: 2
Fore
SplineSet
258 575 m 0,0,1
 258 542 258 542 279 469 c 0,2,3
 312 351 312 351 318 328 c 0,4,5
 340 239 340 239 340 184 c 0,6,7
 340 135 340 135 328 100 c 128,-1,8
 316 65 316 65 285 40 c 1,9,10
 234 2 234 2 171 2 c 0,11,12
 101 2 101 2 53 50 c 0,13,14
 1 102 1 102 1 190 c 0,15,16
 1 231 1 231 19 262 c 128,-1,17
 37 293 37 293 71 312 c 1,18,19
 2 395 2 395 2 453 c 0,20,21
 2 510 2 510 73 510 c 2,22,-1
 154 510 l 1,23,-1
 170 456 l 1,24,-1
 63 456 l 1,25,26
 50 439 50 439 50 416 c 0,27,28
 50 391 50 391 63 366.5 c 128,-1,29
 76 342 76 342 96 326 c 1,30,31
 111 333 111 333 128 335 c 128,-1,32
 145 337 145 337 167 337 c 2,33,-1
 193 337 l 1,34,-1
 202 279 l 1,35,36
 114 279 114 279 68 243 c 0,37,38
 28 212 28 212 28 163 c 0,39,40
 28 117 28 117 64 80 c 128,-1,41
 100 43 100 43 151 43 c 0,42,43
 178 43 178 43 203.5 52.5 c 128,-1,44
 229 62 229 62 258 85 c 1,45,46
 289 114 289 114 300 158 c 0,47,48
 307 187 307 187 307 240 c 0,49,50
 307 280 307 280 287 354 c 0,51,52
 260 449 260 449 233 543 c 1,53,54
 232 551 232 551 231.5 559.5 c 128,-1,55
 231 568 231 568 231 573 c 0,56,57
 231 611 231 611 244.5 636 c 128,-1,58
 258 661 258 661 289 661 c 0,59,60
 298 661 298 661 307 659.5 c 128,-1,61
 316 658 316 658 325 648 c 0,62,63
 355 615 355 615 372 554 c 1,64,-1
 355 545 l 1,65,66
 335 590 335 590 315 602 c 0,67,68
 307 607 307 607 289 607 c 0,69,70
 278 607 278 607 268 597 c 128,-1,71
 258 587 258 587 258 575 c 0,0,1
EndSplineSet
EndChar

StartChar: u0A88.abvm
Encoding: 65540 -1 110
Width: 461
Flags: W
LayerCount: 2
Fore
SplineSet
258 575 m 0,0,1
 258 542 258 542 279 469 c 0,2,3
 312 351 312 351 318 328 c 0,4,5
 340 239 340 239 340 184 c 0,6,7
 340 135 340 135 328 100 c 128,-1,8
 316 65 316 65 285 40 c 1,9,10
 234 2 234 2 171 2 c 0,11,12
 101 2 101 2 53 50 c 0,13,14
 1 102 1 102 1 190 c 0,15,16
 1 231 1 231 19 262 c 128,-1,17
 37 293 37 293 71 312 c 1,18,19
 2 395 2 395 2 453 c 0,20,21
 2 510 2 510 73 510 c 2,22,-1
 154 510 l 1,23,-1
 170 456 l 1,24,-1
 63 456 l 1,25,26
 50 439 50 439 50 416 c 0,27,28
 50 391 50 391 63 366.5 c 128,-1,29
 76 342 76 342 96 326 c 1,30,31
 111 333 111 333 128 335 c 128,-1,32
 145 337 145 337 167 337 c 2,33,-1
 193 337 l 1,34,-1
 202 279 l 1,35,36
 114 279 114 279 68 243 c 0,37,38
 28 212 28 212 28 163 c 0,39,40
 28 117 28 117 64 80 c 128,-1,41
 100 43 100 43 151 43 c 0,42,43
 178 43 178 43 203.5 52.5 c 128,-1,44
 229 62 229 62 258 85 c 1,45,46
 289 114 289 114 300 158 c 0,47,48
 307 187 307 187 307 240 c 0,49,50
 307 280 307 280 287 354 c 0,51,52
 260 449 260 449 233 543 c 1,53,54
 232 551 232 551 231.5 559.5 c 128,-1,55
 231 568 231 568 231 573 c 0,56,57
 231 611 231 611 244.5 636 c 128,-1,58
 258 661 258 661 289 661 c 0,59,60
 298 661 298 661 307 659.5 c 128,-1,61
 316 658 316 658 325 648 c 0,62,63
 355 615 355 615 372 554 c 1,64,-1
 355 545 l 1,65,66
 335 590 335 590 315 602 c 0,67,68
 307 607 307 607 289 607 c 0,69,70
 278 607 278 607 268 597 c 128,-1,71
 258 587 258 587 258 575 c 0,0,1
133 665 m 1,72,-1
 177 621 l 1,73,-1
 133 577 l 1,74,-1
 91 621 l 1,75,-1
 133 665 l 1,72,-1
EndSplineSet
EndChar

StartChar: u0A89
Encoding: 2697 2697 111
Width: 499
Flags: W
LayerCount: 2
Fore
SplineSet
289 253 m 1,0,1
 272 243 272 243 247 239.5 c 128,-1,2
 222 236 222 236 197 236 c 1,3,-1
 185 300 l 1,4,5
 260 300 260 300 300.5 329.5 c 128,-1,6
 341 359 341 359 341 399 c 0,7,8
 341 431 341 431 313 456 c 1,9,-1
 192 456 l 1,10,-1
 177 510 l 1,11,-1
 263 510 l 2,12,13
 301 510 301 510 335.5 474.5 c 128,-1,14
 370 439 370 439 370 394 c 0,15,16
 370 346 370 346 357.5 318 c 128,-1,17
 345 290 345 290 313 267 c 1,18,19
 344 237 344 237 359.5 204 c 128,-1,20
 375 171 375 171 375 136 c 0,21,22
 375 78 375 78 333.5 39.5 c 128,-1,23
 292 1 292 1 219 1 c 0,24,25
 117 1 117 1 55 112 c 0,26,27
 1 209 1 209 1 339 c 0,28,29
 1 458 1 458 50 536 c 0,30,31
 108 630 108 630 218 630 c 0,32,33
 235 630 235 630 244 629 c 0,34,35
 288 624 288 624 318 603 c 0,36,37
 343 586 343 586 364 554 c 1,38,-1
 348 543 l 1,39,40
 334 565 334 565 317 576 c 128,-1,41
 300 587 300 587 285.5 590 c 128,-1,42
 271 593 271 593 259 593 c 128,-1,43
 247 593 247 593 240 594 c 1,44,45
 150 594 150 594 95 503 c 0,46,47
 45 419 45 419 45 304 c 0,48,49
 45 200 45 200 86 132 c 0,50,51
 133 55 133 55 215 55 c 0,52,53
 274 55 274 55 306 88 c 0,54,55
 334 117 334 117 334 161 c 0,56,57
 334 190 334 190 322.5 214 c 128,-1,58
 311 238 311 238 289 253 c 1,0,1
EndSplineSet
EndChar

StartChar: u0A89.abvm
Encoding: 65541 -1 112
Width: 499
Flags: W
LayerCount: 2
Fore
SplineSet
289 253 m 1,0,1
 272 243 272 243 247 239.5 c 128,-1,2
 222 236 222 236 197 236 c 1,3,-1
 185 300 l 1,4,5
 260 300 260 300 300.5 329.5 c 128,-1,6
 341 359 341 359 341 399 c 0,7,8
 341 431 341 431 313 456 c 1,9,-1
 192 456 l 1,10,-1
 177 510 l 1,11,-1
 263 510 l 2,12,13
 301 510 301 510 335.5 474.5 c 128,-1,14
 370 439 370 439 370 394 c 0,15,16
 370 346 370 346 357.5 318 c 128,-1,17
 345 290 345 290 313 267 c 1,18,19
 344 237 344 237 359.5 204 c 128,-1,20
 375 171 375 171 375 136 c 0,21,22
 375 78 375 78 333.5 39.5 c 128,-1,23
 292 1 292 1 219 1 c 0,24,25
 117 1 117 1 55 112 c 0,26,27
 1 209 1 209 1 339 c 0,28,29
 1 458 1 458 50 536 c 0,30,31
 108 630 108 630 218 630 c 0,32,33
 235 630 235 630 244 629 c 0,34,35
 288 624 288 624 318 603 c 0,36,37
 343 586 343 586 364 554 c 1,38,-1
 348 543 l 1,39,40
 334 565 334 565 317 576 c 128,-1,41
 300 587 300 587 285.5 590 c 128,-1,42
 271 593 271 593 259 593 c 128,-1,43
 247 593 247 593 240 594 c 1,44,45
 150 594 150 594 95 503 c 0,46,47
 45 419 45 419 45 304 c 0,48,49
 45 200 45 200 86 132 c 0,50,51
 133 55 133 55 215 55 c 0,52,53
 274 55 274 55 306 88 c 0,54,55
 334 117 334 117 334 161 c 0,56,57
 334 190 334 190 322.5 214 c 128,-1,58
 311 238 311 238 289 253 c 1,0,1
203 765 m 1,59,-1
 247 721 l 1,60,-1
 203 677 l 1,61,-1
 161 721 l 1,62,-1
 203 765 l 1,59,-1
EndSplineSet
EndChar

StartChar: u0A8A
Encoding: 2698 2698 113
Width: 663
Flags: W
LayerCount: 2
Fore
SplineSet
1 339 m 0,0,1
 1 463 1 463 60 555 c 0,2,3
 127 661 127 661 239 661 c 0,4,5
 345 661 345 661 410 592 c 0,6,7
 467 531 467 531 467 456 c 2,8,-1
 467 51 l 2,9,10
 467 40 467 40 476 40 c 256,11,12
 485 40 485 40 496 52 c 128,-1,13
 507 64 507 64 511 81 c 1,14,-1
 562 26 l 1,15,16
 552 13 552 13 534 7 c 128,-1,17
 516 1 516 1 499 1 c 0,18,19
 479 1 479 1 467 5 c 0,20,21
 413 20 413 20 413 81 c 2,22,-1
 413 510 l 2,23,24
 413 552 413 552 366 585.5 c 128,-1,25
 319 619 319 619 268 619 c 0,26,27
 256 619 256 619 250 618 c 0,28,29
 206 611 206 611 166 581 c 128,-1,30
 126 551 126 551 97 508 c 0,31,32
 74 473 74 473 61 419.5 c 128,-1,33
 48 366 48 366 48 307 c 0,34,35
 48 202 48 202 87 134 c 0,36,37
 132 55 132 55 215 55 c 0,38,39
 274 55 274 55 306 88 c 0,40,41
 334 117 334 117 334 161 c 0,42,43
 334 190 334 190 322.5 214 c 128,-1,44
 311 238 311 238 289 253 c 1,45,46
 272 243 272 243 247 239.5 c 128,-1,47
 222 236 222 236 197 236 c 1,48,-1
 185 300 l 1,49,50
 260 300 260 300 300.5 329.5 c 128,-1,51
 341 359 341 359 341 399 c 0,52,53
 341 431 341 431 313 456 c 1,54,-1
 192 456 l 1,55,-1
 177 510 l 1,56,-1
 263 510 l 2,57,58
 301 510 301 510 335.5 474.5 c 128,-1,59
 370 439 370 439 370 394 c 0,60,61
 370 346 370 346 357.5 318 c 128,-1,62
 345 290 345 290 313 267 c 1,63,64
 344 237 344 237 359.5 204 c 128,-1,65
 375 171 375 171 375 136 c 0,66,67
 375 78 375 78 333.5 39.5 c 128,-1,68
 292 1 292 1 219 1 c 0,69,70
 117 1 117 1 55 112 c 0,71,72
 1 209 1 209 1 339 c 0,0,1
EndSplineSet
EndChar

StartChar: u0A8A.abvm
Encoding: 65542 -1 114
Width: 663
Flags: W
LayerCount: 2
Fore
SplineSet
1 339 m 0,0,1
 1 463 1 463 60 555 c 0,2,3
 127 661 127 661 239 661 c 0,4,5
 345 661 345 661 410 592 c 0,6,7
 467 531 467 531 467 456 c 2,8,-1
 467 51 l 2,9,10
 467 40 467 40 476 40 c 256,11,12
 485 40 485 40 496 52 c 128,-1,13
 507 64 507 64 511 81 c 1,14,-1
 562 26 l 1,15,16
 552 13 552 13 534 7 c 128,-1,17
 516 1 516 1 499 1 c 0,18,19
 479 1 479 1 467 5 c 0,20,21
 413 20 413 20 413 81 c 2,22,-1
 413 510 l 2,23,24
 413 552 413 552 366 585.5 c 128,-1,25
 319 619 319 619 268 619 c 0,26,27
 256 619 256 619 250 618 c 0,28,29
 206 611 206 611 166 581 c 128,-1,30
 126 551 126 551 97 508 c 0,31,32
 74 473 74 473 61 419.5 c 128,-1,33
 48 366 48 366 48 307 c 0,34,35
 48 202 48 202 87 134 c 0,36,37
 132 55 132 55 215 55 c 0,38,39
 274 55 274 55 306 88 c 0,40,41
 334 117 334 117 334 161 c 0,42,43
 334 190 334 190 322.5 214 c 128,-1,44
 311 238 311 238 289 253 c 1,45,46
 272 243 272 243 247 239.5 c 128,-1,47
 222 236 222 236 197 236 c 1,48,-1
 185 300 l 1,49,50
 260 300 260 300 300.5 329.5 c 128,-1,51
 341 359 341 359 341 399 c 0,52,53
 341 431 341 431 313 456 c 1,54,-1
 192 456 l 1,55,-1
 177 510 l 1,56,-1
 263 510 l 2,57,58
 301 510 301 510 335.5 474.5 c 128,-1,59
 370 439 370 439 370 394 c 0,60,61
 370 346 370 346 357.5 318 c 128,-1,62
 345 290 345 290 313 267 c 1,63,64
 344 237 344 237 359.5 204 c 128,-1,65
 375 171 375 171 375 136 c 0,66,67
 375 78 375 78 333.5 39.5 c 128,-1,68
 292 1 292 1 219 1 c 0,69,70
 117 1 117 1 55 112 c 0,71,72
 1 209 1 209 1 339 c 0,0,1
473 684 m 1,73,-1
 516 640 l 1,74,-1
 473 596 l 1,75,-1
 431 640 l 1,76,-1
 473 684 l 1,73,-1
EndSplineSet
EndChar

StartChar: u0A8B
Encoding: 2699 2699 115
Width: 741
Flags: W
LayerCount: 2
Fore
SplineSet
625 58 m 1,0,1
 608 23 608 23 566 10 c 0,2,3
 537 1 537 1 487 1 c 1,4,5
 484 5 484 5 474.5 44 c 128,-1,6
 465 83 465 83 463 89 c 1,7,8
 508 71 508 71 537 71 c 0,9,10
 572 71 572 71 590 92 c 128,-1,11
 608 113 608 113 608 145 c 0,12,13
 608 186 608 186 583 208 c 128,-1,14
 558 230 558 230 524 230 c 0,15,16
 494 230 494 230 469 213 c 1,17,-1
 469 341 l 1,18,-1
 316 240 l 1,19,-1
 316 51 l 2,20,21
 316 40 316 40 325 40 c 256,22,23
 334 40 334 40 345 52 c 128,-1,24
 356 64 356 64 361 81 c 1,25,-1
 412 26 l 1,26,27
 402 13 402 13 384 7 c 128,-1,28
 366 1 366 1 348 1 c 0,29,30
 328 1 328 1 316 5 c 0,31,32
 262 20 262 20 262 81 c 2,33,-1
 262 194 l 1,34,-1
 255 194 l 1,35,-1
 74 72 l 1,36,-1
 42 124 l 1,37,-1
 232 254 l 1,38,-1
 147 396 l 1,39,40
 136 409 136 409 108.5 414 c 128,-1,41
 81 419 81 419 48 419 c 0,42,43
 39 419 39 419 33.5 419 c 128,-1,44
 28 419 28 419 24 418 c 1,45,-1
 3 474 l 1,46,-1
 120 474 l 2,47,48
 146 474 146 474 207 367 c 0,49,50
 227 332 227 332 263 260 c 1,51,-1
 263 510 l 1,52,-1
 317 452 l 1,53,-1
 317 313 l 1,54,-1
 466 415 l 1,55,56
 465 424 465 424 465 428 c 0,57,58
 465 459 465 459 479 476 c 128,-1,59
 493 493 493 493 513 493 c 0,60,61
 540 493 540 493 556 479 c 128,-1,62
 572 465 572 465 572 442 c 0,63,64
 572 421 572 421 555 399.5 c 128,-1,65
 538 378 538 378 504 361 c 1,66,-1
 504 291 l 1,67,68
 532 291 532 291 555 287 c 128,-1,69
 578 283 578 283 595 270 c 0,70,71
 617 252 617 252 629.5 216 c 128,-1,72
 642 180 642 180 642 139 c 0,73,74
 642 90 642 90 625 58 c 1,0,1
EndSplineSet
EndChar

StartChar: u0A95
Encoding: 2709 2709 122
Width: 491
Flags: W
LayerCount: 2
Fore
SplineSet
271 510 m 1,0,-1
 296 456 l 1,1,2
 284 458 284 458 272.5 459.5 c 128,-1,3
 261 461 261 461 247 461 c 0,4,5
 208 461 208 461 189 446.5 c 128,-1,6
 170 432 170 432 170 409 c 0,7,8
 170 362 170 362 226 320 c 1,9,-1
 364 372 l 1,10,-1
 391 324 l 1,11,-1
 294 288 l 1,12,13
 334 263 334 263 356.5 221 c 128,-1,14
 379 179 379 179 379 133 c 0,15,16
 379 77 379 77 346 41 c 0,17,18
 309 1 309 1 241 1 c 0,19,20
 151 1 151 1 92 55 c 0,21,22
 41 101 41 101 1 200 c 1,23,-1
 21 209 l 1,24,25
 52 136 52 136 90 101 c 0,26,27
 140 56 140 56 218 56 c 0,28,29
 271 56 271 56 301.5 84.5 c 128,-1,30
 332 113 332 113 332 156 c 0,31,32
 332 188 332 188 313 218.5 c 128,-1,33
 294 249 294 249 257 272 c 1,34,-1
 124 222 l 1,35,-1
 96 272 l 1,36,-1
 196 308 l 1,37,38
 157 336 157 336 136 370.5 c 128,-1,39
 115 405 115 405 115 437 c 0,40,41
 115 474 115 474 140.5 497 c 128,-1,42
 166 520 166 520 209 520 c 0,43,44
 240 520 240 520 271 510 c 1,0,-1
EndSplineSet
AnchorPoint: "a" 35 525.5 basechar 0
EndChar

StartChar: u0A95.half
Encoding: 65543 -1 123
Width: 491
Flags: W
LayerCount: 2
Fore
SplineSet
271 510 m 1,0,-1
 296 456 l 1,1,2
 284 458 284 458 272.5 459.5 c 128,-1,3
 261 461 261 461 247 461 c 0,4,5
 208 461 208 461 189 446.5 c 128,-1,6
 170 432 170 432 170 409 c 0,7,8
 170 362 170 362 226 320 c 1,9,-1
 364 315 l 1,10,-1
 391 287 l 1,11,-1
 294 288 l 1,12,13
 334 263 334 263 356.5 221 c 128,-1,14
 379 179 379 179 379 133 c 0,15,16
 379 77 379 77 346 41 c 0,17,18
 309 1 309 1 241 1 c 0,19,20
 151 1 151 1 92 55 c 0,21,22
 41 101 41 101 1 200 c 1,23,-1
 21 209 l 1,24,25
 52 136 52 136 90 101 c 0,26,27
 140 56 140 56 218 56 c 0,28,29
 271 56 271 56 301.5 84.5 c 128,-1,30
 332 113 332 113 332 156 c 0,31,32
 332 188 332 188 313 218.5 c 128,-1,33
 294 249 294 249 257 272 c 1,34,-1
 124 222 l 1,35,-1
 96 272 l 1,36,-1
 196 308 l 1,37,38
 157 336 157 336 136 370.5 c 128,-1,39
 115 405 115 405 115 437 c 0,40,41
 115 474 115 474 140.5 497 c 128,-1,42
 166 520 166 520 209 520 c 0,43,44
 240 520 240 520 271 510 c 1,0,-1
EndSplineSet
Ligature2: "'half' Half Forms in Gujarati lookup 4 subtable" u0A95 u0ACD

EndChar

StartChar: u0A95.pres
Encoding: 65544 -1 124
Width: 831
Flags: W
LayerCount: 2
Fore
SplineSet
379 122 m 1,0,1
 379 70 379 70 342.5 35.5 c 128,-1,2
 306 1 306 1 241 1 c 0,3,4
 151 1 151 1 92 55 c 0,5,6
 41 101 41 101 1 200 c 1,7,-1
 21 209 l 1,8,9
 52 136 52 136 90 101 c 0,10,11
 140 56 140 56 218 56 c 0,12,13
 271 56 271 56 301.5 84.5 c 128,-1,14
 332 113 332 113 332 156 c 0,15,16
 332 188 332 188 313 218.5 c 128,-1,17
 294 249 294 249 257 272 c 1,18,-1
 124 222 l 1,19,-1
 96 272 l 1,20,-1
 196 308 l 1,21,22
 157 336 157 336 136 370.5 c 128,-1,23
 115 405 115 405 115 437 c 0,24,25
 115 474 115 474 140.5 497 c 128,-1,26
 166 520 166 520 209 520 c 0,27,28
 240 520 240 520 270 510 c 1,29,-1
 295 456 l 1,30,31
 283 458 283 458 271.5 459.5 c 128,-1,32
 260 461 260 461 246 461 c 0,33,34
 207 461 207 461 188 446.5 c 128,-1,35
 169 432 169 432 169 409 c 0,36,37
 169 362 169 362 225 320 c 1,38,-1
 363 372 l 1,39,-1
 390 324 l 1,40,-1
 293 288 l 1,41,42
 320 272 320 272 339.5 246 c 128,-1,43
 359 220 359 220 369 189 c 1,44,45
 400 126 400 126 438 95 c 0,46,47
 486 56 486 56 557 56 c 0,48,49
 610 56 610 56 640.5 84.5 c 128,-1,50
 671 113 671 113 671 156 c 0,51,52
 671 188 671 188 652 218.5 c 128,-1,53
 633 249 633 249 596 272 c 1,54,-1
 464 222 l 1,55,-1
 436 272 l 1,56,-1
 535 308 l 1,57,58
 497 336 497 336 476 370.5 c 128,-1,59
 455 405 455 405 455 437 c 0,60,61
 455 474 455 474 480.5 497 c 128,-1,62
 506 520 506 520 548 520 c 0,63,64
 579 520 579 520 609 510 c 1,65,-1
 634 456 l 1,66,67
 622 458 622 458 610.5 459.5 c 128,-1,68
 599 461 599 461 585 461 c 0,69,70
 546 461 546 461 527.5 446.5 c 128,-1,71
 509 432 509 432 509 409 c 0,72,73
 509 362 509 362 564 320 c 1,74,-1
 702 372 l 1,75,-1
 729 324 l 1,76,-1
 632 288 l 1,77,78
 672 263 672 263 694.5 221 c 128,-1,79
 717 179 717 179 717 133 c 0,80,81
 717 77 717 77 684 41 c 0,82,83
 647 1 647 1 579 1 c 0,84,85
 510 1 510 1 462 31.5 c 128,-1,86
 414 62 414 62 379 122 c 1,0,1
EndSplineSet
Ligature2: "'pres' Pre Base Substitutions in Gujarati lookup 5 subtable" u0A95.half u0A95

EndChar

StartChar: u0A95.vatu
Encoding: 65545 -1 125
Width: 491
Flags: W
LayerCount: 2
Fore
SplineSet
256 271 m 1,0,-1
 125 222 l 1,1,-1
 97 272 l 1,2,-1
 197 308 l 1,3,4
 158 336 158 336 137 370.5 c 128,-1,5
 116 405 116 405 116 437 c 0,6,7
 116 474 116 474 141.5 497 c 128,-1,8
 167 520 167 520 210 520 c 0,9,10
 241 520 241 520 271 510 c 1,11,-1
 296 456 l 1,12,13
 284 458 284 458 272.5 459.5 c 128,-1,14
 261 461 261 461 247 461 c 0,15,16
 208 461 208 461 189 446.5 c 128,-1,17
 170 432 170 432 170 409 c 0,18,19
 170 362 170 362 226 320 c 1,20,-1
 364 372 l 1,21,-1
 391 324 l 1,22,-1
 294 288 l 1,23,24
 334 263 334 263 356.5 221 c 128,-1,25
 379 179 379 179 379 133 c 0,26,27
 379 77 379 77 346 41 c 0,28,29
 309 1 309 1 241 1 c 0,30,31
 151 1 151 1 92 55 c 0,32,33
 41 101 41 101 1 200 c 1,34,-1
 21 209 l 1,35,36
 52 136 52 136 90 101 c 0,37,38
 140 56 140 56 218 56 c 0,39,40
 271 56 271 56 301.5 84.5 c 128,-1,41
 332 113 332 113 332 155 c 256,42,43
 332 197 332 197 299 236 c 1,44,-1
 180 107 l 1,45,-1
 142 140 l 1,46,-1
 256 271 l 1,0,-1
EndSplineSet
Ligature2: "'vatu' Vattu Variants in Gujarati lookup 3 subtable" u0A95 u0ACD_u0AB0

EndChar

StartChar: u0A96.half
Encoding: 65547 -1 128
Width: 396
Flags: W
LayerCount: 2
Fore
SplineSet
405 314 m 1,0,-1
 405 236 l 1,1,2
 391 234 391 234 384 234 c 0,3,4
 345 234 345 234 316 267 c 1,5,-1
 316 140 l 2,6,7
 316 100 316 100 288 76 c 128,-1,8
 260 52 260 52 221 52 c 0,9,10
 175 52 175 52 143 82 c 0,11,12
 106 117 106 117 106 178 c 2,13,-1
 106 457 l 1,14,15
 98 462 98 462 90 462 c 0,16,17
 79 462 79 462 66 450 c 1,18,19
 52 434 52 434 45 426 c 1,20,-1
 1 480 l 1,21,22
 28 510 28 510 67 510 c 0,23,24
 82 510 82 510 98 504.5 c 128,-1,25
 114 499 114 499 127 489 c 0,26,27
 145 475 145 475 152.5 450.5 c 128,-1,28
 160 426 160 426 160 393 c 2,29,-1
 160 122 l 2,30,31
 160 108 160 108 170 101 c 128,-1,32
 180 94 180 94 194 94 c 0,33,34
 213 94 213 94 233 103 c 128,-1,35
 253 112 253 112 263 126 c 1,36,-1
 263 456 l 1,37,-1
 316 398 l 1,38,-1
 316 291 l 1,39,40
 322 282 322 282 340 282 c 256,41,42
 358 282 358 282 377 290.5 c 128,-1,43
 396 299 396 299 405 314 c 1,0,-1
EndSplineSet
Ligature2: "'half' Half Forms in Gujarati lookup 4 subtable" u0A96 u0ACD

EndChar

StartChar: u0A97.half
Encoding: 65549 -1 131
Width: 381
Flags: W
LayerCount: 2
Fore
SplineSet
64 456 m 1,0,-1
 35 510 l 1,1,-1
 161 510 l 1,2,3
 221 502 221 502 260 426 c 0,4,5
 296 356 296 356 296 267 c 0,6,7
 296 188 296 188 265 137 c 0,8,9
 230 80 230 80 165 80 c 0,10,11
 102 80 102 80 55 129 c 0,12,13
 12 174 12 174 1 235 c 1,14,-1
 20 240 l 1,15,16
 33 197 33 197 69 170 c 128,-1,17
 105 143 105 143 146 143 c 0,18,19
 204 143 204 143 236 190 c 0,20,21
 265 232 265 232 265 295 c 256,22,23
 265 358 265 358 235 405 c 0,24,25
 202 456 202 456 149 456 c 2,26,-1
 64 456 l 1,0,-1
EndSplineSet
Ligature2: "'half' Half Forms in Gujarati lookup 4 subtable" u0A97 u0ACD

EndChar

StartChar: u0A97_u0AA8.pres
Encoding: 65551 -1 133
Width: 811
Flags: W
LayerCount: 2
Fore
SplineSet
64 456 m 1,0,-1
 35 510 l 1,1,-1
 161 510 l 1,2,3
 221 502 221 502 260 426 c 0,4,5
 296 356 296 356 296 267 c 0,6,7
 296 188 296 188 265 137 c 0,8,9
 230 80 230 80 165 80 c 0,10,11
 102 80 102 80 55 129 c 0,12,13
 12 174 12 174 1 235 c 1,14,-1
 20 240 l 1,15,16
 33 197 33 197 69 170 c 128,-1,17
 105 143 105 143 146 143 c 0,18,19
 204 143 204 143 236 190 c 0,20,21
 265 232 265 232 265 295 c 256,22,23
 265 358 265 358 235 405 c 0,24,25
 202 456 202 456 149 456 c 2,26,-1
 64 456 l 1,0,-1
609 297 m 1,27,-1
 446 297 l 1,28,29
 448 279 448 279 448 269 c 0,30,31
 448 253 448 253 442.5 242 c 128,-1,32
 437 231 437 231 420 226 c 1,33,34
 391 222 391 222 359 254.5 c 128,-1,35
 327 287 327 287 327 319 c 0,36,37
 327 336 327 336 337 347 c 0,38,39
 343 353 343 353 353.5 355.5 c 128,-1,40
 364 358 364 358 377 358 c 0,41,42
 382 358 382 358 387 358 c 1,43,44
 387 357 387 357 388 357 c 2,45,-1
 609 357 l 1,46,-1
 609 510 l 1,47,-1
 663 452 l 1,48,-1
 663 51 l 2,49,50
 663 40 663 40 672 40 c 256,51,52
 681 40 681 40 692 52 c 128,-1,53
 703 64 703 64 708 81 c 1,54,-1
 759 26 l 1,55,56
 749 13 749 13 731 7 c 128,-1,57
 713 1 713 1 695 1 c 0,58,59
 675 1 675 1 663 5 c 0,60,61
 609 20 609 20 609 81 c 2,62,-1
 609 297 l 1,27,-1
EndSplineSet
Ligature2: "'pres' Pre Base Substitutions in Gujarati lookup 5 subtable" u0A97.half u0AA8

EndChar

StartChar: u0A98.half
Encoding: 65552 -1 135
Width: 292
Flags: W
LayerCount: 2
Fore
SplineSet
108 44 m 1,0,1
 53 61 53 61 26 99 c 128,-1,2
 -1 137 -1 137 -1 185 c 0,3,4
 -1 223 -1 223 16.5 256.5 c 128,-1,5
 34 290 34 290 65 309 c 1,6,7
 38 341 38 341 30 357 c 0,8,9
 15 384 15 384 15 415 c 0,10,11
 15 429 15 429 18 444 c 0,12,13
 25 478 25 478 68 493 c 0,14,15
 99 504 99 504 147 504 c 0,16,17
 166 504 166 504 179.5 503 c 128,-1,18
 193 502 193 502 204 500 c 1,19,-1
 226 445 l 1,20,21
 199 452 199 452 171 452 c 0,22,23
 125 452 125 452 93.5 433.5 c 128,-1,24
 62 415 62 415 62 385 c 0,25,26
 62 356 62 356 92 325 c 1,27,28
 104 335 104 335 131.5 345.5 c 128,-1,29
 159 356 159 356 176 356 c 1,30,-1
 196 287 l 1,31,32
 112 266 112 266 69 233 c 0,33,34
 31 204 31 204 31 170 c 0,35,36
 31 127 31 127 90 94 c 0,37,38
 103 86 103 86 127 86 c 0,39,40
 175 86 175 86 229.5 120 c 128,-1,41
 284 154 284 154 299 200 c 1,42,-1
 299 99 l 1,43,44
 268 70 268 70 232 54 c 128,-1,45
 196 38 196 38 154 38 c 0,46,47
 132 38 132 38 108 44 c 1,0,1
EndSplineSet
Ligature2: "'half' Half Forms in Gujarati lookup 4 subtable" u0A98 u0ACD

EndChar

StartChar: u0A99
Encoding: 2713 2713 137
Width: 457
Flags: W
LayerCount: 2
Fore
SplineSet
280 492 m 1,0,-1
 272 434 l 1,1,2
 244 445 244 445 219 452 c 128,-1,3
 194 459 194 459 179 459 c 0,4,5
 145 459 145 459 130 424 c 0,6,7
 127 416 127 416 127 408 c 0,8,9
 127 379 127 379 186 335 c 0,10,11
 292 257 292 257 297 252 c 0,12,13
 357 196 357 196 357 139 c 0,14,15
 357 72 357 72 332 39 c 0,16,17
 303 1 303 1 235 1 c 0,18,19
 142 1 142 1 78 73 c 0,20,21
 27 131 27 131 1 223 c 1,22,-1
 22 228 l 1,23,24
 36 160 36 160 92 108 c 128,-1,25
 148 56 148 56 208 56 c 0,26,27
 237 56 237 56 259 67.5 c 128,-1,28
 281 79 281 79 300 106 c 0,29,30
 314 126 314 126 314 148 c 0,31,32
 314 191 314 191 247 248 c 1,33,34
 185 296 185 296 124 344 c 1,35,36
 59 399 59 399 63 439 c 0,37,38
 73 524 73 524 151 524 c 0,39,40
 199 524 199 524 280 492 c 1,0,-1
273 351 m 1,41,-1
 313 390 l 1,42,-1
 352 351 l 1,43,-1
 313 312 l 1,44,-1
 273 351 l 1,41,-1
EndSplineSet
AnchorPoint: "a" 152 538 basechar 0
EndChar

StartChar: u0A9A.half
Encoding: 65554 -1 139
Width: 358
Flags: W
LayerCount: 2
Fore
SplineSet
368 134 m 1,0,1
 344 107 344 107 309 89.5 c 128,-1,2
 274 72 274 72 237 72 c 0,3,4
 225 72 225 72 211 75 c 0,5,6
 166 85 166 85 128 131 c 0,7,8
 97 169 97 169 77 222 c 1,9,10
 44 230 44 230 23 252 c 128,-1,11
 2 274 2 274 2 303 c 0,12,13
 2 316 2 316 7.5 329 c 128,-1,14
 13 342 13 342 23 347.5 c 128,-1,15
 33 353 33 353 45 353 c 0,16,17
 52 353 52 353 63 350.5 c 128,-1,18
 74 348 74 348 85 324.5 c 128,-1,19
 96 301 96 301 100 279 c 1,20,21
 150 279 150 279 191 306 c 0,22,23
 239 338 239 338 239 389 c 0,24,25
 239 421 239 421 221 456 c 1,26,-1
 79 456 l 1,27,-1
 50 510 l 1,28,-1
 196 510 l 1,29,30
 231 495 231 495 252.5 454 c 128,-1,31
 274 413 274 413 274 365 c 0,32,33
 274 299 274 299 233 261 c 0,34,35
 208 238 208 238 177.5 230 c 128,-1,36
 147 222 147 222 113 222 c 1,37,38
 122 187 122 187 153.5 160.5 c 128,-1,39
 185 134 185 134 221 134 c 0,40,41
 262 134 262 134 306.5 164.5 c 128,-1,42
 351 195 351 195 367 234 c 1,43,-1
 368 134 l 1,0,1
EndSplineSet
Ligature2: "'half' Half Forms in Gujarati lookup 4 subtable" u0A9A u0ACD

EndChar

StartChar: u0A9B
Encoding: 2715 2715 141
Width: 521
Flags: W
LayerCount: 2
Fore
SplineSet
280 441 m 0,0,1
 265 433 265 433 265 408 c 0,2,3
 265 363 265 363 304 298 c 128,-1,4
 343 233 343 233 369 233 c 0,5,6
 381 233 381 233 385 248.5 c 128,-1,7
 389 264 389 264 389 284 c 0,8,9
 389 338 389 338 360.5 392 c 128,-1,10
 332 446 332 446 298 446 c 0,11,12
 290 446 290 446 280 441 c 0,0,1
64 312 m 1,13,14
 37 344 37 344 26 362 c 0,15,16
 7 392 7 392 2 422 c 0,17,18
 1 430 1 430 1 433 c 0,19,20
 1 494 1 494 53 510 c 1,21,-1
 146 510 l 1,22,-1
 165 456 l 1,23,-1
 63 456 l 1,24,25
 44 444 44 444 44 418 c 0,26,27
 44 394 44 394 58 368 c 128,-1,28
 72 342 72 342 93 329 c 1,29,30
 124 352 124 352 166 356 c 1,31,-1
 187 286 l 1,32,33
 110 267 110 267 72 230 c 0,34,35
 39 198 39 198 39 157 c 0,36,37
 39 114 39 114 74 81 c 128,-1,38
 109 48 109 48 158 48 c 0,39,40
 180 48 180 48 198 55 c 1,41,42
 256 74 256 74 308 116 c 0,43,44
 370 166 370 166 381 222 c 1,45,46
 321 240 321 240 269 306.5 c 128,-1,47
 217 373 217 373 217 431 c 0,48,49
 217 459 217 459 231.5 479.5 c 128,-1,50
 246 500 246 500 278 508 c 0,51,52
 288 510 288 510 293 510 c 0,53,54
 323 510 323 510 352 476 c 0,55,56
 389 432 389 432 410 356 c 1,57,58
 422 306 422 306 422 259 c 0,59,60
 422 146 422 146 361 77 c 0,61,62
 294 1 294 1 169 1 c 0,63,64
 90 1 90 1 46 52 c 128,-1,65
 2 103 2 103 2 190 c 0,66,67
 2 268 2 268 64 312 c 1,13,14
EndSplineSet
AnchorPoint: "a" 298 528 basechar 0
EndChar

StartChar: u0A9C
Encoding: 2716 2716 142
Width: 498
Flags: W
LayerCount: 2
Fore
SplineSet
64 329 m 0,0,1
 73 321 73 321 89 321 c 0,2,3
 118 321 118 321 146.5 345.5 c 128,-1,4
 175 370 175 370 175 399 c 0,5,6
 175 425 175 425 149 443 c 0,7,8
 130 456 130 456 111 456 c 0,9,10
 84 456 84 456 66 429.5 c 128,-1,11
 48 403 48 403 48 371 c 0,12,13
 48 342 48 342 64 329 c 0,0,1
328 215 m 1,14,15
 304 185 304 185 264 138 c 0,16,17
 250 122 250 122 226 94 c 1,18,19
 224 84 224 84 224 80 c 0,20,21
 224 63 224 63 235 54 c 128,-1,22
 246 45 246 45 262 45 c 0,23,24
 279 45 279 45 290 53 c 0,25,26
 316 71 316 71 327 98 c 128,-1,27
 338 125 338 125 338 154 c 0,28,29
 338 182 338 182 332 205 c 0,30,31
 331 209 331 209 328 215 c 1,14,15
328 299 m 1,32,-1
 495 510 l 1,33,-1
 537 473 l 1,34,-1
 353 239 l 1,35,36
 369 191 369 191 369 139 c 0,37,38
 369 80 369 80 349 43 c 0,39,40
 326 1 326 1 282 1 c 0,41,42
 229 1 229 1 204 31 c 0,43,44
 185 53 185 53 185 90 c 0,45,46
 185 107 185 107 188.5 120.5 c 128,-1,47
 192 134 192 134 197 141 c 2,48,-1
 305 272 l 1,49,50
 281 332 281 332 258 365 c 0,51,52
 226 412 226 412 187 426 c 1,53,54
 200 399 200 399 200 370 c 0,55,56
 200 335 200 335 184.5 308 c 128,-1,57
 169 281 169 281 144 271 c 0,58,59
 136 267 136 267 125.5 265 c 128,-1,60
 115 263 115 263 106 263 c 0,61,62
 68 263 68 263 39.5 295.5 c 128,-1,63
 11 328 11 328 3 371 c 0,64,65
 2 379 2 379 2 397 c 0,66,67
 2 438 2 438 26 470.5 c 128,-1,68
 50 503 50 503 91 509 c 0,69,70
 98 510 98 510 103.5 510 c 128,-1,71
 109 510 109 510 111 510 c 0,72,73
 193 510 193 510 266 406 c 0,74,75
 292 369 292 369 328 299 c 1,32,-1
EndSplineSet
AnchorPoint: "a" 512 536 basechar 0
EndChar

StartChar: u0A9C.half
Encoding: 65556 -1 143
Width: 471
Flags: W
LayerCount: 2
Fore
SplineSet
64 329 m 0,0,1
 73 321 73 321 89 321 c 0,2,3
 118 321 118 321 146.5 345.5 c 128,-1,4
 175 370 175 370 175 399 c 0,5,6
 175 425 175 425 149 443 c 0,7,8
 130 456 130 456 111 456 c 0,9,10
 84 456 84 456 66 429.5 c 128,-1,11
 48 403 48 403 48 371 c 0,12,13
 48 342 48 342 64 329 c 0,0,1
328 215 m 1,14,15
 304 185 304 185 264 138 c 0,16,17
 250 122 250 122 226 94 c 1,18,19
 224 84 224 84 224 80 c 0,20,21
 224 63 224 63 235 54 c 128,-1,22
 246 45 246 45 262 45 c 0,23,24
 279 45 279 45 290 53 c 0,25,26
 316 71 316 71 327 98 c 128,-1,27
 338 125 338 125 338 154 c 0,28,29
 338 182 338 182 332 205 c 0,30,31
 331 209 331 209 328 215 c 1,14,15
328 299 m 1,32,-1
 407 393 l 1,33,-1
 450 356 l 1,34,-1
 353 239 l 1,35,36
 369 191 369 191 369 139 c 0,37,38
 369 80 369 80 349 43 c 0,39,40
 326 1 326 1 282 1 c 0,41,42
 229 1 229 1 204 31 c 0,43,44
 185 53 185 53 185 90 c 0,45,46
 185 107 185 107 188.5 120.5 c 128,-1,47
 192 134 192 134 197 141 c 2,48,-1
 305 272 l 1,49,50
 281 332 281 332 258 365 c 0,51,52
 226 412 226 412 187 426 c 1,53,54
 200 399 200 399 200 370 c 0,55,56
 200 335 200 335 184.5 308 c 128,-1,57
 169 281 169 281 144 271 c 0,58,59
 136 267 136 267 125.5 265 c 128,-1,60
 115 263 115 263 106 263 c 0,61,62
 68 263 68 263 39.5 295.5 c 128,-1,63
 11 328 11 328 3 371 c 0,64,65
 2 379 2 379 2 397 c 0,66,67
 2 438 2 438 26 470.5 c 128,-1,68
 50 503 50 503 91 509 c 0,69,70
 98 510 98 510 103.5 510 c 128,-1,71
 109 510 109 510 111 510 c 0,72,73
 193 510 193 510 266 406 c 0,74,75
 292 369 292 369 328 299 c 1,32,-1
EndSplineSet
Ligature2: "'half' Half Forms in Gujarati lookup 4 subtable" u0A9C u0ACD

EndChar

StartChar: u0A9C.vatu
Encoding: 65557 -1 144
Width: 605
Flags: W
LayerCount: 2
Fore
SplineSet
437 215 m 1,0,1
 413 185 413 185 373 138 c 0,2,3
 359 122 359 122 335 94 c 1,4,5
 333 84 333 84 333 80 c 0,6,7
 333 63 333 63 344 54 c 128,-1,8
 355 45 355 45 371 45 c 0,9,10
 388 45 388 45 399 53 c 0,11,12
 425 71 425 71 436 98 c 128,-1,13
 447 125 447 125 447 154 c 0,14,15
 447 182 447 182 441 205 c 0,16,17
 440 209 440 209 437 215 c 1,0,1
64 329 m 0,18,19
 73 321 73 321 89 321 c 0,20,21
 118 321 118 321 146.5 345.5 c 128,-1,22
 175 370 175 370 175 399 c 0,23,24
 175 425 175 425 149 443 c 0,25,26
 130 456 130 456 111 456 c 0,27,28
 84 456 84 456 66 429.5 c 128,-1,29
 48 403 48 403 48 371 c 0,30,31
 48 342 48 342 64 329 c 0,18,19
370 334 m 1,32,-1
 211 163 l 1,33,-1
 173 196 l 1,34,-1
 330 370 l 1,35,36
 294 399 294 399 256 418 c 128,-1,37
 218 437 218 437 191 437 c 1,38,39
 200 422 200 422 204 406.5 c 128,-1,40
 208 391 208 391 208 375 c 0,41,42
 208 339 208 339 189 310.5 c 128,-1,43
 170 282 170 282 144 272 c 0,44,45
 136 268 136 268 125.5 266 c 128,-1,46
 115 264 115 264 106 264 c 0,47,48
 68 264 68 264 39.5 296.5 c 128,-1,49
 11 329 11 329 3 372 c 1,50,51
 2 386 2 386 2 394 c 0,52,53
 2 439 2 439 30 474.5 c 128,-1,54
 58 510 58 510 101 510 c 0,55,56
 185 510 185 510 293.5 440.5 c 128,-1,57
 402 371 402 371 438 299 c 1,58,-1
 604 501 l 1,59,-1
 647 464 l 1,60,-1
 463 239 l 1,61,62
 479 191 479 191 479 139 c 0,63,64
 479 80 479 80 459 43 c 0,65,66
 436 1 436 1 392 1 c 0,67,68
 339 1 339 1 314 31 c 0,69,70
 295 53 295 53 295 90 c 0,71,72
 295 107 295 107 298.5 120.5 c 128,-1,73
 302 134 302 134 307 141 c 2,74,-1
 415 272 l 1,75,76
 404 300 404 300 370 334 c 1,32,-1
EndSplineSet
Ligature2: "'vatu' Vattu Variants in Gujarati lookup 3 subtable" u0A9C u0ACD_u0AB0

EndChar

StartChar: u0A9C_u0A9E.half
Encoding: 65559 -1 146
Width: 318
Flags: W
LayerCount: 2
Fore
SplineSet
324 322 m 1,0,1
 311 317 311 317 294 317 c 0,2,3
 259 317 259 317 192 349.5 c 128,-1,4
 125 382 125 382 102 382 c 0,5,6
 84 382 84 382 73 372 c 1,7,8
 59 357 59 357 59 344 c 0,9,10
 59 329 59 329 158 289 c 128,-1,11
 257 249 257 249 257 168 c 0,12,13
 257 108 257 108 229 64 c 0,14,15
 195 10 195 10 134 1 c 1,16,17
 146 -21 146 -21 168 -36.5 c 128,-1,18
 190 -52 190 -52 214 -52 c 0,19,20
 245 -52 245 -52 270 -28 c 1,21,-1
 297 -82 l 1,22,23
 262 -111 262 -111 229 -111 c 0,24,25
 187 -111 187 -111 144 -56 c 0,26,27
 128 -35 128 -35 105 1 c 1,28,29
 73 1 73 1 51.5 16 c 128,-1,30
 30 31 30 31 22 50 c 0,31,32
 20 54 20 54 20 63 c 0,33,34
 20 80 20 80 32.5 95 c 128,-1,35
 45 110 45 110 63 110 c 0,36,37
 79 110 79 110 93.5 97.5 c 128,-1,38
 108 85 108 85 120 56 c 1,39,40
 153 56 153 56 183.5 80 c 128,-1,41
 214 104 214 104 222.5 127 c 128,-1,42
 231 150 231 150 231 169 c 0,43,44
 231 212 231 212 129 248 c 128,-1,45
 27 284 27 284 27 358 c 0,46,47
 27 381 27 381 39 397.5 c 128,-1,48
 51 414 51 414 66.5 419 c 128,-1,49
 82 424 82 424 95 424 c 0,50,51
 113 424 113 424 158 402 c 128,-1,52
 203 380 203 380 247 380 c 0,53,54
 264 380 264 380 283 382.5 c 128,-1,55
 302 385 302 385 322 390 c 1,56,-1
 324 322 l 1,0,1
EndSplineSet
EndChar

StartChar: u0A9C_u0ABE.psts
Encoding: 65560 -1 147
Width: 745
Flags: W
LayerCount: 2
Fore
SplineSet
64 329 m 0,0,1
 73 321 73 321 89 321 c 0,2,3
 118 321 118 321 146.5 345.5 c 128,-1,4
 175 370 175 370 175 399 c 0,5,6
 175 425 175 425 149 443 c 0,7,8
 130 456 130 456 111 456 c 0,9,10
 84 456 84 456 66 429.5 c 128,-1,11
 48 403 48 403 48 371 c 0,12,13
 48 342 48 342 64 329 c 0,0,1
328 215 m 1,14,15
 304 185 304 185 264 138 c 0,16,17
 250 122 250 122 226 94 c 1,18,19
 224 84 224 84 224 80 c 0,20,21
 224 63 224 63 235 54 c 128,-1,22
 246 45 246 45 262 45 c 0,23,24
 279 45 279 45 290 53 c 0,25,26
 316 71 316 71 327 98 c 128,-1,27
 338 125 338 125 338 154 c 0,28,29
 338 182 338 182 332 205 c 0,30,31
 331 209 331 209 328 215 c 1,14,15
495 510 m 1,32,-1
 548 452 l 1,33,-1
 548 51 l 2,34,35
 548 40 548 40 557 40 c 256,36,37
 566 40 566 40 577 52 c 128,-1,38
 588 64 588 64 593 81 c 1,39,-1
 644 26 l 1,40,41
 634 13 634 13 616 7 c 128,-1,42
 598 1 598 1 580 1 c 0,43,44
 560 1 560 1 548 5 c 0,45,46
 495 20 495 20 495 81 c 2,47,-1
 495 420 l 1,48,-1
 353 239 l 1,49,50
 369 191 369 191 369 139 c 0,51,52
 369 80 369 80 349 43 c 0,53,54
 326 1 326 1 282 1 c 0,55,56
 229 1 229 1 204 31 c 0,57,58
 185 53 185 53 185 90 c 0,59,60
 185 107 185 107 188.5 120.5 c 128,-1,61
 192 134 192 134 197 141 c 2,62,-1
 305 272 l 1,63,64
 281 332 281 332 258 365 c 0,65,66
 226 412 226 412 187 426 c 1,67,68
 200 399 200 399 200 370 c 0,69,70
 200 335 200 335 184.5 308 c 128,-1,71
 169 281 169 281 144 271 c 0,72,73
 136 267 136 267 125.5 265 c 128,-1,74
 115 263 115 263 106 263 c 0,75,76
 68 263 68 263 39.5 295.5 c 128,-1,77
 11 328 11 328 3 371 c 0,78,79
 2 379 2 379 2 397 c 0,80,81
 2 438 2 438 26 470.5 c 128,-1,82
 50 503 50 503 91 509 c 0,83,84
 98 510 98 510 103.5 510 c 128,-1,85
 109 510 109 510 111 510 c 0,86,87
 193 510 193 510 266 406 c 0,88,89
 292 369 292 369 329 298 c 1,90,-1
 495 510 l 1,32,-1
EndSplineSet
Ligature2: "'psts' Post Base Substitutions in Gujarati lookup 7 subtable" u0A9C u0ABE

EndChar

StartChar: u0A9C_u0AC0.psts
Encoding: 65561 -1 148
Width: 668
Flags: W
LayerCount: 2
Fore
SplineSet
322 355 m 1,0,-1
 491 510 l 1,1,-1
 497 510 l 1,2,3
 528 463 528 463 546.5 400 c 128,-1,4
 565 337 565 337 565 276 c 0,5,6
 565 226 565 226 553.5 183 c 128,-1,7
 542 140 542 140 516 104 c 1,8,9
 479 48 479 48 420 24 c 0,10,11
 367 2 367 2 287 2 c 0,12,13
 219 2 219 2 160 41 c 0,14,15
 113 72 113 72 68 134 c 0,16,17
 37 177 37 177 1 244 c 1,18,-1
 19 256 l 1,19,20
 66 173 66 173 119 124 c 0,21,22
 192 56 192 56 272 56 c 0,23,24
 399 56 399 56 468 130 c 1,25,26
 530 198 530 198 530 309 c 0,27,28
 530 358 530 358 517 406 c 0,29,30
 512 424 512 424 493 424 c 0,31,32
 482 424 482 424 475 417 c 0,33,34
 418 362 418 362 361 307 c 1,35,36
 368 294 368 294 371.5 281.5 c 128,-1,37
 375 269 375 269 375 255 c 0,38,39
 375 225 375 225 357 206 c 128,-1,40
 339 187 339 187 310 187 c 0,41,42
 285 187 285 187 266 206 c 128,-1,43
 247 225 247 225 247 255 c 0,44,45
 247 280 247 280 271 308 c 0,46,47
 281 319 281 319 300 338 c 1,48,49
 262 391 262 391 254 400 c 0,50,51
 225 432 225 432 192 440 c 1,52,53
 211 399 211 399 211 362 c 0,54,55
 211 331 211 331 200 309.5 c 128,-1,56
 189 288 189 288 168 279.5 c 128,-1,57
 147 271 147 271 126 271 c 0,58,59
 88 271 88 271 61.5 300.5 c 128,-1,60
 35 330 35 330 27 373 c 0,61,62
 25 381 25 381 25 398 c 0,63,64
 25 440 25 440 48.5 471.5 c 128,-1,65
 72 503 72 503 115 510 c 0,66,67
 121 511 121 511 134 511 c 0,68,69
 200 511 200 511 264 436 c 0,70,71
 291 405 291 405 322 355 c 1,0,-1
86 323 m 0,72,73
 94 320 94 320 101 320 c 0,74,75
 128 320 128 320 154.5 346.5 c 128,-1,76
 181 373 181 373 181 402 c 0,77,78
 181 415 181 415 174.5 426 c 128,-1,79
 168 437 168 437 153.5 445 c 128,-1,80
 139 453 139 453 126 453 c 0,81,82
 100 453 100 453 82.5 425 c 128,-1,83
 65 397 65 397 65 366 c 0,84,85
 65 348 65 348 69.5 338 c 128,-1,86
 74 328 74 328 86 323 c 0,72,73
EndSplineSet
Ligature2: "'psts' Post Base Substitutions in Gujarati lookup 7 subtable" u0A9C u0AC0

EndChar

StartChar: u0A9D
Encoding: 2717 2717 149
Width: 608
Flags: W
LayerCount: 2
Fore
SplineSet
174 125 m 1,0,1
 107 125 107 125 58 189 c 0,2,3
 19 240 19 240 1 317 c 1,4,-1
 22 323 l 1,5,6
 34 274 34 274 57 241 c 0,7,8
 88 196 88 196 129 188 c 0,9,10
 143 185 143 185 156 185 c 0,11,12
 208 185 208 185 236 232 c 0,13,14
 260 272 260 272 260 332 c 0,15,16
 260 364 260 364 253 390.5 c 128,-1,17
 246 417 246 417 232 433 c 128,-1,18
 218 449 218 449 156 455 c 0,19,20
 134 457 134 457 101 457 c 0,21,22
 90 457 90 457 83 457 c 128,-1,23
 76 457 76 457 71 456 c 1,24,-1
 43 510 l 1,25,-1
 169 510 l 1,26,27
 221 498 221 498 256 446 c 0,28,29
 284 403 284 403 296 343 c 1,30,31
 314 355 314 355 355 355 c 0,32,33
 362 355 362 355 374 353 c 1,34,35
 394 375 394 375 408 413 c 128,-1,36
 422 451 422 451 422 490 c 0,37,38
 422 503 422 503 421 510 c 1,39,40
 436 496 436 496 452 482 c 0,41,42
 462 472 462 472 484 451 c 1,43,44
 466 385 466 385 424 336 c 1,45,46
 466 305 466 305 486 265.5 c 128,-1,47
 506 226 506 226 506 183 c 0,48,49
 506 112 506 112 457.5 56.5 c 128,-1,50
 409 1 409 1 345 1 c 1,51,-1
 309 69 l 1,52,53
 377 69 377 69 423 107 c 128,-1,54
 469 145 469 145 469 199 c 0,55,56
 469 225 469 225 457 252 c 0,57,58
 449 270 449 270 422.5 283 c 128,-1,59
 396 296 396 296 366 296 c 0,60,61
 341 296 341 296 321 286.5 c 128,-1,62
 301 277 301 277 289 256 c 1,63,64
 280 202 280 202 253 168 c 0,65,66
 222 129 222 129 174 125 c 1,0,1
EndSplineSet
AnchorPoint: "a" 450 526 basechar 0
EndChar

StartChar: u0A9D.half
Encoding: 65562 -1 150
Width: 521
Flags: W
LayerCount: 2
Fore
SplineSet
174 125 m 1,0,1
 107 125 107 125 58 189 c 0,2,3
 19 240 19 240 1 317 c 1,4,-1
 22 323 l 1,5,6
 34 274 34 274 57 241 c 0,7,8
 88 196 88 196 129 188 c 0,9,10
 143 185 143 185 156 185 c 0,11,12
 208 185 208 185 236 232 c 0,13,14
 260 272 260 272 260 332 c 0,15,16
 260 364 260 364 253 390.5 c 128,-1,17
 246 417 246 417 232 433 c 128,-1,18
 218 449 218 449 156 455 c 0,19,20
 134 457 134 457 101 457 c 0,21,22
 90 457 90 457 83 457 c 128,-1,23
 76 457 76 457 71 456 c 1,24,-1
 43 510 l 1,25,-1
 169 510 l 1,26,27
 221 498 221 498 256 446 c 0,28,29
 284 403 284 403 296 343 c 1,30,31
 323 355 323 355 353 355 c 0,32,33
 373 355 373 355 389.5 350.5 c 128,-1,34
 406 346 406 346 424 336 c 0,35,36
 462 314 462 314 484 271.5 c 128,-1,37
 506 229 506 229 506 182 c 0,38,39
 506 113 506 113 468 65 c 0,40,41
 425 10 425 10 345 1 c 1,42,-1
 309 69 l 1,43,44
 377 69 377 69 423 107 c 128,-1,45
 469 145 469 145 469 199 c 0,46,47
 469 225 469 225 457 252 c 0,48,49
 449 270 449 270 422.5 283 c 128,-1,50
 396 296 396 296 366 296 c 0,51,52
 341 296 341 296 321 286.5 c 128,-1,53
 301 277 301 277 289 256 c 1,54,55
 280 202 280 202 253 168 c 0,56,57
 222 129 222 129 174 125 c 1,0,1
EndSplineSet
Ligature2: "'half' Half Forms in Gujarati lookup 4 subtable" u0A9D u0ACD

EndChar

StartChar: u0A9D.vatu
Encoding: 65563 -1 151
Width: 608
Flags: W
LayerCount: 2
Fore
SplineSet
420 285 m 1,0,1
 395 296 395 296 366 296 c 0,2,3
 341 296 341 296 321 286.5 c 128,-1,4
 301 277 301 277 290 256 c 1,5,6
 281 202 281 202 254 168 c 0,7,8
 223 129 223 129 174 125 c 1,9,10
 107 125 107 125 58 189 c 0,11,12
 19 240 19 240 1 317 c 1,13,-1
 22 323 l 1,14,15
 34 274 34 274 57 241 c 0,16,17
 88 196 88 196 129 188 c 0,18,19
 143 185 143 185 156 185 c 0,20,21
 208 185 208 185 236 232 c 0,22,23
 260 272 260 272 260 332 c 0,24,25
 260 364 260 364 253 390.5 c 128,-1,26
 246 417 246 417 232 433 c 128,-1,27
 218 449 218 449 156 455 c 0,28,29
 134 457 134 457 101 457 c 0,30,31
 90 457 90 457 83 457 c 128,-1,32
 76 457 76 457 71 456 c 1,33,-1
 43 510 l 1,34,-1
 169 510 l 1,35,36
 221 498 221 498 256 446 c 0,37,38
 284 403 284 403 296 343 c 1,39,40
 314 355 314 355 355 355 c 0,41,42
 362 355 362 355 374 353 c 1,43,44
 394 375 394 375 408 413 c 128,-1,45
 422 451 422 451 422 490 c 0,46,47
 422 503 422 503 421 510 c 1,48,49
 436 496 436 496 452 482 c 0,50,51
 462 472 462 472 484 451 c 1,52,53
 466 385 466 385 424 336 c 1,54,55
 466 305 466 305 486 265.5 c 128,-1,56
 506 226 506 226 506 183 c 0,57,58
 506 112 506 112 457.5 56.5 c 128,-1,59
 409 1 409 1 345 1 c 1,60,-1
 309 69 l 1,61,62
 377 69 377 69 423 107 c 128,-1,63
 469 145 469 145 469 199 c 0,64,65
 469 224 469 224 459 247 c 1,66,-1
 358 137 l 1,67,-1
 320 170 l 1,68,-1
 420 285 l 1,0,1
EndSplineSet
Ligature2: "'vatu' Vattu Variants in Gujarati lookup 3 subtable" u0A9D u0ACD_u0AB0

EndChar

StartChar: u0A9F
Encoding: 2719 2719 153
Width: 430
Flags: W
LayerCount: 2
Fore
SplineSet
150 3 m 0,0,1
 79 3 79 3 38 63 c 0,2,3
 1 117 1 117 1 199 c 0,4,5
 1 252 1 252 57 288 c 0,6,7
 78 301 78 301 165 335 c 0,8,9
 227 359 227 359 235 382 c 0,10,11
 238 391 238 391 238 403 c 0,12,13
 238 418 238 418 231.5 432.5 c 128,-1,14
 225 447 225 447 211 456 c 1,15,-1
 72 456 l 1,16,-1
 39 510 l 1,17,-1
 187 510 l 1,18,19
 216 504 216 504 238 478 c 0,20,21
 257 455 257 455 267 419 c 0,22,23
 270 410 270 410 271 400.5 c 128,-1,24
 272 391 272 391 272 380 c 0,25,26
 272 337 272 337 245 314 c 1,27,28
 224 294 224 294 117 255 c 0,29,30
 34 225 34 225 34 180 c 0,31,32
 34 121 34 121 65 90 c 128,-1,33
 96 59 96 59 144 59 c 0,34,35
 226 59 226 59 297 132 c 1,36,-1
 330 75 l 1,37,38
 279 38 279 38 272 34 c 0,39,40
 221 4 221 4 150 3 c 0,0,1
EndSplineSet
AnchorPoint: "a" 130 530 basechar 0
EndChar

StartChar: u0A9F.blws
Encoding: 65564 -1 154
Width: 371
Flags: W
LayerCount: 2
Fore
SplineSet
130 102 m 1,0,1
 68 102 68 102 34.5 149 c 128,-1,2
 1 196 1 196 1 260 c 0,3,4
 1 316 1 316 94.5 349.5 c 128,-1,5
 188 383 188 383 194 411 c 1,6,7
 198 424 198 424 186.5 441.5 c 128,-1,8
 175 459 175 459 159 459 c 2,9,-1
 55 459 l 1,10,-1
 32 510 l 1,11,-1
 150 510 l 1,12,13
 174 505 174 505 194.5 484 c 128,-1,14
 215 463 215 463 223 436 c 0,15,16
 226 426 226 426 226.5 415 c 128,-1,17
 227 404 227 404 228 398 c 1,18,19
 228 334 228 334 128.5 302 c 128,-1,20
 29 270 29 270 29 238 c 0,21,22
 29 198 29 198 58.5 176 c 128,-1,23
 88 154 88 154 126 154 c 0,24,25
 156 154 156 154 189 174 c 0,26,27
 216 190 216 190 238 216 c 1,28,-1
 264 161 l 1,29,30
 247 140 247 140 219 124.5 c 128,-1,31
 191 109 191 109 156 104 c 1,32,-1
 156 37 l 1,33,34
 92 37 92 37 61 21.5 c 128,-1,35
 30 6 30 6 30 -17 c 0,36,37
 30 -36 30 -36 50 -50 c 128,-1,38
 70 -64 70 -64 101 -64 c 0,39,40
 134 -64 134 -64 166 -47 c 0,41,42
 204 -27 204 -27 237 15 c 1,43,-1
 271 -7 l 1,44,45
 245 -50 245 -50 203 -73 c 128,-1,46
 161 -96 161 -96 117 -96 c 0,47,48
 68 -96 68 -96 34 -69 c 128,-1,49
 0 -42 0 -42 0 4 c 0,50,51
 0 39 0 39 31.5 55.5 c 128,-1,52
 63 72 63 72 106 72 c 0,53,54
 112 72 112 72 118 72 c 1,55,56
 126 70 126 70 130 70 c 1,57,-1
 130 102 l 1,0,1
EndSplineSet
Ligature2: "'blws' Below Base Substitutions in Gujarati lookup 6 subtable" u0A9F u0ACD u0A9F

EndChar

StartChar: u0A9F_u0AA0.blws
Encoding: 65565 -1 155
Width: 371
Flags: W
LayerCount: 2
Fore
SplineSet
82 -48 m 0,0,1
 96 -61 96 -61 120 -61 c 0,2,3
 152 -61 152 -61 181.5 -38.5 c 128,-1,4
 211 -16 211 -16 211 9 c 0,5,6
 211 25 211 25 194.5 37.5 c 128,-1,7
 178 50 178 50 155 50 c 0,8,9
 123 50 123 50 95.5 28 c 128,-1,10
 68 6 68 6 68 -20 c 0,11,12
 68 -36 68 -36 82 -48 c 0,0,1
125 102 m 1,13,14
 65 102 65 102 31 152 c 0,15,16
 1 196 1 196 1 260 c 0,17,18
 1 316 1 316 94.5 349.5 c 128,-1,19
 188 383 188 383 194 411 c 1,20,21
 198 424 198 424 186.5 441.5 c 128,-1,22
 175 459 175 459 159 459 c 2,23,-1
 55 459 l 1,24,-1
 32 510 l 1,25,-1
 150 510 l 1,26,27
 174 505 174 505 194.5 484 c 128,-1,28
 215 463 215 463 223 436 c 0,29,30
 226 426 226 426 226.5 415 c 128,-1,31
 227 404 227 404 228 398 c 1,32,33
 228 334 228 334 128.5 302 c 128,-1,34
 29 270 29 270 29 238 c 0,35,36
 29 198 29 198 58.5 176 c 128,-1,37
 88 154 88 154 126 154 c 0,38,39
 156 154 156 154 189 174 c 0,40,41
 216 190 216 190 238 216 c 1,42,-1
 264 161 l 1,43,44
 249 142 249 142 220.5 126 c 128,-1,45
 192 110 192 110 161 105 c 1,46,-1
 161 80 l 1,47,48
 199 74 199 74 224 48 c 128,-1,49
 249 22 249 22 249 -12 c 0,50,51
 249 -51 249 -51 219.5 -78.5 c 128,-1,52
 190 -106 190 -106 143 -106 c 0,53,54
 98 -106 98 -106 67 -78 c 128,-1,55
 36 -50 36 -50 36 -12 c 0,56,57
 36 22 36 22 61 48 c 128,-1,58
 86 74 86 74 125 80 c 1,59,-1
 125 102 l 1,13,14
EndSplineSet
Ligature2: "'blws' Below Base Substitutions in Gujarati lookup 6 subtable" u0A9F u0ACD u0AA0

EndChar

StartChar: u0AA0
Encoding: 2720 2720 156
Width: 431
Flags: W
LayerCount: 2
Fore
SplineSet
65 76 m 0,0,1
 89 53 89 53 133 53 c 0,2,3
 189 53 189 53 238.5 87 c 128,-1,4
 288 121 288 121 288 168 c 0,5,6
 288 202 288 202 258 233 c 0,7,8
 223 268 223 268 180 268 c 0,9,10
 130 268 130 268 87 222 c 128,-1,11
 44 176 44 176 44 127 c 0,12,13
 44 97 44 97 65 76 c 0,0,1
121 510 m 1,14,-1
 246 510 l 1,15,-1
 264 456 l 1,16,-1
 130 456 l 1,17,18
 112 430 112 430 112 410 c 0,19,20
 112 375 112 375 166.5 337 c 128,-1,21
 221 299 221 299 274 263 c 1,22,23
 331 213 331 213 331 154 c 0,24,25
 331 79 331 79 280 38 c 0,26,27
 234 1 234 1 166 1 c 0,28,29
 97 1 97 1 52 37 c 0,30,31
 1 78 1 78 1 154 c 0,32,33
 1 219 1 219 45 264 c 0,34,35
 85 305 85 305 136 305 c 1,36,37
 108 326 108 326 85 366.5 c 128,-1,38
 62 407 62 407 62 441 c 0,39,40
 62 467 62 467 76 485 c 128,-1,41
 90 503 90 503 121 510 c 1,14,-1
EndSplineSet
AnchorPoint: "a" 174 528 basechar 0
EndChar

StartChar: u0AA0.blws
Encoding: 65566 -1 157
Width: 365
Flags: W
LayerCount: 2
Fore
SplineSet
72 -48 m 0,0,1
 86 -61 86 -61 110 -61 c 0,2,3
 142 -61 142 -61 171.5 -38.5 c 128,-1,4
 201 -16 201 -16 201 9 c 0,5,6
 201 25 201 25 184.5 37.5 c 128,-1,7
 168 50 168 50 145 50 c 0,8,9
 113 50 113 50 85.5 28 c 128,-1,10
 58 6 58 6 58 -20 c 0,11,12
 58 -36 58 -36 72 -48 c 0,0,1
58 164 m 0,13,14
 73 150 73 150 102 150 c 0,15,16
 142 150 142 150 180 176 c 128,-1,17
 218 202 218 202 218 235 c 0,18,19
 218 247 218 247 213.5 257 c 128,-1,20
 209 267 209 267 197 279 c 0,21,22
 174 302 174 302 145 302 c 0,23,24
 107 302 107 302 75.5 268 c 128,-1,25
 44 234 44 234 44 198 c 0,26,27
 44 177 44 177 58 164 c 0,13,14
151 104 m 1,28,-1
 151 80 l 1,29,30
 189 74 189 74 214 48 c 128,-1,31
 239 22 239 22 239 -12 c 0,32,33
 239 -51 239 -51 209.5 -78.5 c 128,-1,34
 180 -106 180 -106 133 -106 c 0,35,36
 88 -106 88 -106 57 -78 c 128,-1,37
 26 -50 26 -50 26 -12 c 0,38,39
 26 22 26 22 51 48 c 128,-1,40
 76 74 76 74 115 80 c 1,41,-1
 115 104 l 1,42,43
 66 110 66 110 36 138 c 0,44,45
 1 171 1 171 1 225 c 0,46,47
 1 277 1 277 34.5 311.5 c 128,-1,48
 68 346 68 346 109 346 c 1,49,50
 86 360 86 360 67 389.5 c 128,-1,51
 48 419 48 419 48 447 c 0,52,53
 48 470 48 470 63 487 c 0,54,55
 72 497 72 497 79.5 502.5 c 128,-1,56
 87 508 87 508 97 510 c 1,57,-1
 197 510 l 1,58,-1
 213 457 l 1,59,-1
 106 457 l 1,60,61
 94 434 94 434 94 417 c 0,62,63
 94 380 94 380 179.5 332.5 c 128,-1,64
 265 285 265 285 265 235 c 2,65,-1
 265 225 l 2,66,67
 265 171 265 171 230 138 c 0,68,69
 200 110 200 110 151 104 c 1,28,-1
EndSplineSet
Ligature2: "'blws' Below Base Substitutions in Gujarati lookup 6 subtable" u0AA0 u0ACD u0AA0

EndChar

StartChar: u0AA1
Encoding: 2721 2721 158
Width: 494
Flags: W
LayerCount: 2
Fore
SplineSet
285 510 m 1,0,-1
 300 456 l 1,1,-1
 136 456 l 1,2,3
 121 447 121 447 112 426 c 128,-1,4
 103 405 103 405 103 390 c 0,5,6
 103 326 103 326 178 315 c 0,7,8
 317 295 317 295 318 295 c 0,9,10
 394 265 394 265 394 153 c 0,11,12
 394 91 394 91 351 46 c 128,-1,13
 308 1 308 1 239 1 c 0,14,15
 155 1 155 1 89 76 c 0,16,17
 41 130 41 130 1 225 c 1,18,-1
 23 232 l 1,19,20
 45 167 45 167 99 117 c 0,21,22
 162 59 162 59 230 59 c 0,23,24
 289 59 289 59 324 93 c 128,-1,25
 359 127 359 127 359 170 c 0,26,27
 359 243 359 243 286 252.5 c 128,-1,28
 213 262 213 262 143 270 c 1,29,30
 67 295 67 295 67 402 c 0,31,32
 67 437 67 437 86 470 c 128,-1,33
 105 503 105 503 129 510 c 1,34,-1
 285 510 l 1,0,-1
EndSplineSet
EndChar

StartChar: u0AA1.blws
Encoding: 65567 -1 159
Width: 406
Flags: W
LayerCount: 2
Fore
SplineSet
306 224 m 0,0,1
 306 175 306 175 280 142 c 0,2,3
 249 103 249 103 195 103 c 1,4,-1
 176 104 l 1,5,-1
 176 69 l 1,6,7
 186 70 186 70 193.5 70.5 c 128,-1,8
 201 71 201 71 206 71 c 0,9,10
 244 71 244 71 270 56.5 c 128,-1,11
 296 42 296 42 296 9 c 0,12,13
 296 -37 296 -37 263 -64 c 128,-1,14
 230 -91 230 -91 182 -91 c 0,15,16
 138 -91 138 -91 97 -69 c 128,-1,17
 56 -47 56 -47 31 -2 c 1,18,-1
 62 19 l 1,19,20
 99 -24 99 -24 139 -44 c 0,21,22
 173 -61 173 -61 205 -61 c 0,23,24
 233 -61 233 -61 250.5 -47.5 c 128,-1,25
 268 -34 268 -34 268 -16 c 0,26,27
 268 6 268 6 241 21 c 0,28,29
 209 38 209 38 150 38 c 1,30,-1
 150 109 l 1,31,32
 110 122 110 122 76 157 c 0,33,34
 37 198 37 198 1 281 c 1,35,-1
 19 288 l 1,36,37
 45 229 45 229 78 197 c 0,38,39
 124 153 124 153 184 153 c 0,40,41
 225 153 225 153 249.5 176.5 c 128,-1,42
 274 200 274 200 274 237 c 0,43,44
 274 280 274 280 250 294 c 0,45,46
 233 304 233 304 191 304 c 2,47,-1
 163 304 l 2,48,49
 110 304 110 304 88 321 c 0,50,51
 54 347 54 347 54 423 c 0,52,53
 54 451 54 451 69 477.5 c 128,-1,54
 84 504 84 504 103 509 c 1,55,-1
 209 509 l 1,56,-1
 237 456 l 1,57,-1
 105 456 l 1,58,59
 86 435 86 435 86 410 c 0,60,61
 86 356 86 356 195.5 349 c 128,-1,62
 305 342 305 342 306 224 c 0,0,1
EndSplineSet
Ligature2: "'blws' Below Base Substitutions in Gujarati lookup 6 subtable" u0AA1 u0ACD u0AA1

EndChar

StartChar: u0AA1_u0AA2.blws
Encoding: 65568 -1 160
Width: 406
Flags: W
LayerCount: 2
Fore
SplineSet
306 224 m 0,0,1
 306 176 306 176 281 142 c 0,2,3
 252 103 252 103 201 103 c 1,4,-1
 201 52 l 1,5,6
 154 35 154 35 130 26 c 0,7,8
 84 7 84 7 84 -30 c 0,9,10
 84 -59 84 -59 101.5 -79.5 c 128,-1,11
 119 -100 119 -100 145 -100 c 0,12,13
 157 -100 157 -100 162.5 -98.5 c 128,-1,14
 168 -97 168 -97 178 -91 c 1,15,16
 155 -65 155 -65 155 -40 c 0,17,18
 155 -16 155 -16 171.5 -2 c 128,-1,19
 188 12 188 12 209 9 c 0,20,21
 231 6 231 6 241 -6.5 c 128,-1,22
 251 -19 251 -19 251 -39 c 0,23,24
 251 -73 251 -73 221.5 -105 c 128,-1,25
 192 -137 192 -137 150 -137 c 0,26,27
 128 -137 128 -137 104 -123 c 128,-1,28
 80 -109 80 -109 67.5 -88.5 c 128,-1,29
 55 -68 55 -68 50 -35 c 0,30,31
 50 -30 50 -30 48 -20 c 1,32,33
 48 28 48 28 113 49 c 0,34,35
 140 57 140 57 167 66 c 1,36,-1
 167 104 l 1,37,-1
 150 110 l 1,38,39
 110 123 110 123 76 158 c 0,40,41
 37 199 37 199 1 282 c 1,42,-1
 19 289 l 1,43,44
 45 230 45 230 78 198 c 0,45,46
 124 154 124 154 184 154 c 0,47,48
 225 154 225 154 249.5 177.5 c 128,-1,49
 274 201 274 201 274 238 c 0,50,51
 274 281 274 281 250 295 c 0,52,53
 233 305 233 305 191 305 c 2,54,-1
 163 305 l 2,55,56
 110 305 110 305 88 322 c 0,57,58
 54 348 54 348 54 424 c 0,59,60
 54 452 54 452 69 478.5 c 128,-1,61
 84 505 84 505 103 510 c 1,62,-1
 209 510 l 1,63,-1
 237 457 l 1,64,-1
 105 457 l 1,65,66
 86 436 86 436 86 411 c 0,67,68
 86 357 86 357 195.5 350 c 128,-1,69
 305 343 305 343 306 224 c 0,0,1
224 -27 m 0,70,71
 217 -21 217 -21 207 -21 c 0,72,73
 191 -21 191 -21 187 -31 c 128,-1,74
 183 -41 183 -41 183 -51 c 0,75,76
 183 -73 183 -73 195 -81 c 1,77,78
 206 -77 206 -77 217.5 -63.5 c 128,-1,79
 229 -50 229 -50 229 -39 c 0,80,81
 229 -31 229 -31 224 -27 c 0,70,71
EndSplineSet
Ligature2: "'blws' Below Base Substitutions in Gujarati lookup 6 subtable" u0AA1 u0ACD u0AA2

EndChar

StartChar: u0AA2
Encoding: 2722 2722 161
Width: 423
Flags: W
LayerCount: 2
Fore
SplineSet
201 69 m 1,0,1
 178 94 178 94 168 117.5 c 128,-1,2
 158 141 158 141 158 163 c 0,3,4
 158 200 158 200 185 226 c 128,-1,5
 212 252 212 252 246 252 c 1,6,7
 253 251 253 251 256 251 c 0,8,9
 295 246 295 246 314 224 c 128,-1,10
 333 202 333 202 333 169 c 0,11,12
 333 110 333 110 282 58 c 0,13,14
 226 1 226 1 150 1 c 0,15,16
 109 1 109 1 83.5 18.5 c 128,-1,17
 58 36 58 36 35 75 c 1,18,19
 18 106 18 106 8 155 c 0,20,21
 5 171 5 171 2 199 c 1,22,23
 2 264 2 264 59 300 c 0,24,25
 85 316 85 316 169 341 c 0,26,27
 232 360 232 360 240 382 c 0,28,29
 242 388 242 388 242 393 c 0,30,31
 242 410 242 410 232 430 c 128,-1,32
 222 450 222 450 212 456 c 1,33,-1
 82 456 l 1,34,-1
 40 510 l 1,35,-1
 188 510 l 1,36,37
 217 504 217 504 239 478 c 0,38,39
 258 455 258 455 268 419 c 0,40,41
 273 399 273 399 273 386 c 0,42,43
 273 368 273 368 266.5 355.5 c 128,-1,44
 260 343 260 343 244 330 c 1,45,46
 226 313 226 313 119 261 c 0,47,48
 40 223 40 223 40 180 c 0,49,50
 40 127 40 127 69.5 89.5 c 128,-1,51
 99 52 99 52 143 52 c 0,52,53
 172 52 172 52 201 69 c 1,0,1
226 79 m 1,54,55
 252 89 252 89 278 119 c 128,-1,56
 304 149 304 149 304 174 c 0,57,58
 304 189 304 189 292 201 c 0,59,60
 275 217 275 217 254 217 c 0,61,62
 238 217 238 217 224.5 208 c 128,-1,63
 211 199 211 199 205 185 c 128,-1,64
 199 171 199 171 199 149 c 0,65,66
 199 100 199 100 226 79 c 1,54,55
EndSplineSet
EndChar

StartChar: u0AA3.half
Encoding: 65569 -1 163
Width: 376
Flags: W
LayerCount: 2
Fore
SplineSet
55 454 m 1,0,-1
 55 240 l 2,1,2
 55 200 55 200 121 152 c 1,3,4
 183 111 183 111 245 71 c 1,5,6
 312 25 312 25 312 -8 c 0,7,8
 312 -17 312 -17 310 -21 c 0,9,10
 304 -40 304 -40 288.5 -49 c 128,-1,11
 273 -58 273 -58 253 -58 c 0,12,13
 230 -58 230 -58 203.5 -47 c 128,-1,14
 177 -36 177 -36 159 -19 c 1,15,-1
 171 0 l 1,16,17
 185 -7 185 -7 203 -15.5 c 128,-1,18
 221 -24 221 -24 235 -24 c 256,19,20
 249 -24 249 -24 258.5 -14.5 c 128,-1,21
 268 -5 268 -5 268 5 c 0,22,23
 268 26 268 26 199 62 c 0,24,25
 101 113 101 113 71 137 c 0,26,27
 1 193 1 193 1 261 c 2,28,-1
 1 510 l 1,29,-1
 55 454 l 1,0,-1
147 305 m 1,30,31
 160 279 160 279 180 267 c 128,-1,32
 200 255 200 255 222 255 c 0,33,34
 248 255 248 255 266 279.5 c 128,-1,35
 284 304 284 304 284 342 c 0,36,37
 284 383 284 383 258 425 c 1,38,-1
 157 425 l 1,39,-1
 131 483 l 1,40,-1
 243 483 l 2,41,42
 273 483 273 483 291.5 439.5 c 128,-1,43
 310 396 310 396 310 339 c 0,44,45
 310 281 310 281 291 245 c 0,46,47
 269 203 269 203 227 203 c 0,48,49
 191 203 191 203 166.5 224.5 c 128,-1,50
 142 246 142 246 124 290 c 1,51,-1
 147 305 l 1,30,31
EndSplineSet
Ligature2: "'half' Half Forms in Gujarati lookup 4 subtable" u0AA3 u0ACD

EndChar

StartChar: u0AA3_u0AC1.blws
Encoding: 65570 -1 164
Width: 626
Flags: W
LayerCount: 2
Fore
SplineSet
55 454 m 1,0,-1
 55 240 l 2,1,2
 55 200 55 200 121 152 c 1,3,4
 183 111 183 111 245 71 c 1,5,6
 312 25 312 25 312 -8 c 0,7,8
 312 -17 312 -17 310 -21 c 0,9,10
 304 -40 304 -40 288.5 -49 c 128,-1,11
 273 -58 273 -58 253 -58 c 0,12,13
 230 -58 230 -58 203.5 -47 c 128,-1,14
 177 -36 177 -36 159 -19 c 1,15,-1
 171 0 l 1,16,17
 185 -7 185 -7 203 -15.5 c 128,-1,18
 221 -24 221 -24 235 -24 c 256,19,20
 249 -24 249 -24 258.5 -14.5 c 128,-1,21
 268 -5 268 -5 268 5 c 0,22,23
 268 26 268 26 199 62 c 0,24,25
 101 113 101 113 71 137 c 0,26,27
 1 193 1 193 1 261 c 2,28,-1
 1 510 l 1,29,-1
 55 454 l 1,0,-1
147 305 m 1,30,31
 160 279 160 279 180 267 c 128,-1,32
 200 255 200 255 222 255 c 0,33,34
 248 255 248 255 266 279.5 c 128,-1,35
 284 304 284 304 284 342 c 0,36,37
 284 383 284 383 258 425 c 1,38,-1
 157 425 l 1,39,-1
 131 483 l 1,40,-1
 243 483 l 2,41,42
 273 483 273 483 291.5 439.5 c 128,-1,43
 310 396 310 396 310 339 c 0,44,45
 310 281 310 281 291 245 c 0,46,47
 269 203 269 203 227 203 c 0,48,49
 191 203 191 203 166.5 224.5 c 128,-1,50
 142 246 142 246 124 290 c 1,51,-1
 147 305 l 1,30,31
376 510 m 1,52,-1
 430 452 l 1,53,-1
 430 123 l 2,54,55
 430 112 430 112 439 112 c 256,56,57
 448 112 448 112 459 124 c 128,-1,58
 470 136 470 136 475 153 c 1,59,-1
 525 98 l 1,60,61
 515 85 515 85 497.5 79 c 128,-1,62
 480 73 480 73 462 73 c 0,63,64
 442 73 442 73 430 77 c 0,65,66
 376 92 376 92 376 153 c 2,67,-1
 376 510 l 1,52,-1
504 45 m 0,68,69
 511 32 511 32 511 13 c 0,70,71
 511 -8 511 -8 502 -24.5 c 128,-1,72
 493 -41 493 -41 476 -48 c 128,-1,73
 459 -55 459 -55 443 -55 c 0,74,75
 408 -55 408 -55 377 -29.5 c 128,-1,76
 346 -4 346 -4 327 32 c 1,77,-1
 338 38 l 1,78,79
 353 15 353 15 382.5 -1.5 c 128,-1,80
 412 -18 412 -18 443 -18 c 1,81,82
 414 4 414 4 414 31 c 0,83,84
 414 40 414 40 418 48 c 0,85,86
 430 74 430 74 456 74 c 0,87,88
 471 74 471 74 484.5 66 c 128,-1,89
 498 58 498 58 504 45 c 0,68,69
456 -4 m 0,90,91
 477 -21 477 -21 488 -21 c 0,92,93
 497 -21 497 -21 497 -7 c 0,94,95
 497 2 497 2 491.5 22 c 128,-1,96
 486 42 486 42 469 42 c 0,97,98
 459 42 459 42 451 35.5 c 128,-1,99
 443 29 443 29 443 19 c 0,100,101
 443 7 443 7 456 -4 c 0,90,91
EndSplineSet
Ligature2: "'blws' Below Base Substitutions in Gujarati lookup 6 subtable" u0AA3 u0AC1

EndChar

StartChar: u0AA3_u0AC2.blws
Encoding: 65571 -1 165
Width: 626
Flags: W
LayerCount: 2
Fore
SplineSet
526 98 m 1,0,1
 516 85 516 85 498.5 79 c 128,-1,2
 481 73 481 73 463 73 c 0,3,4
 443 73 443 73 431 77 c 0,5,6
 377 92 377 92 377 153 c 2,7,-1
 377 510 l 1,8,-1
 431 452 l 1,9,-1
 431 123 l 2,10,11
 431 112 431 112 440 112 c 256,12,13
 449 112 449 112 460 124 c 128,-1,14
 471 136 471 136 476 153 c 1,15,-1
 526 98 l 1,0,1
259 425 m 1,16,-1
 158 425 l 1,17,-1
 132 483 l 1,18,-1
 244 483 l 2,19,20
 274 483 274 483 292.5 439.5 c 128,-1,21
 311 396 311 396 311 339 c 0,22,23
 311 281 311 281 292 245 c 0,24,25
 270 203 270 203 228 203 c 0,26,27
 192 203 192 203 167.5 224.5 c 128,-1,28
 143 246 143 246 125 290 c 1,29,-1
 148 305 l 1,30,31
 161 279 161 279 181 267 c 128,-1,32
 201 255 201 255 223 255 c 0,33,34
 249 255 249 255 267 279.5 c 128,-1,35
 285 304 285 304 285 342 c 0,36,37
 285 383 285 383 259 425 c 1,16,-1
563 -11 m 1,38,-1
 552 -18 l 1,39,40
 537 6 537 6 508 22.5 c 128,-1,41
 479 39 479 39 448 39 c 1,42,43
 477 18 477 18 477 -9 c 0,44,45
 477 -19 477 -19 473 -27 c 0,46,47
 461 -53 461 -53 435 -53 c 0,48,49
 420 -53 420 -53 406.5 -45 c 128,-1,50
 393 -37 393 -37 386.5 -24 c 128,-1,51
 380 -11 380 -11 380 9 c 0,52,53
 380 30 380 30 389 46.5 c 128,-1,54
 398 63 398 63 415 70 c 128,-1,55
 432 77 432 77 448 77 c 0,56,57
 483 77 483 77 515 50 c 1,58,59
 544 27 544 27 563 -11 c 1,38,-1
311 -19 m 0,60,61
 305 -38 305 -38 289.5 -47 c 128,-1,62
 274 -56 274 -56 254 -56 c 0,63,64
 231 -56 231 -56 204.5 -45 c 128,-1,65
 178 -34 178 -34 160 -17 c 1,66,-1
 172 2 l 1,67,68
 186 -5 186 -5 204 -13.5 c 128,-1,69
 222 -22 222 -22 236 -22 c 256,70,71
 250 -22 250 -22 259.5 -12.5 c 128,-1,72
 269 -3 269 -3 269 7 c 0,73,74
 269 28 269 28 200 64 c 0,75,76
 102 115 102 115 72 139 c 0,77,78
 2 195 2 195 2 263 c 2,79,-1
 2 512 l 1,80,-1
 56 456 l 1,81,-1
 56 242 l 2,82,83
 56 202 56 202 122 154 c 1,84,85
 184 113 184 113 246 73 c 1,86,87
 313 27 313 27 313 -6 c 0,88,89
 313 -15 313 -15 311 -19 c 0,60,61
435 26 m 0,90,91
 414 42 414 42 403 42 c 0,92,93
 394 42 394 42 394 29 c 0,94,95
 394 20 394 20 399.5 0 c 128,-1,96
 405 -20 405 -20 422 -20 c 0,97,98
 432 -20 432 -20 440 -13 c 128,-1,99
 448 -6 448 -6 448 4 c 0,100,101
 448 16 448 16 435 26 c 0,90,91
EndSplineSet
Ligature2: "'blws' Below Base Substitutions in Gujarati lookup 6 subtable" u0AA3 u0AC2

EndChar

StartChar: u0AA4.half
Encoding: 65572 -1 167
Width: 277
Flags: W
LayerCount: 2
Fore
SplineSet
281 309 m 1,0,-1
 82 309 l 1,1,2
 63 293 63 293 54 273 c 128,-1,3
 45 253 45 253 45 232 c 0,4,5
 45 178 45 178 103 96 c 0,6,7
 105 93 105 93 159 22 c 1,8,-1
 143 6 l 1,9,10
 87 71 87 71 75 87 c 0,11,12
 39 134 39 134 23 173 c 0,13,14
 2 222 2 222 2 278 c 0,15,16
 2 316 2 316 21.5 339.5 c 128,-1,17
 41 363 41 363 69 363 c 2,18,-1
 282 363 l 1,19,-1
 281 309 l 1,0,-1
EndSplineSet
Ligature2: "'half' Half Forms in Gujarati lookup 4 subtable" u0AA4 u0ACD

EndChar

StartChar: u0AA4_u0AA8.pres
Encoding: 65575 -1 170
Width: 811
Flags: W
LayerCount: 2
Fore
SplineSet
611 297 m 1,0,-1
 448 297 l 1,1,2
 450 279 450 279 450 269 c 0,3,4
 450 253 450 253 444.5 242 c 128,-1,5
 439 231 439 231 422 226 c 1,6,7
 393 222 393 222 361 254.5 c 128,-1,8
 329 287 329 287 329 319 c 0,9,10
 329 336 329 336 339 347 c 0,11,12
 345 353 345 353 355.5 355.5 c 128,-1,13
 366 358 366 358 379 358 c 0,14,15
 384 358 384 358 389 358 c 1,16,17
 389 357 389 357 390 357 c 2,18,-1
 611 357 l 1,19,-1
 611 510 l 1,20,-1
 665 452 l 1,21,-1
 665 51 l 2,22,23
 665 40 665 40 674 40 c 256,24,25
 683 40 683 40 694 52 c 128,-1,26
 705 64 705 64 710 81 c 1,27,-1
 761 26 l 1,28,29
 751 13 751 13 733 7 c 128,-1,30
 715 1 715 1 697 1 c 0,31,32
 677 1 677 1 665 5 c 0,33,34
 611 20 611 20 611 81 c 2,35,-1
 611 297 l 1,0,-1
282 309 m 1,36,-1
 83 309 l 1,37,38
 64 293 64 293 55 273 c 128,-1,39
 46 253 46 253 46 232 c 0,40,41
 46 178 46 178 104 96 c 0,42,43
 106 93 106 93 160 22 c 1,44,-1
 144 6 l 1,45,46
 88 71 88 71 76 87 c 0,47,48
 40 134 40 134 24 173 c 0,49,50
 3 222 3 222 3 278 c 0,51,52
 3 316 3 316 22.5 339.5 c 128,-1,53
 42 363 42 363 70 363 c 2,54,-1
 283 363 l 1,55,-1
 282 309 l 1,36,-1
EndSplineSet
Ligature2: "'pres' Pre Base Substitutions in Gujarati lookup 5 subtable" u0AA4.half u0AA8

EndChar

StartChar: u0AA5.half
Encoding: 65576 -1 172
Width: 307
Flags: W
LayerCount: 2
Fore
SplineSet
127 325 m 0,0,1
 139 314 139 314 149.5 310 c 128,-1,2
 160 306 160 306 172 306 c 0,3,4
 195 306 195 306 210 328 c 128,-1,5
 225 350 225 350 225 381 c 256,6,7
 225 412 225 412 211 436 c 0,8,9
 205 447 205 447 195.5 452.5 c 128,-1,10
 186 458 186 458 176 458 c 0,11,12
 150 458 150 458 126.5 431.5 c 128,-1,13
 103 405 103 405 103 374 c 0,14,15
 103 360 103 360 108.5 348 c 128,-1,16
 114 336 114 336 127 325 c 0,0,1
313 121 m 1,17,18
 282 89 282 89 243 68.5 c 128,-1,19
 204 48 204 48 163 48 c 0,20,21
 153 48 153 48 143 48 c 1,22,23
 133 51 133 51 129 52 c 0,24,25
 76 63 76 63 39 104 c 0,26,27
 -1 148 -1 148 -1 204 c 0,28,29
 -1 244 -1 244 25 268 c 0,30,31
 42 284 42 284 100 314 c 1,32,33
 78 333 78 333 67.5 355 c 128,-1,34
 57 377 57 377 57 401 c 0,35,36
 57 435 57 435 78.5 462.5 c 128,-1,37
 100 490 100 490 137 500 c 0,38,39
 144 502 144 502 158 502 c 0,40,41
 197 502 197 502 227 470 c 128,-1,42
 257 438 257 438 257 395 c 0,43,44
 257 368 257 368 244.5 346 c 128,-1,45
 232 324 232 324 202 304 c 0,46,47
 187 294 187 294 121 262 c 0,48,49
 31 218 31 218 31 180 c 0,50,51
 31 161 31 161 47 139 c 0,52,53
 77 100 77 100 133 100 c 0,54,55
 186 100 186 100 240 134.5 c 128,-1,56
 294 169 294 169 312 219 c 1,57,-1
 313 121 l 1,17,18
EndSplineSet
Ligature2: "'half' Half Forms in Gujarati lookup 4 subtable" u0AA5 u0ACD

EndChar

StartChar: u0AA6
Encoding: 2726 2726 174
Width: 377
Flags: W
LayerCount: 2
Fore
SplineSet
238 73 m 1,0,1
 236 85 236 85 236 89 c 0,2,3
 236 111 236 111 249 123 c 128,-1,4
 262 135 262 135 280 135 c 0,5,6
 290 135 290 135 295 133 c 0,7,8
 323 124 323 124 323 91 c 0,9,10
 323 74 323 74 312 57 c 1,11,12
 296 35 296 35 255.5 18 c 128,-1,13
 215 1 215 1 176 1 c 0,14,15
 104 1 104 1 55 49 c 0,16,17
 1 102 1 102 1 190 c 0,18,19
 1 231 1 231 19 262 c 128,-1,20
 37 293 37 293 71 312 c 1,21,22
 2 395 2 395 2 453 c 0,23,24
 2 510 2 510 73 510 c 2,25,-1
 189 510 l 1,26,-1
 205 456 l 1,27,-1
 63 456 l 1,28,29
 50 439 50 439 50 416 c 0,30,31
 50 391 50 391 63 366.5 c 128,-1,32
 76 342 76 342 96 326 c 1,33,34
 111 333 111 333 128 335 c 128,-1,35
 145 337 145 337 167 337 c 2,36,-1
 193 337 l 1,37,-1
 202 279 l 1,38,39
 114 279 114 279 68 245 c 0,40,41
 28 215 28 215 28 168 c 0,42,43
 28 122 28 122 65 86 c 128,-1,44
 102 50 102 50 157 50 c 0,45,46
 170 50 170 50 194.5 55 c 128,-1,47
 219 60 219 60 238 73 c 1,0,1
EndSplineSet
EndChar

StartChar: u0AA6.half
Encoding: 65578 -1 175
Width: 393
Flags: W
LayerCount: 2
Fore
SplineSet
59 106 m 0,0,1
 20 145 20 145 20 189 c 0,2,3
 20 217 20 217 31 247 c 1,4,5
 35 265 35 265 45 280 c 0,6,7
 52 291 52 291 65 306 c 1,8,9
 48 324 48 324 33 346 c 0,10,11
 2 392 2 392 2 426 c 0,12,13
 2 447 2 447 13 464 c 0,14,15
 30 491 30 491 81 501 c 0,16,17
 106 505 106 505 132 510 c 1,18,-1
 163 456 l 1,19,20
 135 453 135 453 107 451 c 1,21,22
 62 444 62 444 51 412 c 0,23,24
 48 403 48 403 48 395 c 0,25,26
 48 378 48 378 58 362.5 c 128,-1,27
 68 347 68 347 92 329 c 1,28,29
 114 343 114 343 127 351 c 0,30,31
 151 366 151 366 180 369 c 1,32,-1
 213 320 l 1,33,34
 162 306 162 306 125 278 c 0,35,36
 77 241 77 241 67 189 c 0,37,38
 66 184 66 184 66 173 c 0,39,40
 66 141 66 141 96 119 c 0,41,42
 122 100 122 100 153 100 c 0,43,44
 182 100 182 100 188 118 c 1,45,46
 188 151 188 151 204.5 176.5 c 128,-1,47
 221 202 221 202 247 202 c 0,48,49
 254 202 254 202 258 201 c 0,50,51
 293 192 293 192 293 152 c 0,52,53
 293 110 293 110 254 86 c 1,54,55
 256 84 256 84 274 50 c 0,56,57
 280 39 280 39 293 16 c 1,58,-1
 266 1 l 1,59,-1
 221 75 l 1,60,61
 196 61 196 61 169 61 c 256,62,63
 142 61 142 61 103 78 c 0,64,65
 89 84 89 84 79 90.5 c 128,-1,66
 69 97 69 97 59 106 c 0,0,1
EndSplineSet
Ligature2: "'half' Half Forms in Gujarati lookup 4 subtable" u0AA6 u0ACD

EndChar

StartChar: u0AA6.vatu
Encoding: 65579 -1 176
Width: 439
Flags: W
LayerCount: 2
Fore
SplineSet
225 186 m 1,0,-1
 85 75 l 1,1,-1
 65 111 l 1,2,-1
 136 171 l 1,3,4
 104 171 104 171 84.5 173.5 c 128,-1,5
 65 176 65 176 49 187 c 0,6,7
 26 204 26 204 14 228 c 128,-1,8
 2 252 2 252 2 280 c 0,9,10
 2 338 2 338 75 365 c 1,11,12
 137 385 137 385 199 405 c 1,13,14
 213 412 213 412 213 424 c 0,15,16
 213 432 213 432 207.5 439.5 c 128,-1,17
 202 447 202 447 190 456 c 1,18,-1
 58 456 l 1,19,-1
 31 510 l 1,20,-1
 182 510 l 1,21,22
 207 497 207 497 224 472.5 c 128,-1,23
 241 448 241 448 248 420 c 0,24,25
 249 415 249 415 249 407 c 0,26,27
 249 356 249 356 143.5 325.5 c 128,-1,28
 38 295 38 295 34 270 c 0,29,30
 29 245 29 245 49 233.5 c 128,-1,31
 69 222 69 222 102 222 c 0,32,33
 124 222 124 222 147 227 c 128,-1,34
 170 232 170 232 189 239 c 1,35,36
 189 262 189 262 203 284 c 128,-1,37
 217 306 217 306 237 306 c 0,38,39
 251 306 251 306 268.5 291.5 c 128,-1,40
 286 277 286 277 286 257 c 0,41,42
 286 242 286 242 278 229.5 c 128,-1,43
 270 217 270 217 253 205 c 1,44,-1
 342 44 l 1,45,-1
 314 30 l 1,46,-1
 225 186 l 1,0,-1
EndSplineSet
Ligature2: "'vatu' Vattu Variants in Gujarati lookup 3 subtable" u0AA6 u0ACD_u0AB0

EndChar

StartChar: u0AA6_u0AA7.blws
Encoding: 65580 -1 177
Width: 465
Flags: W
LayerCount: 2
Fore
SplineSet
91 83 m 1,0,1
 91 104 91 104 103 123 c 128,-1,2
 115 142 115 142 131 149 c 1,3,-1
 176 110 l 1,4,5
 158 105 158 105 148.5 92.5 c 128,-1,6
 139 80 139 80 139 66 c 0,7,8
 139 36 139 36 164 32 c 0,9,10
 194 26 194 26 230 64 c 128,-1,11
 266 102 266 102 266 142 c 0,12,13
 266 157 266 157 261.5 167.5 c 128,-1,14
 257 178 257 178 245 188 c 1,15,16
 224 180 224 180 197 174.5 c 128,-1,17
 170 169 170 169 147 169 c 0,18,19
 94 169 94 169 64 192 c 0,20,21
 27 220 27 220 27 281 c 0,22,23
 27 321 27 321 67 347 c 0,24,25
 77 354 77 354 219 404 c 1,26,27
 237 409 237 409 237 424 c 0,28,29
 237 434 237 434 229.5 444 c 128,-1,30
 222 454 222 454 215 458 c 1,31,-1
 82 458 l 1,32,-1
 55 511 l 1,33,-1
 206 511 l 1,34,35
 231 498 231 498 248 473.5 c 128,-1,36
 265 449 265 449 272 421 c 0,37,38
 273 417 273 417 273 408 c 0,39,40
 273 359 273 359 167 332 c 128,-1,41
 61 305 61 305 61 272 c 0,42,43
 61 245 61 245 79 232.5 c 128,-1,44
 97 220 97 220 129 220 c 0,45,46
 172 220 172 220 210 240 c 1,47,48
 216 300 216 300 256 300 c 0,49,50
 270 300 270 300 285 292 c 0,51,52
 309 279 309 279 309 255 c 0,53,54
 309 222 309 222 278 205 c 1,55,-1
 365 45 l 1,56,-1
 335 30 l 1,57,58
 333 38 333 38 331 43 c 0,59,60
 319 74 319 74 302 70 c 1,61,62
 270 2 270 2 197 2 c 0,63,64
 161 2 161 2 135 15 c 0,65,66
 100 32 100 32 92 68 c 1,67,68
 81 65 81 65 67 65 c 256,69,70
 53 65 53 65 42.5 68.5 c 128,-1,71
 32 72 32 72 23 81 c 0,72,73
 1 103 1 103 1 126 c 0,74,75
 1 143 1 143 12 159 c 128,-1,76
 23 175 23 175 39 184 c 1,77,-1
 73 154 l 1,78,79
 43 145 43 145 43 117 c 0,80,81
 43 102 43 102 52.5 92.5 c 128,-1,82
 62 83 62 83 80 83 c 0,83,84
 87 83 87 83 91 83 c 1,0,1
EndSplineSet
Ligature2: "'blws' Below Base Substitutions in Gujarati lookup 6 subtable" u0AA6 u0ACD u0AA7

EndChar

StartChar: u0AA6_u0AA8.pres
Encoding: 65581 -1 178
Width: 721
Flags: W
LayerCount: 2
Fore
SplineSet
521 297 m 1,0,-1
 358 297 l 1,1,2
 360 279 360 279 360 269 c 0,3,4
 360 253 360 253 354.5 242 c 128,-1,5
 349 231 349 231 332 226 c 1,6,7
 303 222 303 222 271 254.5 c 128,-1,8
 239 287 239 287 239 319 c 0,9,10
 239 336 239 336 249 347 c 0,11,12
 255 353 255 353 265.5 355.5 c 128,-1,13
 276 358 276 358 289 358 c 0,14,15
 294 358 294 358 299 358 c 1,16,17
 299 357 299 357 300 357 c 2,18,-1
 521 357 l 1,19,-1
 521 510 l 1,20,-1
 575 452 l 1,21,-1
 575 51 l 2,22,23
 575 40 575 40 584 40 c 256,24,25
 593 40 593 40 604 52 c 128,-1,26
 615 64 615 64 620 81 c 1,27,-1
 671 26 l 1,28,29
 661 13 661 13 643 7 c 128,-1,30
 625 1 625 1 607 1 c 0,31,32
 587 1 587 1 575 5 c 0,33,34
 521 20 521 20 521 81 c 2,35,-1
 521 297 l 1,0,-1
109 44 m 1,36,37
 54 61 54 61 27 99 c 128,-1,38
 0 137 0 137 0 185 c 0,39,40
 0 223 0 223 17.5 256.5 c 128,-1,41
 35 290 35 290 66 309 c 1,42,43
 39 341 39 341 31 357 c 0,44,45
 16 384 16 384 16 415 c 0,46,47
 16 429 16 429 19 444 c 0,48,49
 26 478 26 478 69 493 c 0,50,51
 100 504 100 504 148 504 c 0,52,53
 167 504 167 504 180.5 503 c 128,-1,54
 194 502 194 502 205 500 c 1,55,-1
 227 445 l 1,56,57
 200 452 200 452 172 452 c 0,58,59
 126 452 126 452 94.5 433.5 c 128,-1,60
 63 415 63 415 63 385 c 0,61,62
 63 356 63 356 93 325 c 1,63,64
 105 335 105 335 132.5 345.5 c 128,-1,65
 160 356 160 356 177 356 c 1,66,-1
 197 287 l 1,67,68
 113 266 113 266 70 233 c 0,69,70
 32 204 32 204 32 170 c 0,71,72
 32 127 32 127 91 94 c 0,73,74
 104 86 104 86 128 86 c 0,75,76
 176 86 176 86 230.5 120 c 128,-1,77
 285 154 285 154 300 200 c 1,78,-1
 300 99 l 1,79,80
 269 70 269 70 233 54 c 128,-1,81
 197 38 197 38 155 38 c 0,82,83
 133 38 133 38 109 44 c 1,36,37
EndSplineSet
Ligature2: "'pres' Pre Base Substitutions in Gujarati lookup 5 subtable" u0AA6.half u0AA8

EndChar

StartChar: u0AA6_u0AAE.pres
Encoding: 65582 -1 179
Width: 569
Flags: W
LayerCount: 2
Fore
SplineSet
79 339 m 1,0,1
 30 355 30 355 28 356 c 0,2,3
 1 371 1 371 1 409 c 0,4,5
 1 455 1 455 18 480 c 0,6,7
 38 510 38 510 83 510 c 2,8,-1
 177 510 l 1,9,-1
 201 456 l 1,10,-1
 90 456 l 2,11,12
 58 456 58 456 51 446.5 c 128,-1,13
 44 437 44 437 44 405 c 0,14,15
 44 386 44 386 61 377 c 0,16,17
 71 372 71 372 98 367 c 0,18,19
 149 357 149 357 176 338 c 0,20,21
 222 305 222 305 222 234 c 1,22,-1
 319 234 l 1,23,-1
 319 510 l 1,24,-1
 373 452 l 1,25,-1
 373 51 l 2,26,27
 373 40 373 40 382 40 c 256,28,29
 391 40 391 40 402 52 c 128,-1,30
 413 64 413 64 418 81 c 1,31,-1
 469 26 l 1,32,33
 459 13 459 13 441 7 c 128,-1,34
 423 1 423 1 405 1 c 0,35,36
 385 1 385 1 373 5 c 0,37,38
 319 20 319 20 319 81 c 2,39,-1
 319 174 l 1,40,-1
 231 174 l 1,41,42
 229 166 229 166 229 158 c 2,43,-1
 229 142 l 2,44,45
 229 127 229 127 224 117 c 128,-1,46
 219 107 219 107 204 103 c 1,47,48
 175 99 175 99 143 131.5 c 128,-1,49
 111 164 111 164 111 196 c 0,50,51
 111 213 111 213 121 224 c 128,-1,52
 131 235 131 235 157 235 c 1,53,54
 172 234 172 234 179 234 c 1,55,56
 179 313 179 313 128 328 c 1,57,58
 103 333 103 333 79 339 c 1,0,1
EndSplineSet
Ligature2: "'pres' Pre Base Substitutions in Gujarati lookup 5 subtable" u0AA6.half u0AAE

EndChar

StartChar: u0AA6_u0AAF.pres
Encoding: 65583 -1 180
Width: 553
Flags: W
LayerCount: 2
Fore
SplineSet
298 97 m 1,0,1
 268 70 268 70 231 54 c 128,-1,2
 194 38 194 38 155 38 c 0,3,4
 132 38 132 38 109 44 c 1,5,6
 56 61 56 61 29 100.5 c 128,-1,7
 2 140 2 140 2 187 c 0,8,9
 2 227 2 227 19.5 260 c 128,-1,10
 37 293 37 293 68 309 c 1,11,12
 40 333 40 333 26.5 355.5 c 128,-1,13
 13 378 13 378 13 404 c 0,14,15
 13 425 13 425 22.5 449 c 128,-1,16
 32 473 32 473 60.5 483 c 128,-1,17
 89 493 89 493 127 493 c 0,18,19
 140 493 140 493 152 492.5 c 128,-1,20
 164 492 164 492 176 492 c 0,21,22
 195 492 195 492 203.5 494.5 c 128,-1,23
 212 497 212 497 212 506 c 0,24,25
 212 547 212 547 173 564 c 0,26,27
 146 576 146 576 101 576 c 0,28,29
 90 576 90 576 81 575 c 128,-1,30
 72 574 72 574 67 574 c 1,31,-1
 56 628 l 1,32,-1
 124 628 l 2,33,34
 161 628 161 628 196 600 c 0,35,36
 237 567 237 567 237 524 c 0,37,38
 237 445 237 445 148.5 438.5 c 128,-1,39
 60 432 60 432 51 397 c 0,40,41
 47 379 47 379 58 358.5 c 128,-1,42
 69 338 69 338 94 326 c 1,43,44
 101 333 101 333 140 347 c 0,45,46
 166 356 166 356 176 356 c 1,47,-1
 196 287 l 1,48,49
 146 277 146 277 96 246 c 0,50,51
 35 208 35 208 35 170 c 0,52,53
 35 151 35 151 48.5 133 c 128,-1,54
 62 115 62 115 93 97 c 0,55,56
 112 86 112 86 136 86 c 0,57,58
 180 86 180 86 226.5 115 c 128,-1,59
 273 144 273 144 299 189 c 1,60,-1
 299 510 l 1,61,-1
 353 452 l 1,62,-1
 353 51 l 2,63,64
 353 40 353 40 362 40 c 256,65,66
 371 40 371 40 382 52 c 128,-1,67
 393 64 393 64 398 81 c 1,68,-1
 449 26 l 1,69,70
 439 13 439 13 421 7 c 128,-1,71
 403 1 403 1 385 1 c 0,72,73
 365 1 365 1 353 5 c 0,74,75
 299 20 299 20 299 81 c 1,76,-1
 298 97 l 1,0,1
EndSplineSet
EndChar

StartChar: u0AA6_u0AB5.blws
Encoding: 65584 -1 181
Width: 439
Flags: W
LayerCount: 2
Fore
SplineSet
49 187 m 1,0,1
 26 204 26 204 14 228 c 128,-1,2
 2 252 2 252 2 280 c 0,3,4
 2 338 2 338 75 365 c 1,5,6
 137 385 137 385 199 405 c 1,7,8
 213 412 213 412 213 424 c 0,9,10
 213 432 213 432 207.5 439.5 c 128,-1,11
 202 447 202 447 190 456 c 1,12,-1
 58 456 l 1,13,-1
 31 510 l 1,14,-1
 182 510 l 1,15,16
 207 497 207 497 224 472.5 c 128,-1,17
 241 448 241 448 248 420 c 0,18,19
 249 415 249 415 249 407 c 0,20,21
 249 356 249 356 143.5 325.5 c 128,-1,22
 38 295 38 295 34 270 c 0,23,24
 29 245 29 245 49 233.5 c 128,-1,25
 69 222 69 222 102 222 c 0,26,27
 124 222 124 222 147 227 c 128,-1,28
 170 232 170 232 189 239 c 1,29,30
 189 262 189 262 203 284 c 128,-1,31
 217 306 217 306 237 306 c 0,32,33
 251 306 251 306 268.5 291.5 c 128,-1,34
 286 277 286 277 286 257 c 0,35,36
 286 242 286 242 278 229.5 c 128,-1,37
 270 217 270 217 253 205 c 1,38,-1
 342 44 l 1,39,-1
 314 30 l 1,40,41
 306 44 306 44 302 51 c 0,42,43
 287 74 287 74 275 72 c 1,44,45
 261 42 261 42 234.5 21.5 c 128,-1,46
 208 1 208 1 175 1 c 256,47,48
 142 1 142 1 118 12 c 0,49,50
 86 26 86 26 73 55 c 0,51,52
 68 68 68 68 68 79 c 0,53,54
 68 102 68 102 79 121 c 128,-1,55
 90 140 90 140 108 148 c 1,56,-1
 151 113 l 1,57,58
 135 104 135 104 126 90 c 128,-1,59
 117 76 117 76 117 64 c 0,60,61
 117 41 117 41 142 32 c 1,62,63
 169 24 169 24 208 63 c 128,-1,64
 247 102 247 102 247 143 c 0,65,66
 247 170 247 170 227 189 c 1,67,68
 207 183 207 183 194 180 c 0,69,70
 154 171 154 171 120 171 c 0,71,72
 97 171 97 171 81.5 174.5 c 128,-1,73
 66 178 66 178 49 187 c 1,0,1
EndSplineSet
Ligature2: "'blws' Below Base Substitutions in Gujarati lookup 6 subtable" u0AA6 u0ACD u0AB5

EndChar

StartChar: u0AA7.half
Encoding: 65585 -1 183
Width: 292
Flags: W
LayerCount: 2
Fore
SplineSet
301 193 m 1,0,-1
 301 103 l 1,1,2
 276 75 276 75 234.5 56.5 c 128,-1,3
 193 38 193 38 151 38 c 0,4,5
 129 38 129 38 108 44 c 0,6,7
 53 61 53 61 26 99 c 128,-1,8
 -1 137 -1 137 -1 185 c 0,9,10
 -1 223 -1 223 16.5 256.5 c 128,-1,11
 34 290 34 290 65 309 c 1,12,13
 39 321 39 321 23 345 c 1,14,15
 2 374 2 374 2 410 c 0,16,17
 2 416 2 416 3 430 c 1,18,19
 9 467 9 467 38 494 c 0,20,21
 73 525 73 525 139 541 c 1,22,-1
 180 495 l 1,23,24
 109 465 109 465 84 444.5 c 128,-1,25
 59 424 59 424 59 391 c 0,26,27
 59 371 59 371 69 353 c 0,28,29
 76 340 76 340 91 326 c 1,30,31
 101 334 101 334 130 345 c 128,-1,32
 159 356 159 356 174 356 c 1,33,-1
 193 288 l 1,34,35
 116 268 116 268 73 235 c 128,-1,36
 30 202 30 202 30 164 c 0,37,38
 30 122 30 122 88 90 c 0,39,40
 100 84 100 84 119 84 c 0,41,42
 167 84 167 84 221 115 c 0,43,44
 280 149 280 149 301 193 c 1,0,-1
EndSplineSet
Ligature2: "'half' Half Forms in Gujarati lookup 4 subtable" u0AA7 u0ACD

EndChar

StartChar: u0AA8.half
Encoding: 65588 -1 187
Width: 301
Flags: W
LayerCount: 2
Fore
SplineSet
69 357 m 2,0,-1
 306 357 l 1,1,-1
 306 297 l 1,2,-1
 127 297 l 1,3,4
 129 279 129 279 129 269 c 0,5,6
 129 253 129 253 123.5 242 c 128,-1,7
 118 231 118 231 101 226 c 1,8,9
 72 222 72 222 40 254.5 c 128,-1,10
 8 287 8 287 8 319 c 0,11,12
 8 336 8 336 18 347 c 0,13,14
 24 353 24 353 34 355.5 c 128,-1,15
 44 358 44 358 57 358 c 0,16,17
 62 358 62 358 67 358 c 1,18,19
 67 357 67 357 69 357 c 2,0,-1
EndSplineSet
Ligature2: "'half' Half Forms in Gujarati lookup 4 subtable" u0AA8 u0ACD

EndChar

StartChar: u0AAA
Encoding: 2730 2730 189
Width: 555
Flags: W
LayerCount: 2
Fore
SplineSet
55 509 m 0,0,1
 64 510 64 510 69 510 c 0,2,3
 100 510 100 510 129 489 c 0,4,5
 147 475 147 475 154.5 450.5 c 128,-1,6
 162 426 162 426 162 393 c 2,7,-1
 162 174 l 1,8,9
 164 155 164 155 174.5 144.5 c 128,-1,10
 185 134 185 134 200 134 c 0,11,12
 229 134 229 134 260 163 c 128,-1,13
 291 192 291 192 296 230 c 1,14,-1
 296 510 l 1,15,-1
 349 452 l 1,16,-1
 349 51 l 2,17,18
 349 40 349 40 359 40 c 0,19,20
 373 40 373 40 387 56 c 0,21,22
 397 68 397 68 401 81 c 1,23,-1
 452 26 l 1,24,25
 442 13 442 13 422.5 7 c 128,-1,26
 403 1 403 1 383 1 c 0,27,28
 362 1 362 1 349 5 c 0,29,30
 296 20 296 20 296 81 c 2,31,-1
 296 117 l 1,32,33
 267 92 267 92 227 92 c 0,34,35
 179 92 179 92 145 126 c 0,36,37
 108 163 108 163 108 226 c 2,38,-1
 108 457 l 1,39,40
 100 462 100 462 92 462 c 0,41,42
 81 462 81 462 68 450 c 0,43,44
 61 444 61 444 47 426 c 1,45,-1
 3 480 l 1,46,47
 10 493 10 493 28.5 501 c 128,-1,48
 47 509 47 509 55 509 c 0,0,1
EndSplineSet
EndChar

StartChar: u0AAA.half
Encoding: 65590 -1 190
Width: 293
Flags: W
LayerCount: 2
Fore
SplineSet
296 117 m 1,0,1
 267 92 267 92 227 92 c 0,2,3
 179 92 179 92 145 126 c 0,4,5
 108 163 108 163 108 226 c 2,6,-1
 108 457 l 1,7,8
 100 462 100 462 92 462 c 0,9,10
 81 462 81 462 68 450 c 0,11,12
 61 444 61 444 47 426 c 1,13,-1
 3 480 l 1,14,15
 10 493 10 493 28.5 501 c 128,-1,16
 47 509 47 509 55 509 c 0,17,18
 64 510 64 510 69 510 c 0,19,20
 100 510 100 510 129 489 c 0,21,22
 147 475 147 475 154.5 450.5 c 128,-1,23
 162 426 162 426 162 393 c 2,24,-1
 162 174 l 1,25,26
 164 155 164 155 174.5 144.5 c 128,-1,27
 185 134 185 134 200 134 c 0,28,29
 229 134 229 134 260 163 c 128,-1,30
 291 192 291 192 296 230 c 1,31,-1
 296 117 l 1,0,1
EndSplineSet
Ligature2: "'half' Half Forms in Gujarati lookup 4 subtable" u0AAA u0ACD

EndChar

StartChar: u0AAB
Encoding: 2731 2731 192
Width: 484
Flags: W
LayerCount: 2
Fore
SplineSet
8 99 m 0,0,1
 17 111 17 111 28 116.5 c 128,-1,2
 39 122 39 122 52 122 c 0,3,4
 61 122 61 122 67 119 c 0,5,6
 81 111 81 111 97.5 85.5 c 128,-1,7
 114 60 114 60 126 56 c 1,8,9
 180 56 180 56 212 84.5 c 128,-1,10
 244 113 244 113 244 154 c 0,11,12
 244 185 244 185 225 216.5 c 128,-1,13
 206 248 206 248 169 272 c 1,14,-1
 33 222 l 1,15,-1
 8 272 l 1,16,-1
 108 308 l 1,17,18
 67 338 67 338 46 371.5 c 128,-1,19
 25 405 25 405 25 436 c 0,20,21
 25 472 25 472 52.5 496 c 128,-1,22
 80 520 80 520 123 520 c 0,23,24
 148 520 148 520 181 510 c 1,25,-1
 207 455 l 1,26,27
 179 462 179 462 155 462 c 0,28,29
 118 462 118 462 99.5 446.5 c 128,-1,30
 81 431 81 431 81 406 c 0,31,32
 81 385 81 385 96.5 360.5 c 128,-1,33
 112 336 112 336 138 320 c 1,34,-1
 275 371 l 1,35,-1
 302 323 l 1,36,-1
 203 287 l 1,37,38
 244 266 244 266 267.5 224 c 128,-1,39
 291 182 291 182 291 136 c 0,40,41
 291 79 291 79 257 42 c 0,42,43
 219 1 219 1 151 1 c 1,44,45
 153 -15 153 -15 173.5 -37.5 c 128,-1,46
 194 -60 194 -60 213 -70 c 0,47,48
 222 -75 222 -75 231 -76.5 c 128,-1,49
 240 -78 240 -78 248 -78 c 0,50,51
 278 -78 278 -78 315 -60 c 0,52,53
 327 -54 327 -54 347 -41 c 1,54,-1
 372 -102 l 1,55,56
 346 -117 346 -117 322 -125 c 128,-1,57
 298 -133 298 -133 273 -133 c 0,58,59
 254 -133 254 -133 239 -129 c 128,-1,60
 224 -125 224 -125 205 -114 c 0,61,62
 178 -98 178 -98 157 -59 c 0,63,64
 131 -11 131 -11 119 2 c 1,65,66
 74 2 74 2 37.5 25 c 128,-1,67
 1 48 1 48 1 78 c 0,68,69
 1 89 1 89 8 99 c 0,0,1
EndSplineSet
EndChar

